<svg width="56" height="56" viewBox="0 0 56 56" fill="none" xmlns="http://www.w3.org/2000/svg">
<path d="M24.1101 28.0015L1.30159 5.19852C1.04591 4.94284 0.843088 4.6393 0.704713 4.30523C0.566338 3.97116 0.495117 3.61311 0.495117 3.25152C0.495117 2.88993 0.566338 2.53188 0.704713 2.19781C0.843088 1.86375 1.04591 1.5602 1.30159 1.30452C1.55727 1.04884 1.86082 0.846018 2.19488 0.707643C2.52895 0.569268 2.887 0.498047 3.24859 0.498047C3.61018 0.498047 3.96823 0.569268 4.3023 0.707643C4.63637 0.846018 4.93991 1.04884 5.19559 1.30452L27.9986 24.113L50.8016 1.30452C51.318 0.788144 52.0183 0.498047 52.7486 0.498047C53.4789 0.498047 54.1792 0.788144 54.6956 1.30452C55.212 1.8209 55.5021 2.52125 55.5021 3.25152C55.5021 3.98179 55.212 4.68215 54.6956 5.19852L31.8871 28.0015L54.6956 50.8045C55.212 51.3209 55.5021 52.0213 55.5021 52.7515C55.5021 53.4818 55.212 54.1822 54.6956 54.6985C54.1792 55.2149 53.4789 55.505 52.7486 55.505C52.0183 55.505 51.318 55.2149 50.8016 54.6985L27.9986 31.89L5.19559 54.6985C4.67922 55.2149 3.97886 55.505 3.24859 55.505C2.51832 55.505 1.81797 55.2149 1.30159 54.6985C0.785214 54.1822 0.495117 53.4818 0.495117 52.7515C0.495117 52.0213 0.785214 51.3209 1.30159 50.8045L24.1101 28.0015Z" fill="white"/>
</svg>
