<svg width="193" height="110" viewBox="0 0 193 110" fill="none" xmlns="http://www.w3.org/2000/svg">
<path d="M55.8275 96.0257H53.627V98.2414H52.8867V93.0215H55.8343C56.7308 93.0215 57.3149 93.5788 57.3149 94.5168C57.3149 95.4547 56.724 96.0257 55.8343 96.0257M55.8275 93.7895H53.6202V95.2576H55.8207C56.2962 95.2576 56.5678 95.0198 56.5678 94.5168C56.5678 94.0138 56.3097 93.7895 55.8207 93.7895" fill="white"/>
<path d="M64.2369 97.6026C63.8022 98.1872 62.994 98.3571 62.3148 98.3571C61.6085 98.3571 60.8206 98.126 60.4063 97.4939C60.1483 97.0997 60.1211 96.7326 60.1211 96.2704V93.0352H60.8546V96.2772C60.8546 96.6375 60.875 96.9433 61.1399 97.2152C61.4591 97.5415 62.0024 97.6026 62.4303 97.6026C63.3607 97.6026 63.8701 97.3104 63.8701 96.284V93.0487H64.5968V96.284C64.5968 96.8142 64.5629 97.1812 64.2369 97.6094" fill="white"/>
<path d="M72.1825 97.8473C71.7682 98.2415 71.415 98.2551 70.8785 98.2551H67.9648V93.0352H70.8785C71.7342 93.0352 72.3727 93.5517 72.3727 94.4693C72.3727 94.9179 72.23 95.1965 71.9176 95.4956C72.3319 95.8287 72.6172 96.2704 72.6172 96.8346C72.6172 97.2356 72.4677 97.5822 72.1825 97.8473ZM70.8785 95.9714H68.7051V97.4871H70.96C71.2317 97.4871 71.4762 97.4667 71.6799 97.2628C71.8157 97.1201 71.8905 96.9365 71.8905 96.7394C71.8905 96.1277 71.3811 95.9782 70.8853 95.9782M70.8785 93.7964H68.6983V95.1898H70.8785C71.3267 95.1898 71.6324 94.9587 71.6324 94.4761C71.6324 93.9799 71.3267 93.7964 70.8785 93.7964Z" fill="white"/>
<path d="M75.5156 98.262V93.042H76.2627L76.2559 97.5007H79.3461V98.262H75.5156Z" fill="white"/>
<path d="M81.7773 98.2688V93.0488H82.5108L82.5041 98.2688H81.7773Z" fill="white"/>
<path d="M88.2656 98.3977C86.7035 98.3977 85.4062 97.317 85.4062 95.645C85.4062 94.0613 86.6016 92.9263 88.1161 92.9263C89.0534 92.9263 89.8956 93.3341 90.5612 94.0002L90.011 94.4827C89.4677 94.0138 88.8836 93.6875 88.1569 93.6875C87.0431 93.6875 86.1398 94.476 86.133 95.6586C86.133 96.9228 87.1653 97.6229 88.3063 97.6297C89.1009 97.6297 89.5967 97.3578 90.1469 96.7937L90.6359 97.3374C90.0246 98.0783 89.1892 98.3977 88.252 98.3977" fill="white"/>
<path d="M99.0635 98.4045C98.0312 98.4045 97.2569 98.0919 96.5234 97.3306L97.0396 96.8209C97.6916 97.4394 98.2757 97.6297 99.1586 97.6365C99.7223 97.6365 100.728 97.4598 100.728 96.6985C100.728 96.4402 100.598 96.2431 100.388 96.1004C100.123 95.9237 99.8718 95.9101 99.1247 95.8965L98.364 95.8829C97.5762 95.8693 96.8562 95.4411 96.8562 94.5439C96.8562 93.7827 97.4743 93.2729 98.1195 93.0554C98.4047 92.9671 98.7036 92.9263 98.9956 92.9263C99.7563 92.9263 100.49 93.1642 101.101 93.6399L100.687 94.2449C100.137 93.8982 99.7495 93.7011 99.0907 93.6943C98.5949 93.6943 97.6033 93.8574 97.6033 94.5303C97.6033 95.0401 98.0584 95.1352 98.4591 95.1352H99.213C99.7767 95.1352 100.239 95.142 100.741 95.4547C101.196 95.7334 101.454 96.2091 101.454 96.7597C101.454 98.0239 100.048 98.4045 99.05 98.3977" fill="white"/>
<path d="M106.691 98.4182C105.129 98.4182 103.832 97.3375 103.832 95.6655C103.832 94.0818 105.021 92.9468 106.542 92.9468C107.479 92.9468 108.321 93.3546 108.987 94.0207L108.437 94.5032C107.893 94.0343 107.309 93.7148 106.576 93.708C105.462 93.708 104.559 94.4965 104.552 95.6791C104.552 96.9433 105.584 97.6434 106.725 97.6502C107.52 97.6502 108.016 97.3783 108.566 96.8142L109.055 97.3579C108.444 98.0988 107.601 98.4182 106.671 98.4182" fill="white"/>
<path d="M115.574 98.2956L115.581 95.9643L112.593 95.9575V98.2956H111.859V93.0757H112.593V95.1895L115.581 95.1963V93.0825H116.322V98.3025L115.574 98.2956Z" fill="white"/>
<path d="M122.075 98.4318C120.54 98.4318 119.352 97.1879 119.352 95.6179C119.352 94.0886 120.635 92.9331 122.089 92.9331C123.59 92.9331 124.812 94.1429 124.812 95.7062C124.812 97.2423 123.549 98.4318 122.075 98.4318ZM122.082 93.7012C120.954 93.7012 120.078 94.5304 120.078 95.7062C120.078 96.8345 121.022 97.6569 122.082 97.6569C123.169 97.6569 124.079 96.7937 124.079 95.6586C124.079 94.5236 123.162 93.7012 122.082 93.6944" fill="white"/>
<path d="M130.212 98.4386C128.677 98.4386 127.488 97.1948 127.488 95.6247C127.488 94.0954 128.765 92.9399 130.225 92.9399C131.726 92.9399 132.949 94.1498 132.949 95.7131C132.949 97.2763 131.686 98.4386 130.212 98.4386ZM130.219 93.708C129.091 93.708 128.215 94.5372 128.215 95.7131C128.215 96.8345 129.159 97.6637 130.219 97.6637C131.305 97.6637 132.209 96.8005 132.215 95.6655C132.215 94.5168 131.298 93.708 130.219 93.708Z" fill="white"/>
<path d="M135.984 98.3162V93.103H136.725V97.555L139.815 97.5618V98.323L135.984 98.3162Z" fill="white"/>
<path d="M86.2278 109.932L83.2938 109.952L83.2734 106.493L86.1124 106.479V106.887L83.6809 106.9L83.6877 107.954L84.9714 107.947V108.348L83.6945 108.355V109.544L86.2278 109.531V109.932Z" fill="white"/>
<path d="M89.0723 108.145C88.8753 108.036 88.6104 107.873 88.0875 107.873C87.646 107.873 87.4219 107.988 87.4219 108.192C87.4219 108.423 87.5034 108.498 88.1894 108.491C89.2692 108.491 89.3915 108.811 89.3915 109.184C89.3915 109.871 88.7531 109.993 88.2233 110C87.4083 110 86.9804 109.715 86.8242 109.599L87.0144 109.246C87.2928 109.409 87.5577 109.599 88.2301 109.592C88.658 109.592 88.9568 109.497 88.9568 109.232C88.9568 108.926 88.8006 108.919 87.9041 108.899C87.3608 108.899 86.9804 108.736 86.9804 108.24C86.9804 107.839 87.2725 107.472 88.0739 107.465C88.6512 107.465 89.0927 107.696 89.2557 107.778L89.0723 108.145Z" fill="white"/>
<path d="M91.3223 109.905L90.9148 109.912L90.9012 107.927L89.9844 107.934V107.526L92.2188 107.519V107.92L91.3088 107.927L91.3223 109.905Z" fill="white"/>
<path d="M93.3652 109.966C93.2022 109.966 93.0732 109.837 93.0664 109.674C93.0664 109.51 93.1955 109.375 93.3585 109.375C93.5215 109.375 93.6505 109.504 93.6573 109.667C93.6573 109.83 93.5282 109.959 93.3652 109.966Z" fill="white"/>
<path d="M96.4622 106.865L96.0547 106.867L96.0646 109.871L96.4721 109.87L96.4622 106.865Z" fill="white"/>
<path d="M98.4175 109.13C98.7571 109.361 99.1646 109.517 99.5721 109.517C100.577 109.517 100.998 108.777 100.998 108.335C100.557 108.559 100.048 108.709 99.545 108.709C98.8726 108.709 98.0508 108.477 98.0508 107.757C98.0508 107.104 98.9133 106.771 99.6333 106.765C100.74 106.765 101.399 107.451 101.406 108.274C101.406 109.15 100.645 109.905 99.5721 109.912C98.8047 109.912 98.37 109.579 98.1934 109.456L98.4243 109.123L98.4175 109.13ZM100.924 107.907C100.815 107.675 100.543 107.172 99.6468 107.179C98.8522 107.179 98.4583 107.519 98.4583 107.784C98.4583 107.988 98.7164 108.314 99.5314 108.308C100.014 108.308 100.503 108.144 100.93 107.907" fill="white"/>
<path d="M103.268 109.83H102.786L104.579 107.22L102.358 107.233L102.352 106.832L104.885 106.819L105.136 107.111L103.268 109.83Z" fill="white"/>
<path d="M107.976 109.878C106.876 109.878 106.21 109.171 106.203 108.315C106.203 107.458 106.855 106.738 107.955 106.731C109.062 106.731 109.721 107.438 109.728 108.294C109.728 109.151 109.076 109.871 107.976 109.878ZM109.321 108.294C109.321 107.717 108.879 107.125 107.955 107.132C107.039 107.132 106.604 107.73 106.604 108.308C106.604 108.886 107.045 109.477 107.969 109.47C108.886 109.47 109.321 108.872 109.321 108.294Z" fill="white"/>
<path d="M15.0504 56.4543C13.2642 55.5707 11.2946 55.1357 9.02618 55.1357H0V76.7361H3.30077C5.17528 76.7361 7.05659 76.7361 8.93789 76.7361H8.97185C11.2471 76.7361 13.2235 76.3147 15.0029 75.4447C16.5718 74.6766 17.869 73.6367 18.847 72.3657C20.1442 70.6733 20.8505 68.7158 20.9456 66.5476C21.0475 64.2503 20.5789 62.2724 19.5126 60.4984C18.4667 58.7585 16.9657 57.3991 15.0504 56.4543ZM16.2322 70.517C15.0436 72.1346 13.3797 73.1813 11.281 73.6231C10.6494 73.7591 9.92269 73.8338 9.05335 73.8474C7.61351 73.8678 6.17366 73.8678 4.73382 73.861H3.15135V58.0176H5.00549C6.59475 58.0176 8.17722 58.0176 9.75969 58.0516C11.3557 58.0788 12.8635 58.5613 14.2626 59.4925C16.0488 60.682 17.1423 62.286 17.5158 64.2707C17.9709 66.6836 17.5498 68.7294 16.2322 70.5238" fill="white"/>
<path d="M111.234 56.8553C108.252 54.9115 104.863 54.3337 101.155 55.1561C98.8323 55.6659 96.8491 56.7806 95.2734 58.4662C93.3174 60.546 92.3394 63.0948 92.3598 66.0447C92.3462 67.5604 92.6586 69.0353 93.2903 70.4422C94.146 72.3521 95.4772 73.9018 97.2362 75.0437C99.2738 76.3759 101.597 77.0555 104.137 77.0623H104.191C107.05 77.0623 109.597 76.2467 111.764 74.6291C113.584 73.2697 114.847 71.5229 115.52 69.4227C116.375 66.7379 116.26 64.094 115.18 61.552C114.345 59.5945 113.02 58.0176 111.241 56.8553M112.769 65.9427C112.789 68.0497 112.083 69.8985 110.67 71.4482C109.312 72.9367 107.58 73.827 105.536 74.0921C103.872 74.3096 102.378 74.1533 100.965 73.6163C99.0632 72.8959 97.6369 71.6996 96.7133 70.048C95.3414 67.6011 95.2191 65.0795 96.3465 62.5579C97.569 59.8256 99.7831 58.2215 102.934 57.7865C103.403 57.7185 103.872 57.6914 104.32 57.6914C105.712 57.6914 107.023 57.9972 108.232 58.6089C110.385 59.7032 111.791 61.3684 112.423 63.5706C112.572 64.1008 112.653 64.6377 112.742 65.2155C112.762 65.3446 112.742 65.4805 112.762 65.6165V65.9563L112.769 65.9427Z" fill="white"/>
<path d="M178.9 73.8544V67.1867H189.577V64.332H178.894V58.0109H192.586V55.1562H175.742V76.709H193V73.8544H178.9Z" fill="white"/>
<path d="M84.2569 64.3319H71.339V55.1494H68.2148V76.709H71.3662V67.2546H84.2636V76.7158H87.4082V55.1562H84.2569V64.3319Z" fill="white"/>
<path d="M44.6973 75.9138L41.0841 67.4994C39.3862 63.5504 37.6882 59.5946 35.9903 55.6457C35.8341 55.2854 35.576 55.1155 35.1821 55.1359C34.632 55.1563 34.0615 55.1563 33.423 55.1359C33.0495 55.1359 32.7778 55.2854 32.6216 55.6457C30.36 60.92 28.0983 66.1876 25.8299 71.4551L23.5547 76.7431H24.7704C25.2934 76.7431 25.8095 76.7431 26.3189 76.7431H26.3461C26.6992 76.7431 26.9234 76.5867 27.066 76.2537C27.3648 75.5468 27.6637 74.8467 27.9625 74.1399C28.3428 73.2563 28.7164 72.3659 29.0899 71.4823C29.1103 71.4279 29.1307 71.4075 29.1307 71.4075C29.1307 71.4075 29.1646 71.3939 29.2597 71.3939C32.5673 71.4007 35.8748 71.4007 39.1824 71.3939C39.2571 71.3939 39.2843 71.4007 39.2979 71.4483C39.9635 73.0456 40.6494 74.6292 41.3422 76.2197C41.4305 76.4168 41.6682 76.7159 41.967 76.7227C42.5986 76.7363 43.2303 76.7363 43.8755 76.7363H45.0165L44.7856 76.1177C44.7584 76.043 44.7312 75.9818 44.7041 75.9206M38.0414 68.5325H30.36L34.1837 59.5675L38.0414 68.5325Z" fill="white"/>
<path d="M136.696 54.9658V58.9624C136.696 61.8306 136.696 64.7057 136.696 67.5739C136.696 68.9197 136.465 69.9596 135.949 70.8636C135.168 72.2434 134.061 73.1609 132.56 73.6639C131.507 74.0173 130.366 74.0921 129.069 73.8882C127.323 73.6163 125.924 72.8143 124.912 71.5025C124.138 70.4966 123.765 69.3003 123.765 67.8322C123.765 64.9708 123.765 62.1093 123.765 59.2478V54.9658H120.613V58.6157C120.613 61.851 120.613 65.0931 120.613 68.3284C120.613 68.9265 120.661 69.4635 120.756 69.9664C121.258 72.6852 122.875 74.6902 125.564 75.9205C126.977 76.5662 128.492 76.8924 130.074 76.8924C130.971 76.8924 131.888 76.7905 132.832 76.5798C135.582 75.968 137.606 74.4523 138.842 72.0667C139.501 70.7956 139.827 69.3479 139.827 67.6351C139.834 64.7737 139.827 61.9122 139.827 59.0575V54.9658H136.689H136.696Z" fill="white"/>
<path d="M52.6779 55.1562H49.5469V76.7226H64.8826V73.8476H52.6779V55.1562Z" fill="white"/>
<path d="M170.202 55.1562H167.078V76.7158H170.202V55.1562Z" fill="white"/>
<path d="M161.641 70.1296C161.519 69.0557 161.084 68.145 160.337 67.4381C159.577 66.7108 158.673 66.1331 157.648 65.7185C156.711 65.3379 155.76 64.9844 154.809 64.631C154.035 64.3455 153.267 64.0533 152.5 63.7542L152.289 63.6726C151.399 63.3192 150.483 62.959 149.668 62.49C148.873 62.0346 148.398 61.2598 148.411 60.4102C148.418 59.547 148.92 58.7857 149.783 58.3235C150.754 57.8002 151.848 57.5895 153.131 57.6642C155.026 57.7866 156.493 58.6022 157.492 60.1043C157.655 60.3422 157.784 60.6073 157.926 60.8859C157.994 61.0219 158.069 61.1646 158.144 61.3006L158.3 61.586L161.383 60.4849L161.173 60.0975C161.078 59.9208 160.989 59.7441 160.901 59.5674C160.704 59.1799 160.5 58.7857 160.256 58.4119C159.278 56.9098 157.919 55.8699 156.215 55.3261C154.218 54.6872 152.133 54.6261 150.021 55.1494C147.053 55.8767 145.185 57.9361 145.138 60.5121C145.117 61.7695 145.464 62.8094 146.204 63.6862C146.869 64.4679 147.759 65.0932 148.866 65.5418C149.729 65.8884 150.598 66.2147 151.474 66.5409C152.194 66.8128 152.921 67.0779 153.634 67.3633L153.817 67.4313C154.87 67.8459 155.963 68.2809 156.975 68.7975C158.225 69.4364 158.68 70.4695 158.273 71.7881C158.021 72.6037 157.424 73.2086 156.391 73.6776C155.4 74.133 154.252 74.2961 152.778 74.1942C152.262 74.1602 151.773 74.1126 151.325 73.9766C148.058 72.9707 146.319 70.8093 146.048 70.5103C145.756 70.184 145.491 69.8306 145.267 69.4364C144.778 70.5035 144.723 71.7269 144.961 72.8688C145.002 73.0523 145.063 73.229 145.151 73.3989C145.246 73.5756 145.79 74.7583 148.377 76.0633C149.328 76.5391 150.442 76.8177 151.759 76.9673C152.377 77.0352 152.968 77.0692 153.539 77.0692C155.407 77.0692 157.037 76.6954 158.47 75.9409C159.774 75.2545 160.718 74.2757 161.275 73.0387C161.655 72.2027 161.77 71.2783 161.641 70.1432" fill="white"/>
<path d="M110.652 7.47654L110.265 7.04834L105.531 11.3439C105.545 11.4323 105.552 11.5207 105.565 11.6022L110.652 7.47654Z" fill="white"/>
<path d="M114.63 20.9273L115.384 20.3496L111.615 20.5399C111.601 20.6079 111.588 20.6827 111.574 20.7574L114.63 20.9273Z" fill="white"/>
<path d="M113.896 13.6207V13.1313L110.059 14.9461C110.127 15.0005 110.201 15.0481 110.269 15.1024L113.896 13.6207Z" fill="white"/>
<path d="M83.7067 15.4763L78.7148 13.1313V13.7227L83.5437 15.653C83.5981 15.5918 83.6524 15.5374 83.7067 15.4831" fill="white"/>
<path d="M88.993 1.89648L88.6602 2.30429L91.4991 8.47582C91.5059 8.34668 91.5331 8.22434 91.567 8.11559L88.9862 1.89648H88.993Z" fill="white"/>
<path d="M82.2422 6.7627V7.37441L88.3751 12.8459C88.477 12.8459 88.5856 12.8323 88.6875 12.8323L82.2422 6.7627Z" fill="white"/>
<path d="M104.884 3.31693L104.518 2.81396L103.023 6.45707C103.091 6.49785 103.146 6.53863 103.2 6.58621L104.884 3.31693Z" fill="white"/>
<path d="M97.2442 2.84787L97.1967 0.299061L96.6602 0L97.0269 2.71194C97.0269 2.71194 97.0541 2.71874 97.0677 2.72553C97.1152 2.74592 97.1763 2.7867 97.2442 2.84787Z" fill="white"/>
<path d="M107.913 4.41787L107.668 3.97607L104.266 8.863C104.293 8.93776 104.334 9.01253 104.367 9.08729L107.913 4.42467V4.41787Z" fill="white"/>
<path d="M114.534 17.6377L114.853 17.0396L111.797 17.6853C111.804 17.7532 111.81 17.828 111.81 17.9027L114.527 17.6445L114.534 17.6377Z" fill="white"/>
<path d="M112.809 10.2498L112.544 9.7876L107.328 13.3967C107.41 13.4375 107.484 13.4715 107.566 13.5123L112.809 10.2498Z" fill="white"/>
<path d="M77.7734 16.9785V17.4611L82.8401 18.3991C82.8401 18.3243 82.8401 18.2563 82.8401 18.1816L77.7734 16.9785Z" fill="white"/>
<path d="M85.2109 3.78564L84.8984 4.24783L91.1196 12.6555C91.2079 12.6419 91.2894 12.6283 91.3573 12.6147L85.2109 3.78564Z" fill="white"/>
<path d="M80.3401 9.97115L80.082 10.4129L85.495 13.6618C85.5426 13.6143 85.5901 13.5531 85.6376 13.4987L80.3333 9.96436L80.3401 9.97115Z" fill="white"/>
<path d="M101.592 1.04008L101.177 0.707031L100.227 4.88029C100.288 4.92107 100.356 4.95505 100.417 4.99584L101.592 1.04687V1.04008Z" fill="white"/>
<path d="M93.9909 4.53334L92.8092 0.652344L92.4492 1.01258L93.9502 5.0363C93.9502 5.0363 93.9706 5.00912 93.9774 4.98873C94.0249 4.92076 94.0181 4.75084 93.9909 4.54013" fill="white"/>
<path d="M125.81 31.4217C125.192 29.6069 123.297 29.9739 121.783 30.4497C119.8 30.8439 117.912 31.8907 115.813 32.0198C114.366 32.38 113.959 31.6324 114.074 30.3342C113.966 30.1031 114.176 29.7768 114.04 29.5933C113.653 29.2399 113.069 29.4982 112.662 29.5322C111.894 29.6409 111.161 29.838 110.38 30.0487C110.026 30.0351 109.266 30.742 109.368 30.2186C109.408 28.8049 109.429 27.4183 109.442 26.0386C109.456 24.4277 109.47 22.8237 109.497 21.1992C109.483 20.037 109.537 19.0446 109.531 17.8416C109.531 16.591 109.734 16.9376 108.519 16.9036C108.519 16.557 108.519 16.1016 108.519 15.7278C107.255 15.7278 107.242 16.0676 107.296 14.6539C106.522 14.5179 105.741 14.4704 104.987 14.3072C104.715 14.3208 104.484 14.2325 104.24 14.1849C103.894 14.2733 103.914 14.049 103.894 13.8043C103.948 12.207 103.16 10.7117 102.128 9.47469C100.267 7.13658 97.1358 6.19862 95.6212 3.54785C94.9896 4.92081 95.01 6.51127 95.4311 7.93861C95.8114 8.52993 96.4838 8.99891 96.9524 9.51547C97.5501 10.3243 98.1817 11.1399 98.4466 12.0779C98.8541 13.043 99.0171 14.1305 98.9084 15.1908C98.8881 15.6462 98.7998 16.1764 98.6707 16.6114C98.8066 16.6522 98.9628 16.8017 98.9288 16.5366C99.0443 16.4211 99.1326 16.2647 99.1529 16.088C99.3567 15.6734 99.4518 15.2384 99.5876 14.8238C99.6351 14.5655 99.6148 14.2461 99.7099 13.9946C99.7506 14.4432 99.7981 14.817 99.6827 15.2656C99.6623 15.7618 99.5469 16.4007 99.248 16.8832C99.6284 17.1755 100.029 16.992 100.233 16.5842C100.688 15.4763 100.864 14.2733 100.898 13.1518C101.034 12.6896 100.932 12.2274 100.987 11.7584C101.163 12.0031 101.211 12.3158 101.306 12.6148C101.679 13.913 101.761 15.2588 101.299 16.5638C101.333 16.8289 100.335 17.8416 100.735 17.7464C101.136 17.9911 101.537 18.1882 101.836 18.5485C102.039 18.7592 102.155 18.3106 102.352 18.0863C102.807 17.4202 103.146 16.7881 103.52 16.0472C103.52 15.7686 103.724 15.4763 103.758 15.1568C103.812 14.8782 103.819 14.5587 104.186 14.7219C104.844 14.7219 105.496 14.9258 106.162 14.9869C107.011 15.1501 106.957 14.8442 106.991 15.7822C106.95 18.698 107.004 21.4915 106.963 24.4821C106.997 25.3589 107.018 26.2289 106.95 27.0649C107.004 27.4999 107.12 28.0097 106.502 27.6426C105.965 27.5407 105.483 27.3979 104.946 27.2824C103.819 27.1601 102.739 26.8474 101.679 26.8746C101.252 26.759 100.864 26.8406 100.423 26.7523C100.172 26.6639 100.246 26.0522 100.104 25.8143C99.8593 25.1822 99.7506 24.3394 99.1529 23.9723C99.0307 23.7005 97.4482 23.7548 97.9372 23.4082C98.2293 22.9868 98.4398 22.6062 98.8133 22.2799C99.4857 22.0488 100.219 21.8313 100.885 21.5323C101.204 21.4439 101.449 21.3624 101.754 21.2536C101.768 21.0701 101.992 21.1041 102.06 20.9749C102.08 20.8934 102.053 20.7846 102.141 20.7438C102.576 19.8399 102.46 20.0166 101.863 19.3913C101.218 18.9291 100.511 18.4805 99.8253 18.0047C99.119 17.6717 98.399 17.2503 97.6384 17.0396C96.6332 16.8017 95.7027 16.6318 94.6908 16.4958C93.7535 16.3123 93.8894 16.6997 93.5294 17.4066C93.706 18.1475 94.1067 18.9495 94.4599 19.6903C94.6772 20.2545 94.7655 20.6555 94.65 21.2536C94.7519 21.9061 94.2765 22.4499 94.0524 23.0276C94.0795 23.3402 93.6313 23.0888 93.4139 23.2111C93.0132 23.517 92.8027 24.0811 92.6329 24.5025C91.9673 24.5025 91.8586 25.556 91.5802 25.991C91.1387 26.2153 91.2066 27.0717 90.7516 27.0921C88.4696 27.1397 87.2742 27.5951 86.6494 27.8397C85.9499 28.1184 85.9634 28.1388 85.9702 27.0309C85.9702 26.759 85.9702 26.4192 85.9634 25.991C86.0246 22.4363 85.9499 18.9971 85.9974 15.4559C85.8208 14.9326 86.2691 15.0277 86.6494 15.1025C87.0365 15.0413 87.4916 15.1025 87.8923 15.0685C88.911 14.9461 89.923 14.8442 90.867 14.5179C91.682 14.5179 94.9149 13.3013 95.2681 14.1713C95.6688 14.6539 95.7503 15.218 95.8454 15.8093C95.8318 15.9929 96.3547 15.8773 96.4974 16.0132C96.4023 15.6598 96.64 15.3268 96.4838 14.9869C96.4906 14.2121 96.4362 13.2877 96.1578 12.5808C96.1306 12.343 96.0084 12.1594 95.9676 11.9351C95.9676 11.7516 95.7027 11.5681 95.8522 11.3914C96.3819 11.8536 96.5517 12.71 96.9049 13.2537C97.1833 14.2053 97.7878 15.1365 97.6452 16.1628C97.5637 16.2783 98.3719 16.5298 98.3175 16.3599C98.562 15.5715 98.5417 14.7762 98.5213 13.9606C98.3583 12.9003 98.0391 11.8604 97.4618 10.8884C96.5925 9.42712 95.1119 8.43478 93.9301 7.27252C93.5973 6.90549 94.1135 7.92501 94.0659 8.08814C94.2289 8.37361 94.2289 8.79501 94.2697 9.16204C94.2154 9.92328 93.9912 10.7525 94.0999 11.5341C94.2289 11.8808 94.324 12.309 94.4531 12.676C94.5074 12.8255 95.0711 13.5528 94.684 13.3761C91.879 13.7635 89.3321 14.8578 86.4796 14.6131C86.2351 14.5927 85.7189 14.5315 85.7189 14.5315C85.651 14.7898 85.8751 15.7482 85.522 15.7482C85.1892 15.7754 84.6934 15.7482 84.6934 15.7482C84.4828 16.0065 84.7273 16.7745 84.5508 16.9104C84.1568 16.8425 83.7697 16.9104 83.7697 16.9104C83.8444 18.9359 83.8308 21.1381 83.8376 23.3266C83.8376 25.1346 83.8512 26.9358 83.9191 28.6282C83.7493 28.8661 84.15 31.3061 83.729 30.5789C82.6559 30.0623 80.0682 29.2943 79.0495 29.6205C78.771 29.974 79.1174 30.4837 78.9884 30.9255C78.934 31.4489 78.6895 32.38 77.9764 32.1693C77.3787 32.2441 76.6928 32.081 76.0747 31.9382C74.4854 31.5712 72.9166 30.9459 71.3205 30.5177C69.7924 30.1167 67.7617 29.6681 67.1912 31.646C66.9874 32.7063 67.0485 33.6986 67.3202 34.7249C67.4968 35.3842 67.6054 36.1251 68.0401 36.6756C68.76 37.3009 69.5886 37.9195 70.6413 37.8651C71.6329 37.8311 71.3069 36.5533 71.3884 35.8396C71.042 34.9628 73.7384 35.5813 74.1594 35.7037C75.4702 35.962 76.849 36.3222 78.2073 36.5397C78.6012 36.5329 80.3671 37.1174 80.2448 36.5533C80.3195 36.3426 80.0479 35.3978 80.5029 35.5677C80.9444 35.6153 81.3315 35.6017 81.7458 35.7105C83.3962 35.7105 81.936 37.2194 84.0278 38.3545C88.5171 39.6051 93.3324 40.074 97.9576 39.8905C100.043 39.7886 102.053 39.5303 104.138 39.374C105.863 39.0477 107.853 38.9186 109.408 38.069C110.067 37.6884 110.217 36.9271 110.468 36.295C110.4 35.6901 111.045 35.6629 111.46 35.5609C112.628 35.5338 113.015 35.0648 112.784 36.5533C112.913 36.8931 113.354 36.6892 113.606 36.6145C114.061 36.6009 114.523 36.5261 114.937 36.4241C116.343 36.227 117.64 35.8736 118.978 35.5881C119.528 35.4522 122.041 34.8813 121.661 35.7513C121.756 36.3766 121.443 37.2738 122.089 37.7155C123.182 37.9534 124.275 37.3417 124.995 36.5669C125.838 35.3163 126.184 32.8354 125.831 31.4217M114.468 32.5296C115.365 32.6451 116.316 32.38 117.198 32.2373C118.611 31.8567 120.031 31.3673 121.47 30.9663C122.557 30.6672 123.8 30.1779 124.968 30.5449C125.213 30.6672 125.437 30.8439 125.566 31.109C125.186 30.8847 124.703 30.8371 124.275 30.7556C122.917 30.8507 121.566 31.1294 120.37 31.6596C118.496 32.1693 116.703 32.9646 114.726 32.8694C114.19 32.7471 113.076 32.6315 113.191 31.9858C113.13 31.7955 113.531 32.1489 113.579 32.2305C113.891 32.346 114.149 32.4548 114.455 32.5228M113.748 31.8703C113.619 31.8703 113.232 31.7139 113.3 31.544C113.3 31.2925 113.687 30.6196 113.762 30.674C113.599 30.8711 114.04 32.2237 113.742 31.8635M95.2885 32.4344C95.9065 32.7267 96.5177 32.5907 97.1833 32.6451C97.8014 32.6927 98.2428 33.1141 98.6096 33.5355C98.9356 33.8346 99.3091 34.1336 99.5876 34.4667C97.6384 34.5414 95.6348 34.5618 93.6584 34.4871C91.7364 34.2831 91.4172 35.0036 92.565 32.9917C92.8163 32.5364 92.9929 32.2033 93.1355 31.9654C93.7535 30.9391 93.6177 31.7955 95.2817 32.4344M92.8095 31.7819C92.8095 31.7819 92.7891 31.8227 92.7823 31.8431C92.3884 32.6723 91.913 33.5423 91.4579 34.3171C90.9553 34.5618 90.2015 34.1676 89.6717 34.2899C89.4408 34.2763 89.8347 33.9501 89.7872 33.787C89.9977 33.4947 90.1335 33.0529 90.3577 32.7335C90.5818 32.1829 90.8331 31.6732 91.0912 31.1634C91.2745 30.7964 91.4647 30.4293 91.6413 30.0419C91.9809 28.8933 93.183 29.3282 93.8961 29.8176C93.5022 30.5041 93.2374 31.1498 92.8163 31.7819M91.1795 30.307C91.0776 30.5721 90.9553 30.81 90.8331 31.0411C90.7923 31.1226 90.7516 31.2042 90.7108 31.2857C90.3848 32.1965 89.794 33.0257 89.4748 33.9365C89.2778 34.4123 88.8363 34.1608 88.3745 34.1268C87.7836 34.0588 87.1588 33.9501 86.5475 33.8617C85.9363 33.6918 85.1145 33.685 84.5576 33.318C84.5236 32.5771 84.5236 31.7207 84.1433 31.0818C85.6646 30.5993 87.1995 30.0147 88.7616 29.77C89.6242 29.6341 90.4935 29.6069 91.3696 29.7565C91.5055 29.872 91.2338 30.1507 91.1795 30.307ZM91.0165 35.0648C96.7758 35.3163 102.848 35.1327 108.512 33.9229C102.284 35.6833 89.4 36.2406 83.566 33.6103C85.9091 34.4938 88.5239 34.7929 91.0233 35.058M108.505 32.0538C107.378 31.612 105.904 31.1362 104.559 30.6468C103.459 30.2458 102.44 29.838 101.754 29.4302C103.011 29.4642 104.328 29.6749 105.612 29.9807C106.25 30.1303 106.875 30.307 107.48 30.5041C109.32 31.1158 108.838 30.4293 108.505 32.0606M108.926 31.4896C109.15 30.9799 109.069 31.7139 109.273 31.8295C109.7 32.9985 110.169 32.6587 108.668 33.2704C108.695 32.6791 108.729 32.0742 108.926 31.4896ZM109.116 17.393C109.354 17.4202 109.15 17.8416 109.211 18.0455C109.137 18.3785 109.245 18.6776 109.164 18.9699C109.232 20.0302 109.184 21.1109 109.15 22.1576C109.15 23.5917 109.137 25.053 109.123 26.5144C109.11 27.5679 109.103 28.6146 109.082 29.6681C109.035 29.9536 109.211 30.6129 108.838 30.307C108.233 30.2186 107.724 30.0419 107.113 29.8856C106.766 29.7972 106.427 29.7157 106.094 29.6341C105.116 29.403 104.152 29.2059 103.092 29.1311C102.698 29.0428 102.209 29.0836 101.754 29.0088C101.482 28.9544 101.136 29.1108 100.898 28.9816C100.688 28.8321 100.661 28.5874 100.62 28.3291C100.83 28.3291 101.007 28.3835 101.218 28.3699C101.829 28.4243 102.386 28.4379 102.977 28.5466C104.287 28.6554 105.422 28.934 106.671 29.1651C106.787 29.1855 106.902 29.2127 107.025 29.2331C108.865 29.9875 108.356 29.1787 108.492 27.7106C108.492 27.5883 108.492 27.4659 108.492 27.3368C108.464 25.1618 108.444 23.1024 108.525 20.9206C108.437 20.0846 108.498 19.235 108.525 18.4125C108.539 17.828 108.199 17.1075 109.116 17.3998M100.674 27.2144C102.739 27.4047 104.953 27.5543 106.963 28.3495C107.486 27.9417 107.283 27.194 107.289 26.5959C107.289 25.8007 107.296 25.0598 107.276 24.2306C107.323 21.6818 107.276 18.9767 107.276 16.3667C107.181 16.02 107.738 16.2851 107.907 16.1832C108.254 16.1288 108.159 16.3803 108.172 16.6114C108.159 16.9172 108.193 17.1347 108.179 17.4338C108.172 18.6708 108.159 19.8195 108.166 21.0293C108.152 23.2791 108.152 25.5492 108.118 27.7446V27.765C108.138 29.3147 108.267 29.07 107.154 28.7233C106.923 28.6486 106.637 28.5738 106.277 28.5058C104.573 28.2611 103.099 27.9281 101.381 27.8873C101.204 27.8329 100.953 27.9349 100.797 27.8329C100.674 27.765 100.538 27.9961 100.511 27.8465C100.518 27.5135 100.246 27.2008 100.661 27.2144M98.7522 24.3937C99.934 24.9783 100.199 27.9213 100.409 29.1311C100.409 29.1311 100.416 29.1379 100.423 29.1447C100.437 29.1243 100.45 29.104 100.457 29.0904C100.552 28.9408 100.864 29.3215 100.946 29.1923C100.885 29.2943 100.817 29.3962 100.749 29.505C101.347 30.0419 102.243 30.273 102.922 30.5517C103.031 30.5993 103.146 30.64 103.255 30.6808C103.269 30.6264 103.275 30.5993 103.275 30.5789C103.255 30.5789 103.275 30.5517 103.275 30.5789C103.296 30.5789 103.371 30.5585 103.608 30.341C103.547 30.3954 103.629 30.4497 103.697 30.5109C103.764 30.4565 103.758 30.4905 103.731 30.5449C103.764 30.5857 103.785 30.6264 103.744 30.6672C103.608 30.7964 103.69 30.64 103.731 30.5449C103.717 30.5313 103.71 30.5177 103.697 30.5109C103.69 30.5177 103.69 30.5177 103.676 30.5245C103.642 30.5517 103.527 30.6468 103.411 30.742C103.568 30.8032 103.717 30.8643 103.88 30.9255C103.968 30.8779 104.097 30.8236 104.369 30.5721C104.26 30.674 104.634 30.7828 104.505 30.8983C104.287 31.1022 104.301 30.8643 104.111 31.0139C104.281 31.075 104.45 31.1362 104.62 31.1974C104.729 31.109 104.865 31.0003 105.055 30.8168C104.946 30.9187 105.367 31.0818 105.238 31.2042C105.17 31.2653 105.109 31.3129 105.048 31.3469C105.136 31.3741 105.225 31.4081 105.313 31.4421C105.435 31.3401 105.564 31.2382 105.693 31.1158C105.585 31.2178 105.958 31.3265 105.829 31.4421C105.788 31.4828 105.734 31.5236 105.68 31.5644C105.754 31.5916 105.829 31.6188 105.897 31.6392C106.026 31.5168 106.162 31.4013 106.277 31.2925C106.169 31.3945 106.597 31.6324 106.468 31.7547C106.454 31.7683 106.42 31.7955 106.4 31.8159C106.515 31.8567 106.637 31.8975 106.753 31.945C106.875 31.8499 106.991 31.7479 107.12 31.6324C107.011 31.7343 107.384 31.8431 107.255 31.9586C107.215 31.9926 107.16 32.0402 107.106 32.081C107.201 32.115 107.289 32.1557 107.384 32.1897C107.493 32.0878 107.602 31.9926 107.71 31.8907C107.602 31.9926 108.023 32.1557 107.894 32.2781C107.873 32.2985 107.84 32.3257 107.812 32.3528C107.867 32.3732 107.928 32.3936 107.982 32.4208C108.369 32.3868 108.417 33.0393 108.295 33.3044C108.315 33.5559 107.432 33.5355 107.283 33.6986C104.838 34.0521 102.08 34.8405 99.6623 33.8074C99.248 33.4403 98.8337 32.8898 98.3447 32.5296C98.0323 32.2985 97.6927 32.1421 97.2988 32.1489C96.2665 32.2577 95.302 31.8907 94.4055 31.3605C93.6177 30.64 93.4886 31.1838 94.0524 30.0623C94.3648 29.7768 94.9964 30.64 95.4854 30.3206C95.8522 30.2254 96.1782 29.4982 96.0559 29.2331C96.2529 28.7709 96.6943 28.3835 96.8573 28.0029C96.9592 27.765 97.0543 27.6087 96.9524 27.3776C97.0679 27.2824 97.2241 27.2688 97.2784 27.1125C97.2445 27.5747 97.8218 29.8856 98.0866 28.6622C97.292 26.9494 97.5297 26.4668 97.8014 25.1142C97.5569 25.5288 97.6044 25.4133 97.163 25.2773C96.8437 25.1142 96.4498 25.0191 96.1578 24.8152C96.9728 24.6316 96.4566 23.2451 97.4142 23.9791C97.8489 24.1287 98.3719 24.183 98.7522 24.387M95.5941 23.5917C95.7775 23.483 97 23.5917 96.5653 23.8976C96.8166 24.8016 95.3496 24.0879 95.5941 23.5917ZM98.073 22.7965C97.1426 22.2392 96.2053 21.5391 95.0711 21.4847C94.813 21.4031 95.0983 20.9138 95.0032 20.6827C95.0643 20.4924 95.0915 20.6283 95.2681 20.6351C95.5262 20.5807 95.8657 20.7642 96.0899 20.7642C96.9456 20.9274 97.8557 21.4915 98.4806 22.0352C98.922 22.212 98.1206 22.6674 98.0798 22.7965M95.6959 18.9835C95.7503 18.9835 95.791 19.0039 95.8318 19.0175C95.8114 18.9699 95.791 18.9223 95.7639 18.8747C95.7503 18.8747 95.7299 18.8747 95.7163 18.8747C95.6959 18.8883 95.6688 18.9019 95.6416 18.9155C95.6416 18.9223 95.6416 18.9359 95.628 18.9427C95.5737 18.9563 95.6009 18.9427 95.6416 18.9155C95.6416 18.9019 95.6484 18.8883 95.6416 18.8679C95.5601 18.8883 95.4379 18.9087 95.4311 18.9087C95.4514 18.8883 95.465 18.8747 95.4718 18.8543C95.4311 18.8543 95.3835 18.8543 95.3428 18.8475C95.4107 18.8475 95.3564 18.596 95.4311 18.6028C95.4786 18.6028 95.5601 18.6164 95.6552 18.63C95.6348 18.5757 95.6077 18.5213 95.5873 18.4669C95.5194 18.4669 95.4514 18.4533 95.3903 18.4533C95.4582 18.4533 95.4039 18.2018 95.4786 18.2086H95.4922C95.4311 18.0183 95.4107 17.8824 95.4718 17.862C96.3072 18.0795 97.0339 18.1678 97.815 18.4533C98.0119 18.4193 97.6316 19.0582 97.6044 19.1806C97.5365 19.3369 97.4822 19.4932 97.421 19.6564C97.455 19.6699 97.489 19.6835 97.5297 19.7039C97.4686 19.6767 97.4414 19.9418 97.3667 19.9078C97.3531 19.9078 97.3463 19.8942 97.3328 19.8942C97.3192 19.9282 97.3056 19.969 97.292 20.003C97.4143 20.0506 97.5365 20.0981 97.6588 20.1457C97.5976 20.1185 97.5705 20.3836 97.4958 20.3496C97.4414 20.3292 97.326 20.2749 97.2105 20.2137C97.1698 20.3088 97.1222 20.404 97.0747 20.4924C96.28 20.3224 96.1985 20.2069 96.0016 19.4117C95.9812 19.3709 95.954 19.3165 95.9269 19.2485C95.8454 19.2485 95.7571 19.235 95.5941 19.2214C95.662 19.2214 95.6077 18.9699 95.6824 18.9767M100.267 19.9214C100.45 20.0302 99.9679 20.1049 99.8932 20.1729C99.7846 20.2273 99.6623 20.2953 99.5469 20.3564C99.5469 20.3564 99.5468 20.3564 99.5604 20.3632C99.5604 20.3632 99.5468 20.3632 99.5401 20.3632C99.5333 20.3632 99.5197 20.3768 99.5129 20.3768C99.4586 20.4244 99.3906 20.5467 99.3431 20.5128C99.3295 20.4992 99.3227 20.4924 99.3159 20.4788C99.2684 20.4992 99.2276 20.5263 99.1801 20.5467C99.2548 20.6079 99.3363 20.6759 99.411 20.7371C99.3567 20.6963 99.2548 20.9342 99.1937 20.8798C99.1394 20.8322 99.0307 20.7303 98.9288 20.6283C98.9288 20.6283 98.9288 20.6283 98.9152 20.6283C98.6775 20.7982 98.3923 20.9342 98.1002 21.0429C97.9168 20.9138 97.6723 20.8254 97.5025 20.6827C97.618 20.3632 97.747 20.0302 97.8965 19.7039C97.8218 19.6699 97.7403 19.6224 97.584 19.5408C97.6452 19.5748 97.6995 19.3165 97.7674 19.3505C97.8693 19.3981 97.9033 19.4728 97.9712 19.534C97.9848 19.5068 97.9916 19.4796 98.0051 19.4524C97.8965 19.3981 97.7946 19.3437 97.6927 19.2893C97.7538 19.3165 97.8082 19.065 97.8761 19.099C97.9236 19.1194 97.9983 19.1738 98.0934 19.2282C98.107 19.1738 98.1206 19.1194 98.141 19.0582C98.107 19.0378 98.0798 19.0242 98.0459 19.0107C98.107 19.0378 98.1545 18.8 98.2225 18.8203C98.27 18.7184 98.3311 18.6436 98.4058 18.6504C98.9967 19.0175 99.7642 19.3709 100.28 19.9146M101.455 20.9545C101.374 20.9885 101.286 21.0293 101.197 21.0633C101.245 21.1313 101.313 21.2332 101.319 21.24C101.238 21.2128 101.163 21.1653 101.089 21.1109C101 21.1449 100.905 21.1788 100.81 21.2128C100.824 21.2332 100.837 21.2468 100.837 21.2536C100.817 21.2468 100.803 21.2332 100.783 21.2264C100.43 21.3556 100.07 21.4711 99.7234 21.5663C99.4993 21.7158 99.2276 21.675 99.0375 21.8585C98.9152 21.6546 98.6368 21.5255 98.5145 21.3624C98.9628 21.1313 99.3839 20.9206 99.8185 20.7099C99.8117 20.7031 99.8049 20.6895 99.7913 20.6827C99.8321 20.7371 99.9815 20.5196 100.036 20.5807C100.036 20.5807 100.043 20.5943 100.049 20.6011C100.049 20.6011 100.063 20.6011 100.063 20.5943C100.036 20.5603 100.015 20.5331 99.9883 20.4992C100.029 20.5535 100.178 20.336 100.233 20.3972C100.246 20.4176 100.274 20.4448 100.294 20.4788C100.341 20.4516 100.389 20.4312 100.443 20.4108C100.437 20.404 100.43 20.3904 100.423 20.3836C100.464 20.438 100.613 20.2205 100.667 20.2817C100.667 20.2817 100.674 20.2953 100.681 20.3021C100.871 20.2341 100.993 20.5264 101.15 20.6283C101.245 20.6283 101.659 20.9953 101.476 20.9681M94.0456 17.0532C94.1203 16.7065 94.1678 16.6793 94.5074 16.7065C94.8606 16.7949 95.1594 16.7813 95.4854 16.8697C96.4906 16.9376 97.4414 17.2775 98.3923 17.5901C99.2412 18.0795 100.199 18.5417 101 19.2078C101.374 19.3641 101.652 19.7243 101.978 19.9554C102.175 20.1185 101.931 20.506 101.829 20.6759C101.741 20.7778 101.245 20.3156 101.123 20.1457C100.749 19.935 100.457 19.6292 100.117 19.3913C99.411 18.8339 98.6979 18.5281 97.9236 18.195C97.0135 17.9775 96.2461 17.8552 95.3835 17.6173C95.0779 17.5018 93.4139 17.5901 94.0388 17.0532M94.3308 18.5825C94.2629 18.5825 94.1814 18.5825 94.0727 18.5825C94.0048 18.5825 94.0863 18.331 94.1678 18.3378C94.195 18.3378 94.2154 18.3446 94.2425 18.3514C94.2154 18.2834 94.1882 18.2154 94.1678 18.1475C94.0999 18.1475 94.0184 18.1339 93.9165 18.1271C93.9844 18.1271 93.9301 17.8756 94.0116 17.8824C94.032 17.8824 94.0524 17.8892 94.0727 17.896C94.0524 17.8348 94.0252 17.7736 94.0048 17.7125C93.9233 17.5018 94.6364 17.8008 94.8945 17.7872C95.1934 18.5077 95.4447 19.2282 95.7775 19.9486C96.0967 20.4244 95.2273 20.0506 94.9964 20.037C94.7451 19.6564 94.5346 19.1262 94.3376 18.5893M94.8674 21.9809C95.628 22.0149 96.3004 22.3751 96.9932 22.7421C97.1901 23.0548 98.0255 23.082 97.584 23.5781C96.9592 23.4966 96.4023 23.2859 95.8114 23.3063C95.3971 23.3334 94.8742 23.2859 94.3987 23.2111C94.1882 23.3742 94.7994 22.0488 94.8674 21.9809ZM92.9929 23.918C93.1219 23.4762 94.2493 23.8024 94.6364 23.7752C95.3903 23.7345 95.1934 23.7616 95.3564 24.3122C95.4718 25.1074 96.0287 25.4608 96.7011 25.6783C97.0068 25.9298 97.129 26.4804 97.2173 26.8814C97.0135 27.1193 96.6128 27.0241 96.4702 26.6775C95.8997 26.1201 95.5058 25.488 94.9081 24.8967C94.4123 24.353 93.5837 24.3326 92.9317 24.4413C92.6872 24.4821 92.8366 24.1287 92.9929 23.9112M92.1643 25.1686C92.3952 24.8831 92.6804 24.9035 93.0064 25.0055C93.6177 24.9715 94.2969 24.9647 94.7519 25.4541C95.4039 26.0726 95.988 26.9697 96.5517 27.5407C96.6128 27.7106 96.6943 27.8465 96.769 28.0097C96.6264 28.0436 96.5042 28.3155 96.3344 28.0912C95.9133 27.6426 95.4718 27.2348 94.9964 26.827C94.0456 25.9774 93.4751 25.6512 92.1031 25.8211C91.7432 25.8958 92.0488 25.3657 92.1711 25.1618M91.5666 26.358C91.9741 26.1813 92.4835 26.2969 92.9385 26.358C93.4954 26.2901 93.9437 26.6503 94.358 26.9629C94.6296 27.3436 96.7147 28.669 95.8725 28.9136C95.5058 29.0088 95.2545 28.5602 94.9285 28.4379C94.358 28.0301 93.8486 27.5543 93.183 27.4387C92.7551 27.3504 92.2729 27.4591 91.8315 27.3912C91.7024 27.4047 91.1591 27.6698 91.261 27.4455C91.1455 27.1261 91.1183 26.3444 91.5598 26.358M91.0708 28.0029C91.8518 27.8058 92.7008 27.8329 93.4411 28.064C94.1339 28.5942 95.01 29.0156 95.662 29.6069C96.022 29.8856 95.5737 29.8992 95.3292 29.872C95.0847 29.7836 94.8538 29.6137 94.6229 29.5865C94.032 29.2739 93.4683 28.8049 92.7755 28.8797C92.3137 28.9068 91.9469 28.968 91.6956 29.335C91.3289 28.9476 90.9689 28.5806 91.064 27.9961M85.5016 16.2307C85.8412 15.8773 85.6442 17.4678 85.651 17.6105C85.6646 18.5689 85.6714 19.466 85.6714 20.3496C85.6714 22.4227 85.6578 24.5773 85.6714 26.6979C85.6714 27.33 85.685 27.9553 85.6986 28.5738C86.0789 28.3971 86.4796 28.2544 86.8871 28.132C87.7429 27.8669 88.6394 27.697 89.5562 27.6087C90.0385 27.6834 91.4036 27.1805 90.901 28.0708C89.8755 28.2408 88.5103 28.2136 87.3489 28.5874C87.2742 28.6078 87.1995 28.6282 87.1316 28.6554C86.5 28.8185 85.848 29.0564 85.2503 29.2875C85.0398 29.3486 84.9854 29.4166 85.0262 29.1243C85.033 28.8661 84.999 28.6146 85.0533 28.3835C85.0058 27.4795 84.9922 26.5755 84.9854 25.6716C84.9786 24.5841 84.9854 23.4898 84.9583 22.3751C84.9039 21.0021 85.0058 19.5748 84.8903 18.2018C85.0194 17.6785 84.8428 17.1755 84.9107 16.6182C84.8496 16.0948 85.0873 16.1764 85.5016 16.2307ZM84.1161 22.0964C84.1093 20.9953 84.0618 19.9146 84.0821 18.7728C84.0753 18.3242 84.0618 17.8756 84.0414 17.4474C84.0142 17.2639 84.5915 17.3998 84.5847 17.3658C84.6594 19.9418 84.673 22.5586 84.6934 25.1822C84.7002 26.7183 84.7138 28.2611 84.7341 29.804C85.7054 29.4642 86.6834 29.1175 87.6817 28.9001C88.2726 28.7709 88.8703 28.6826 89.4748 28.6758C89.889 28.5806 90.283 28.5806 90.7176 28.601C90.8806 28.601 90.7788 29.036 90.9553 29.1991C90.0724 29.1719 89.1963 29.2739 88.3405 29.4506C86.9618 29.7361 85.6171 30.205 84.313 30.674C83.9938 30.7896 84.2587 30.0691 84.1772 29.8652C84.2112 29.2603 84.1568 28.5738 84.1704 27.9417C84.15 26.6843 84.1365 25.3793 84.1229 24.0675C84.1229 23.4082 84.1161 22.7557 84.1093 22.1032M83.9463 31.3809C84.2859 31.7615 84.2112 32.346 84.3538 32.8082C84.2587 33.1617 84.5304 33.5423 83.9803 33.1413C83.7018 33.1141 83.043 32.883 83.335 32.448C83.5795 32.1014 83.695 31.6732 83.9395 31.3809M79.2668 30.708C79.6268 31.3469 80.1226 31.7547 79.1038 32.0334C79.3008 31.5712 79.2396 31.177 79.2668 30.708ZM68.2507 30.5721C69.283 30.3478 70.4648 30.7012 71.4563 31.0614C72.8079 31.3741 74.0915 31.8839 75.5042 32.2033C76.8286 32.55 78.6759 33.0937 79.8305 31.9858C79.9596 33.3112 76.8218 33.0597 76.0068 32.7063C73.5618 32.346 70.0369 30.1031 67.5919 31.1838C67.1029 31.3265 68.0469 30.5449 68.2574 30.5789M67.3949 33.5355C67.2455 32.849 67.1708 32.0878 67.3745 31.3673C68.0469 30.9935 68.9502 30.9051 69.738 31.0818C72.5294 31.2857 76.3192 33.8414 79.0698 32.8966C79.8169 32.7267 79.7762 32.1557 79.8373 33.2024C79.749 34.0113 79.8849 34.9424 79.8373 35.826C80.0546 36.2202 78.6691 35.826 78.4246 35.86C77.501 35.6221 76.5637 35.5474 75.7147 35.2347C73.521 34.7725 71.2933 34.5074 69.0996 35.2483C68.8619 35.391 68.6582 35.391 68.4001 35.527C68.2167 35.5474 68.0809 35.8328 67.8907 35.6765C67.782 34.99 67.3949 34.2763 67.3881 33.5423M71.0692 36.7776C71.1371 37.7903 69.7109 37.267 69.1675 36.9815C68.991 36.8795 67.6937 36.2474 68.3525 36.1523C68.7872 36.0231 69.1607 35.8124 69.609 35.7445C70.0505 35.5542 70.6345 35.5066 71.1371 35.4522C71.1235 35.894 71.1983 36.3766 71.0692 36.7708M79.8645 36.295C79.3687 36.5397 78.3296 36.1523 77.6232 36.0707C76.4211 35.7852 75.2325 35.493 74.0372 35.2007C72.0201 34.8405 69.9893 35.2483 68.0537 35.9144C67.8567 35.5745 69.249 35.4454 69.4732 35.2347C70.4036 35.0784 71.4631 34.7997 72.4615 34.9492C74.0508 34.9288 75.4906 35.4794 77.0595 35.7037C77.6368 35.8668 78.2277 35.9212 78.8593 36.0571C79.0834 36.0979 79.9935 36.0095 79.8713 36.3018M82.4861 35.3706C81.9495 35.2143 81.379 35.1735 80.8357 35.0784C80.1837 35.1871 80.2448 35.0036 80.2788 34.4735C80.2312 33.3452 80.3399 32.2781 80.0275 31.2178C79.8781 30.8575 79.1921 30.307 79.2872 29.9943C80.5097 30.1303 81.9427 30.3138 83.1177 30.8371C84.218 31.0478 83.3079 31.5848 83.1313 32.2373C82.717 33.216 82.4589 34.3171 82.4929 35.3706M110.339 35.4114C110.122 37.3145 109.354 37.8787 107.534 38.2593C105.761 38.7011 103.894 38.905 102.039 39.0409C97.5093 39.6594 93.0132 39.5575 88.5239 38.8166C87.4576 38.6535 86.3234 38.4156 85.2707 38.1981C84.2451 37.967 82.9955 37.4641 82.8528 36.2882C83.043 37.2873 83.987 37.8583 84.9922 37.9534C85.7733 38.1913 86.6222 38.4156 87.4304 38.504C91.0912 39.2244 94.7315 39.3604 98.5077 39.2244C100.946 39.0477 103.282 38.8438 105.734 38.4768C106.637 38.2661 107.541 38.1845 108.403 37.8107C109.211 37.7088 109.843 37.0834 110.101 36.3358C109.592 37.5864 108.043 37.7223 106.916 38.0418C105.177 38.402 103.54 38.5855 101.781 38.7011C95.8929 39.4216 89.7668 39.1361 83.9667 37.4437C82.3706 36.8252 82.6083 34.7929 82.9615 33.5695C83.0837 33.5219 82.9819 33.216 83.0973 33.3928C83.3011 33.5559 83.4505 33.651 83.6339 33.7938C84.0346 33.9909 84.5032 34.1812 84.9379 34.3443C87.4304 35.1056 90.4731 35.4726 93.1083 35.4794C96.0967 35.6833 99.411 35.5406 102.42 35.2279C104.437 35.058 106.536 34.7589 108.356 34.1472C108.851 34.0724 109.361 33.7598 109.816 33.5355C110.006 33.3996 109.992 32.951 110.162 33.4879C110.42 34.1268 110.543 34.8201 110.359 35.4114M112.818 31.68C112.438 36.2338 113.742 34.4667 110.617 35.2891C110.923 33.8549 110.142 32.8014 109.497 31.6868C108.913 30.8847 109.904 30.6876 110.509 30.5313C111.263 30.3002 112.03 30.1099 112.825 30.0215C112.967 29.9739 113.979 29.8516 113.755 29.9604C113.49 30.6196 112.913 31.0207 112.818 31.6868M124.683 36.3154C124.262 36.7368 123.576 37.1174 122.978 37.1786C121.674 37.6952 121.959 36.4174 121.844 35.6085C121.81 35.1531 122.224 35.4658 122.53 35.425C123.121 35.5745 123.657 35.6765 124.194 35.9076C124.357 35.928 125.199 36.1659 124.683 36.3154ZM124.975 35.8192C120.825 34.2424 118.638 35.2551 114.495 36.1659C114.047 36.2474 113.592 36.2474 113.137 36.3086C113.137 36.0367 113.232 35.9824 113.497 36.0367C113.687 35.962 113.877 35.9892 114.081 35.962C116.791 35.5949 119.406 34.555 122.252 34.9085C122.829 34.99 123.488 35.0852 124.031 35.3299C124.241 35.425 125.267 35.5609 124.975 35.826M125.627 33.4403C125.593 34.0928 125.369 34.7181 125.172 35.3638C125.172 35.6697 124.839 35.391 124.73 35.3435C124.534 35.3231 124.275 35.2415 124.092 35.1124C121.79 34.4599 119.433 34.623 117.137 35.2551C116.153 35.4522 115.202 35.6493 114.251 35.7717C113.83 35.7037 113.056 36.2134 113.137 35.5609C113.28 34.7181 113.137 33.8821 113.205 33.0801C113.246 32.4276 113.049 32.4208 113.714 32.781C116.207 33.4675 118.625 32.1829 120.988 31.5576C122.265 31.0411 124.371 30.5041 125.573 31.3061C125.858 31.3809 125.776 32.951 125.627 33.4267" fill="white"/>
<path d="M86.8734 16.7406C86.9888 16.6115 87.1111 16.4756 87.2605 16.3736L87.3012 16.3464L87.3352 16.3804C87.3963 16.4484 87.471 16.5231 87.5797 16.5775C88.0008 16.795 88.3879 16.6115 88.7751 16.3668L88.7003 16.3124C88.6256 16.2649 88.5441 16.2105 88.4694 16.1561L88.4898 16.1289C88.4422 16.0949 88.4151 16.0813 88.4015 16.0745C88.0687 16.2853 87.6001 16.5911 87.3827 16.3804C87.2469 16.2513 87.0092 16.0542 86.9481 16.0474C86.7647 16.1221 86.6153 16.2853 86.4727 16.4484C86.5677 16.5299 86.7851 16.6999 86.8666 16.7474L86.8734 16.7406Z" fill="white"/>
<path d="M90.4646 16.5435C90.5665 16.5435 90.6752 16.5435 90.7838 16.5435C90.7431 16.2988 90.6752 16.1357 90.6004 16.1153C90.5529 16.1017 90.4782 16.1561 90.4035 16.2717C90.2609 16.4756 89.996 16.4076 89.7447 16.3464C89.6292 16.3192 89.507 16.2852 89.4119 16.2852C89.3576 16.2852 89.1742 16.2988 89.018 16.3124C88.984 16.3124 88.9501 16.3124 88.9297 16.3124C89.4119 16.5435 89.8941 16.5435 90.4714 16.5367" fill="white"/>
<path d="M92.5693 15.7753C92.5217 15.7957 92.4674 15.8161 92.4199 15.8433C92.3791 15.8637 92.3384 15.8841 92.2976 15.9045C92.2161 15.952 92.1142 15.9996 92.0192 16.0336H91.992L91.9512 16.0132C91.9376 16.0064 91.9309 15.9928 91.9173 15.986C91.9037 15.9792 91.8833 15.9588 91.8629 15.9384C91.8086 15.8909 91.632 15.7413 91.5777 15.7413C91.5098 15.7413 91.469 15.8093 91.4147 15.9316C91.3739 16.0268 91.3196 16.1423 91.2109 16.1831C91.2313 16.1967 91.2449 16.2171 91.2653 16.2307C91.3468 16.3055 91.4351 16.3938 91.5166 16.4278C91.6456 16.4754 91.7271 16.3666 91.829 16.2035C91.8562 16.1559 91.8833 16.1152 91.9105 16.088L91.9512 16.0404L91.992 16.0812C92.1618 16.2511 92.3112 16.3259 92.4402 16.2919C92.5489 16.2647 92.6711 16.2035 92.7866 16.1423C92.8409 16.1152 92.8953 16.0812 92.9428 16.0608C92.9836 16.0404 93.0243 16.0268 93.0651 16.0064C93.1398 15.9724 93.2213 15.9384 93.2892 15.8977C93.262 15.8773 93.2349 15.8433 93.1941 15.8093C93.1262 15.7413 92.9836 15.6122 92.9292 15.5918C92.8138 15.6666 92.6847 15.7277 92.5557 15.7821" fill="white"/>
<path d="M87.0847 18.3785L87.1255 18.3513L87.1594 18.3853C87.2206 18.4532 87.2953 18.5212 87.4039 18.5824C87.825 18.7999 88.2121 18.6163 88.5993 18.3649L88.5178 18.3105C88.4431 18.2629 88.3683 18.2153 88.2936 18.1542L88.314 18.127C88.2665 18.093 88.2393 18.0794 88.2257 18.0726C87.9065 18.2833 87.4243 18.5892 87.207 18.3785C87.0915 18.2629 86.8334 18.0522 86.7723 18.0454C86.5889 18.1202 86.4395 18.2833 86.2969 18.4464C86.392 18.5212 86.6093 18.6979 86.6908 18.7455C86.8063 18.6095 86.9285 18.4736 87.0779 18.3785" fill="white"/>
<path d="M90.4858 18.542C90.4858 18.542 90.4383 18.4944 90.4111 18.4672C90.3364 18.3857 90.2549 18.2973 90.187 18.2973H89.2361V18.2905C89.1818 18.2905 88.978 18.3041 88.8218 18.3177C88.7947 18.3177 88.7743 18.3177 88.7539 18.3177C89.2361 18.5488 89.7183 18.542 90.2956 18.542C90.3568 18.542 90.4247 18.542 90.4858 18.542Z" fill="white"/>
<path d="M93.0276 18.0522C93.1159 18.0522 93.1974 18.0658 93.2789 18.059C93.2517 18.0318 93.2246 17.9978 93.1974 17.9706C93.1295 17.8959 93.0208 17.7803 92.9733 17.7871C92.8239 17.8211 92.6745 17.8075 92.5318 17.8007C92.4232 17.7939 92.3213 17.7871 92.2194 17.8007C92.1311 17.8075 92.0428 17.8619 91.9613 17.9027C91.9138 17.9299 91.8594 17.9638 91.8051 17.9842L91.7711 17.9978L91.744 17.9774C91.6149 17.8483 91.4995 17.7667 91.3908 17.726C91.3569 17.7124 91.3161 17.7056 91.2754 17.7056C91.2006 17.7056 91.1259 17.7328 91.058 17.7803C90.9154 17.8823 90.8203 18.0658 90.8203 18.2289C90.8203 18.2765 90.9765 18.3513 91.058 18.392C91.1124 18.4192 91.1667 18.4464 91.2006 18.4736C91.255 18.2493 91.4519 17.991 91.6761 17.957H91.7032L91.7236 17.9774C91.8391 18.1066 91.9613 18.2289 92.1039 18.2697C92.1854 18.2901 92.2669 18.2425 92.3552 18.1881C92.4299 18.1406 92.5114 18.0862 92.6133 18.0726C92.7492 18.0522 92.885 18.059 93.014 18.0726" fill="white"/>
<path d="M88.482 19.9693C88.4344 19.9353 88.4073 19.9217 88.3937 19.9149C88.0745 20.1256 87.5923 20.4314 87.3749 20.2207C87.2391 20.0916 87.0014 19.8945 86.9403 19.8877C86.7569 19.9625 86.6075 20.1256 86.4648 20.2887C86.5599 20.3635 86.7773 20.5402 86.8588 20.5878C86.9742 20.4518 87.0965 20.3159 87.2527 20.2207L87.2934 20.1936L87.3274 20.2275C87.3885 20.2955 87.4632 20.3703 87.5719 20.4246C87.993 20.6421 88.3801 20.4586 88.7672 20.2071L88.6042 20.0984L88.4548 20.0236H88.5024C88.5024 20.0236 88.4684 20.01 88.4548 19.9964L88.4752 19.9693H88.482Z" fill="white"/>
<path d="M88.4003 19.9079C88.4003 19.9079 88.4071 19.9079 88.4139 19.9079L88.3867 19.8604L88.4071 19.9079H88.4003Z" fill="white"/>
<path d="M91.0423 20.1186C90.8861 20.1186 90.5601 20.1186 90.2273 20.1186C89.9013 20.1186 89.5685 20.1186 89.4122 20.1186C89.3579 20.1186 89.161 20.1322 88.998 20.1458C88.998 20.1458 88.9912 20.1458 88.9844 20.1458C89.5956 20.3769 90.3903 20.3633 91.0898 20.3565C91.1713 20.3565 91.2528 20.3565 91.3275 20.3565C91.3003 20.3293 91.28 20.3089 91.2528 20.2817C91.1781 20.2002 91.0966 20.1118 91.0287 20.1118" fill="white"/>
<path d="M92.8337 19.9349C92.7793 19.9349 92.725 19.9349 92.6775 19.9281C92.6367 19.9281 92.5892 19.9281 92.5484 19.9213C92.4601 19.9213 92.365 19.9077 92.2767 19.9145C92.1069 19.9213 92.0322 19.9825 91.9168 20.0641C91.9032 20.0709 91.8896 20.0844 91.8828 20.0912C91.91 20.1184 91.9439 20.1456 91.9847 20.1864C92.0594 20.2544 92.1952 20.3835 92.2428 20.4039C92.2767 20.3835 92.3039 20.3631 92.3311 20.3427C92.4329 20.268 92.528 20.1932 92.6978 20.1728C92.8065 20.1592 92.9152 20.1728 93.0238 20.1728C93.0714 20.1728 93.1121 20.1728 93.1597 20.1796C93.214 20.1796 93.2683 20.1796 93.3227 20.1864C93.5264 20.2 93.737 20.2136 93.9339 20.1864C93.9067 20.1592 93.8728 20.1252 93.8388 20.0912C93.7777 20.0233 93.6622 19.8941 93.6147 19.9077C93.3634 19.9689 93.0985 19.9553 92.8337 19.9417" fill="white"/>
<path d="M88.4626 21.9877L88.483 21.9605C88.4355 21.9265 88.4083 21.9129 88.3947 21.9061C88.0687 22.1236 87.5933 22.4227 87.3827 22.212C87.2469 22.0828 87.0092 21.8857 86.9481 21.8789C86.7647 21.9537 86.6153 22.1168 86.4727 22.2799C86.5677 22.3547 86.7851 22.5314 86.8666 22.579C86.982 22.443 87.1043 22.3071 87.2605 22.212L87.3012 22.1848L87.3284 22.2187C87.3895 22.2867 87.4642 22.3615 87.5729 22.4159C87.994 22.6334 88.3811 22.4498 88.7683 22.1984L88.5645 22.0624C88.5237 22.0352 88.4898 22.0148 88.4558 21.9877" fill="white"/>
<path d="M88.9922 22.1372C89.4744 22.3004 90.0313 22.2732 90.5747 22.2392C90.7377 22.2324 90.9007 22.2256 91.0637 22.2188C91.0365 22.1916 91.0161 22.1712 90.989 22.144C90.9142 22.0625 90.8327 21.9741 90.7648 21.9741H90.758C90.6018 21.9741 90.3437 22.0081 90.0924 22.0421C89.8411 22.0761 89.5763 22.1101 89.4133 22.1101H89.4065C89.3521 22.1101 89.1416 22.1237 88.9922 22.1372Z" fill="white"/>
<path d="M93.781 21.9128C93.781 21.8788 93.781 21.8108 93.781 21.7904C93.5772 21.8312 93.3735 21.8176 93.1765 21.7972C93.1018 21.7972 93.0271 21.7836 92.9524 21.7836H92.9049C92.7962 21.7768 92.6875 21.77 92.5857 21.804C92.5245 21.8244 92.4838 21.8584 92.443 21.8924C92.4091 21.9196 92.3683 21.9467 92.3276 21.9671L92.2936 21.9807L92.2664 21.9535C92.1781 21.872 92.0966 21.8108 92.0151 21.77L91.9812 21.7564C91.8861 21.7156 91.8046 21.7089 91.7299 21.736C91.6348 21.7768 91.5601 21.8788 91.4922 22.0419C91.5261 22.0895 91.6959 22.1914 91.7842 22.239C91.8318 22.2662 91.8725 22.2934 91.8997 22.3138C91.9676 22.1914 92.0899 22.0351 92.2393 21.9807L92.2732 21.9671L92.3004 21.9943C92.4498 22.1642 92.5856 22.2458 92.6943 22.2458C92.7486 22.2458 92.7962 22.205 92.8573 22.1642C92.9049 22.1235 92.9592 22.0827 93.0203 22.0623C93.1426 22.0215 93.2648 22.0283 93.3803 22.0351H93.4278C93.4822 22.0351 93.5229 22.0419 93.5569 22.0419C93.6519 22.0419 93.652 22.0419 93.7742 22.0215C93.7742 21.9875 93.7742 21.9535 93.7742 21.9128" fill="white"/>
<path d="M90.7316 23.8907C90.6637 23.8159 90.5686 23.7072 90.5143 23.7072C90.134 23.782 89.7197 23.7616 89.3122 23.7412C89.1763 23.7344 89.0405 23.7276 88.9115 23.7208C88.8164 23.7208 88.7213 23.7208 88.633 23.714C88.4904 23.714 88.3477 23.7072 88.2051 23.7004C88.1712 23.7004 88.1372 23.7004 88.1032 23.7004C88.0149 23.7004 87.9335 23.7004 87.852 23.714C87.784 23.7344 87.7297 23.7684 87.6754 23.8024C87.6346 23.8295 87.5871 23.8635 87.5395 23.8771L87.5056 23.8907L87.4784 23.8635C87.295 23.6868 87.1456 23.612 87.0098 23.6392C86.8943 23.6596 86.7924 23.7684 86.7109 23.9519C86.7517 23.9995 86.9351 24.115 87.0234 24.1694C87.0573 24.1898 87.0913 24.2102 87.1116 24.2238C87.1931 24.0742 87.3154 23.9587 87.458 23.8907L87.492 23.8771L87.5192 23.9043C87.6007 23.9859 87.6754 24.0334 87.7433 24.0674C87.7501 24.0674 87.7569 24.0674 87.7704 24.0742L87.8248 24.0878C87.9606 24.1218 88.0693 24.0742 88.1983 24.0266C88.3206 23.9791 88.4496 23.9315 88.6262 23.9315C88.8979 23.9315 89.1899 23.9451 89.4752 23.9655C89.9302 23.9995 90.392 24.0334 90.8335 23.9655C90.8063 23.9383 90.7724 23.9043 90.7384 23.8703" fill="white"/>
<path d="M92.1719 23.9181C92.1719 23.9181 92.1176 23.8706 92.1108 23.8638C92.104 23.857 92.0836 23.8434 92.0632 23.823C92.0293 23.7958 91.9342 23.7074 91.9002 23.7006C91.6354 23.7686 91.3433 23.7346 91.0581 23.7006C91.0309 23.7006 91.0037 23.7006 90.9766 23.6938C90.9834 23.7006 90.9901 23.7074 90.9969 23.7142C91.0241 23.7414 91.0445 23.7618 91.0581 23.7686C91.0717 23.7822 91.092 23.7958 91.1124 23.8162C91.1599 23.857 91.2346 23.9249 91.2754 23.9249C91.3637 23.9317 91.452 23.9453 91.5471 23.9521C91.7848 23.9793 92.0225 24.0133 92.2398 23.9793C92.2194 23.9589 92.1923 23.9385 92.1583 23.9113" fill="white"/>
<path d="M89.6511 25.7058C90.0382 25.7058 90.4389 25.7058 90.8125 25.6175C90.7785 25.5903 90.7446 25.5495 90.7106 25.5155C90.6563 25.4543 90.534 25.3252 90.4933 25.3252C90.1265 25.4407 89.7054 25.4543 89.3047 25.4747C89.1689 25.4747 89.0331 25.4883 88.904 25.4951C88.8089 25.5019 88.7138 25.5087 88.6188 25.5155C88.4761 25.5223 88.3335 25.5291 88.1909 25.5427C88.1569 25.5427 88.123 25.5427 88.0958 25.5495C88.0075 25.5495 87.926 25.5563 87.8445 25.5903C87.7834 25.6175 87.7291 25.6582 87.6815 25.699C87.634 25.7398 87.5796 25.7806 87.5117 25.8078L87.5457 25.8418C87.5796 25.8757 87.6068 25.8961 87.6136 25.9029C87.6883 25.9573 87.7426 25.9981 87.797 26.0185H87.8105L87.8309 26.0321C87.9056 26.0525 87.9464 26.0321 88.0483 25.9709C88.1298 25.9233 88.2248 25.8689 88.3811 25.8214C88.7886 25.699 89.23 25.699 89.6579 25.7058" fill="white"/>
<path d="M87.3825 25.8007V25.7531C87.2263 25.624 87.0904 25.5764 86.9953 25.6036C86.8867 25.6308 86.7984 25.7531 86.7305 25.957C86.7644 25.9978 86.9206 26.0929 87.0089 26.1473C87.0633 26.1813 87.1108 26.2085 87.138 26.2289C87.1516 26.2085 87.1719 26.1813 87.1923 26.1473C87.267 26.0386 87.3621 25.8958 87.3825 25.8007Z" fill="white"/>
<path d="M103.151 20.1731C103.389 20.1595 103.634 20.1187 103.898 20.0031C103.871 20.0031 103.844 20.0031 103.81 19.9963C103.668 19.9828 103.498 19.9624 103.43 19.9556L103.145 20.1731H103.151Z" fill="white"/>
<path d="M105.874 19.8128C105.826 19.8128 105.575 20.0031 105.432 20.1254C105.208 20.3294 104.74 19.9963 104.434 19.7788C104.42 19.7788 104.393 19.7992 104.346 19.8332L104.366 19.8672C104.285 19.9215 104.203 19.9759 104.128 20.0167L104.047 20.0643C104.427 20.3294 104.801 20.5265 105.235 20.3294C105.351 20.275 105.432 20.207 105.487 20.139L105.521 20.1051L105.561 20.1322C105.711 20.2342 105.826 20.3769 105.935 20.5129C106.016 20.4721 106.241 20.309 106.342 20.2342C106.207 20.0711 106.071 19.8944 105.881 19.8128" fill="white"/>
<path d="M105.965 21.8245C105.918 21.8245 105.667 22.0148 105.531 22.1371C105.307 22.341 104.838 22.008 104.526 21.7837C104.498 21.7973 104.424 21.8381 104.22 21.9876C104.206 22.0012 104.193 22.008 104.186 22.0148C104.172 22.0216 104.166 22.0284 104.098 22.0148L104.118 22.0488C104.505 22.3206 104.885 22.5313 105.327 22.3274C105.442 22.2731 105.524 22.2051 105.585 22.1371L105.619 22.1031L105.66 22.1303C105.802 22.2323 105.918 22.375 106.033 22.511C106.115 22.4702 106.339 22.307 106.441 22.2323C106.305 22.0692 106.169 21.8924 105.979 21.8109" fill="white"/>
<path d="M104.014 22.0082C104.014 22.0082 103.959 22.0082 103.925 21.9946C103.769 21.9743 103.559 21.9539 103.504 21.9539C103.341 21.9539 103.294 21.9403 103.239 21.9335C103.192 21.9335 103.138 21.9199 102.981 21.9131C102.913 21.9131 102.825 21.9946 102.75 22.0762C102.723 22.1034 102.696 22.1238 102.676 22.151C102.75 22.151 102.825 22.1578 102.893 22.1646C103.375 22.1918 103.633 22.2053 104.014 22.0082Z" fill="white"/>
<path d="M104.111 23.5581L103.941 23.6668C104.322 23.9319 104.695 24.1358 105.13 23.9319C105.245 23.8775 105.327 23.8028 105.381 23.7416L105.415 23.7076L105.456 23.7348C105.605 23.8367 105.721 23.9795 105.83 24.1222C105.911 24.0814 106.135 23.9183 106.237 23.8435C106.101 23.6804 105.965 23.5105 105.782 23.4221C105.721 23.4221 105.47 23.6124 105.341 23.7348C105.116 23.9387 104.648 23.6056 104.342 23.3813C104.329 23.3813 104.301 23.4017 104.254 23.4357L104.274 23.4697C104.274 23.4697 104.22 23.5105 104.186 23.5241H104.206L104.125 23.5649L104.111 23.5581Z" fill="white"/>
<path d="M101.673 23.4761C101.605 23.4761 101.523 23.5576 101.442 23.6392C101.415 23.6664 101.394 23.6868 101.367 23.714C101.449 23.714 101.523 23.7208 101.605 23.7276C102.311 23.7683 103.099 23.8091 103.724 23.6052C103.724 23.6052 103.724 23.6052 103.717 23.6052C103.554 23.5848 103.357 23.5644 103.303 23.5576C103.147 23.5576 102.821 23.5372 102.488 23.5169C102.162 23.4965 101.836 23.4829 101.673 23.4761Z" fill="white"/>
<path d="M101.02 23.4014C101.067 23.3606 101.101 23.3334 101.128 23.3062C101.115 23.2994 101.101 23.2858 101.094 23.279C100.986 23.1907 100.911 23.1295 100.741 23.1159C100.653 23.1091 100.564 23.1159 100.469 23.1159C100.374 23.1159 100.279 23.1159 100.177 23.1159C99.9125 23.1159 99.6408 23.1227 99.3963 23.0479C99.3488 23.0343 99.2333 23.1567 99.1654 23.2246C99.1314 23.2586 99.0975 23.2926 99.0703 23.3198C99.2673 23.3538 99.4778 23.3538 99.6816 23.347C99.7834 23.347 99.8785 23.347 99.9736 23.347C100.021 23.347 100.069 23.347 100.116 23.347C100.177 23.347 100.238 23.347 100.3 23.3606C100.469 23.3878 100.564 23.4625 100.66 23.5441C100.687 23.5645 100.714 23.5849 100.741 23.6121C100.789 23.5985 100.931 23.4761 101.013 23.4082" fill="white"/>
<path d="M104.851 25.7873C104.966 25.7329 105.048 25.665 105.109 25.597L105.143 25.563L105.177 25.5902C105.319 25.6922 105.442 25.8349 105.55 25.9708C105.632 25.9301 105.856 25.7669 105.958 25.6922C105.822 25.529 105.686 25.3591 105.496 25.2708C105.435 25.2776 105.19 25.4611 105.054 25.5834C104.83 25.7873 104.362 25.4543 104.056 25.23C104.043 25.23 104.015 25.2504 103.968 25.2844L103.988 25.3183C103.954 25.3455 103.913 25.3659 103.88 25.3863L103.676 25.5154C104.056 25.7805 104.43 25.9844 104.864 25.7805" fill="white"/>
<path d="M101.673 25.2095C101.605 25.2095 101.523 25.291 101.442 25.3726C101.415 25.3998 101.394 25.4202 101.367 25.4474C101.53 25.461 101.693 25.4745 101.856 25.4881C102.4 25.5425 102.956 25.5969 103.439 25.4542C103.282 25.4338 103.072 25.4134 103.024 25.4134C102.861 25.4134 102.596 25.359 102.345 25.3114C102.094 25.2638 101.836 25.2231 101.68 25.2163L101.673 25.2095Z" fill="white"/>
<path d="M105.224 16.6252H105.258C105.258 16.6252 105.272 16.6116 105.279 16.6116C105.286 16.6116 105.292 16.6116 105.306 16.6048C105.374 16.5776 105.455 16.5301 105.537 16.4553L105.564 16.4281L105.598 16.4417C105.741 16.5097 105.856 16.632 105.931 16.7883C105.958 16.7747 105.985 16.7544 106.026 16.734C106.121 16.6796 106.304 16.5776 106.352 16.5301C106.277 16.3397 106.175 16.231 106.067 16.2038C105.944 16.1698 105.781 16.2378 105.591 16.4077L105.564 16.4281L105.53 16.4145C105.483 16.3941 105.442 16.3601 105.401 16.3329C105.347 16.2922 105.292 16.2582 105.231 16.2378C105.15 16.2106 105.068 16.2106 104.98 16.2106C104.946 16.2106 104.912 16.2106 104.885 16.2106C104.661 16.197 104.437 16.2106 104.212 16.2038L104.145 16.4349C104.253 16.4349 104.355 16.4349 104.45 16.4417C104.62 16.4485 104.756 16.5097 104.871 16.5572C105 16.6116 105.109 16.6592 105.238 16.632" fill="white"/>
<path d="M105.986 18.1477C105.884 18.1137 105.748 18.1545 105.578 18.2836V18.3312C105.599 18.4263 105.694 18.5759 105.762 18.6846C105.782 18.7186 105.802 18.7458 105.816 18.7662C105.85 18.7458 105.891 18.7254 105.952 18.6914C106.04 18.6438 106.21 18.5555 106.237 18.5147C106.176 18.3108 106.094 18.1816 105.986 18.1477Z" fill="white"/>
<path d="M105.143 18.1001C105.068 18.0661 104.98 18.0593 104.899 18.0457C104.865 18.0457 104.831 18.0457 104.804 18.0321C104.749 18.0254 104.695 18.0186 104.647 18.005C104.471 17.9778 104.281 17.9438 104.104 17.9506C103.968 17.9506 103.819 17.9506 103.676 17.9506L103.574 18.1409C103.914 18.1545 104.267 18.1885 104.6 18.304C104.749 18.3584 104.844 18.4196 104.926 18.4671C105.021 18.5283 105.068 18.5555 105.143 18.5351H105.163C105.231 18.5011 105.293 18.4671 105.367 18.4128C105.374 18.4128 105.422 18.372 105.469 18.3312H105.476C105.415 18.2972 105.36 18.2564 105.313 18.2089C105.265 18.1681 105.218 18.1205 105.15 18.0933" fill="white"/>
<path d="M106.175 33.7938C106.175 33.7938 106.616 33.4471 106.684 33.3792C106.895 33.1821 107.513 32.6247 107.805 32.3596C107.839 32.3325 107.866 32.3053 107.886 32.2849C108.015 32.1693 107.594 31.9994 107.703 31.8975C107.594 31.9994 107.486 32.1014 107.377 32.1965C106.881 32.6587 106.426 33.1277 106.168 33.787" fill="white"/>
<path d="M105.645 33.2025C105.645 33.2025 106.086 32.8558 106.154 32.7879C106.344 32.6111 106.813 32.3121 107.098 32.0946C107.152 32.0538 107.207 32.0062 107.247 31.9722C107.376 31.8499 107.003 31.7479 107.112 31.646C106.989 31.7615 106.867 31.8635 106.745 31.9586C106.283 32.3325 105.875 32.5976 105.645 33.2025Z" fill="white"/>
<path d="M104.438 33.4064C104.438 33.4064 104.879 33.0597 104.947 32.9918C105.164 32.7879 106.081 32.0946 106.394 31.8295C106.421 31.8091 106.448 31.7819 106.461 31.7683C106.59 31.646 106.163 31.4081 106.271 31.3062C106.156 31.4149 106.027 31.5304 105.891 31.6528C105.327 32.1626 104.682 32.7539 104.438 33.4064Z" fill="white"/>
<path d="M104.226 32.679C104.226 32.679 104.667 32.3324 104.735 32.2644C104.925 32.0877 105.387 31.7954 105.672 31.5711C105.733 31.5236 105.781 31.4828 105.822 31.4488C105.951 31.3265 105.577 31.2245 105.686 31.1226C105.557 31.2449 105.428 31.3469 105.305 31.4488C104.844 31.8158 104.45 32.0877 104.219 32.679" fill="white"/>
<path d="M104.09 32.0608C104.09 32.0608 104.531 31.7141 104.599 31.6461C104.762 31.4966 104.898 31.4422 105.047 31.3539C105.109 31.3131 105.17 31.2723 105.238 31.2111C105.367 31.0956 104.946 30.9257 105.054 30.8237C104.857 31.0072 104.721 31.116 104.62 31.2044C104.389 31.4015 104.3 31.5102 104.09 32.0608Z" fill="white"/>
<path d="M103.723 31.0957C103.682 31.1704 103.634 31.2792 103.566 31.4627C103.566 31.4559 104.008 31.1161 104.076 31.0481C104.089 31.0345 104.103 31.0277 104.11 31.0209C104.3 30.8714 104.286 31.1025 104.504 30.9053C104.633 30.783 104.259 30.6811 104.368 30.5791C104.096 30.8306 103.967 30.885 103.879 30.9325C103.818 30.9665 103.777 31.0005 103.723 31.0957Z" fill="white"/>
<path d="M103.409 30.7487C103.524 30.6603 103.639 30.5652 103.673 30.5312C103.68 30.5244 103.687 30.5244 103.694 30.5176C103.626 30.4564 103.544 30.402 103.606 30.3477C103.368 30.5652 103.293 30.5923 103.273 30.5923C103.273 30.6059 103.273 30.6399 103.252 30.6875C103.239 30.7419 103.212 30.8234 103.164 30.9458C103.164 30.9458 103.286 30.8438 103.409 30.7487Z" fill="white"/>
<path d="M103.737 30.5518C103.764 30.4974 103.764 30.4634 103.703 30.5178C103.717 30.5314 103.73 30.545 103.737 30.5518Z" fill="white"/>
<path d="M103.742 30.6741C103.79 30.6333 103.769 30.5925 103.729 30.5518C103.688 30.6469 103.6 30.8032 103.742 30.6741Z" fill="white"/>
<path d="M99.207 31.3743C99.8455 30.9869 100.328 30.1781 100.742 29.5052C100.81 29.3964 100.878 29.2877 100.939 29.1925C100.857 29.3149 100.545 28.9411 100.45 29.0906C100.443 29.1042 100.43 29.1314 100.416 29.145C100.219 29.478 99.6824 30.5451 99.5194 30.8034C99.4719 30.8849 99.2206 31.3607 99.207 31.3811" fill="white"/>
<path d="M99.2062 19.4459C99.2062 19.4459 98.9957 19.3099 98.9549 19.2896C98.8259 19.2216 98.3369 18.8885 98.2078 18.8206C98.1399 18.8002 98.0856 19.0381 98.0312 19.0109C98.0584 19.0245 98.0924 19.0449 98.1263 19.0585C98.4455 19.2352 98.8395 19.4663 99.2062 19.4459Z" fill="white"/>
<path d="M98.7653 19.6562C98.7653 19.6562 98.5548 19.5203 98.5141 19.4999C98.4326 19.4591 98.2356 19.3368 98.0726 19.2348C97.9843 19.1805 97.9028 19.1329 97.8553 19.1057C97.7873 19.0717 97.733 19.3232 97.6719 19.296C97.7738 19.3504 97.8824 19.4048 97.9843 19.4591C98.222 19.5815 98.4801 19.6766 98.7518 19.663" fill="white"/>
<path d="M98.2766 19.7314C98.2766 19.7314 98.0661 19.5955 98.0254 19.5751C97.9982 19.5615 97.9778 19.5479 97.9574 19.5275C97.8895 19.4663 97.8488 19.3916 97.7537 19.344C97.6858 19.31 97.6314 19.5615 97.5703 19.5343C97.7265 19.6159 97.8012 19.6702 97.8827 19.6974C97.971 19.7314 98.0661 19.745 98.2766 19.7314Z" fill="white"/>
<path d="M96.6481 18.3853C96.6481 18.3853 96.3968 18.3445 96.3561 18.3445C96.2202 18.3377 95.6633 18.2358 95.5003 18.2222H95.4867C95.4052 18.2222 95.4596 18.4737 95.3984 18.4669C95.4596 18.4669 95.5275 18.4737 95.5954 18.4804C95.9418 18.5076 96.3493 18.5416 96.6481 18.3921" fill="white"/>
<path d="M96.4848 18.7458C96.4848 18.7458 96.2335 18.705 96.1927 18.705C96.0976 18.705 95.8531 18.6574 95.6562 18.6371C95.5611 18.6235 95.4796 18.6099 95.432 18.6099C95.3505 18.6099 95.4049 18.8613 95.3438 18.8545C95.3845 18.8545 95.432 18.8546 95.4728 18.8613C95.6358 18.6506 95.2962 18.7798 95.629 18.6778C95.5815 18.6914 95.629 18.7934 95.6494 18.8681C95.6833 18.8681 95.7105 18.8545 95.7173 18.8545C95.7648 18.841 95.7512 18.8546 95.7173 18.8749C95.7309 18.8749 95.7512 18.8749 95.7648 18.8749C96.0093 18.8749 96.2606 18.8681 96.4848 18.7458Z" fill="white"/>
<path d="M95.6406 18.8716H95.644V18.8682L95.6406 18.8716Z" fill="white"/>
<path d="M95.9383 19.2553C96.0401 19.2553 96.1284 19.2281 96.3322 19.1261C96.3254 19.1261 96.0809 19.0854 96.0401 19.0854C95.9518 19.0854 95.8975 19.0446 95.8296 19.0174C95.7888 19.0038 95.7481 18.9834 95.6938 18.9834C95.6123 18.9834 95.6666 19.2349 95.6055 19.2281C95.7685 19.2349 95.8635 19.2553 95.9383 19.2553Z" fill="white"/>
<path d="M94.7319 17.9978C94.7319 17.9978 94.4807 17.9503 94.4399 17.9503C94.3177 17.9435 94.1886 17.9095 94.0664 17.8891C94.046 17.8891 94.0256 17.8823 94.0052 17.8755C93.9237 17.8755 93.9781 18.127 93.9102 18.1202C94.012 18.127 94.0935 18.1338 94.1614 18.1406C94.3516 18.1474 94.4671 18.127 94.7252 17.9978" fill="white"/>
<path d="M94.4991 18.4126C94.3836 18.4058 94.3293 18.365 94.241 18.3446C94.2206 18.3446 94.1934 18.3379 94.1663 18.3311C94.0916 18.3311 94.0033 18.5757 94.0712 18.5757C94.1731 18.5757 94.2546 18.5757 94.3225 18.5757C94.5398 18.5757 94.6213 18.5418 94.7843 18.4534C94.7775 18.4534 94.533 18.4126 94.4923 18.4058" fill="white"/>
<path d="M95.6281 18.9427C95.6281 18.9427 95.6349 18.9291 95.6417 18.9155C95.6009 18.9359 95.5737 18.9563 95.6281 18.9427Z" fill="white"/>
<path d="M95.7153 18.8546C95.7153 18.8546 95.6746 18.8614 95.6406 18.8681C95.6406 18.8681 95.6406 18.9021 95.6406 18.9157C95.6678 18.9021 95.6949 18.8885 95.7153 18.8681C95.7493 18.8478 95.7697 18.8342 95.7153 18.8478" fill="white"/>
<path d="M95.6267 18.6777C95.2939 18.7797 95.6267 18.6438 95.4704 18.8612C95.4569 18.8816 95.4501 18.8952 95.4297 18.9156C95.4297 18.9156 95.5587 18.8884 95.6402 18.868C95.6267 18.7933 95.5791 18.6913 95.6199 18.6777" fill="white"/>
<path d="M100.661 20.2887C100.661 20.2887 100.655 20.2751 100.648 20.2683C100.6 20.2071 100.451 20.4246 100.41 20.3702C100.417 20.377 100.424 20.3906 100.431 20.3974C100.614 20.6217 100.831 20.9208 101.083 21.1043C101.157 21.1587 101.232 21.1994 101.313 21.2334C101.313 21.2334 101.246 21.1315 101.191 21.0567C101.171 21.0227 101.15 20.9955 101.144 20.9887C101.055 20.88 100.757 20.4178 100.655 20.2819" fill="white"/>
<path d="M100.279 20.4719C100.252 20.4379 100.232 20.4039 100.218 20.3903C100.171 20.3292 100.021 20.5467 99.9805 20.4923C100.008 20.5195 100.028 20.5535 100.055 20.5875C100.259 20.8389 100.476 21.0972 100.782 21.2264C100.802 21.2332 100.816 21.2467 100.836 21.2535C100.836 21.2535 100.823 21.2332 100.809 21.2128C100.768 21.1516 100.687 21.036 100.666 21.0089C100.592 20.9205 100.402 20.635 100.286 20.4719" fill="white"/>
<path d="M100.347 21.1381C100.347 21.1381 100.204 20.9274 100.177 20.8934C100.089 20.7914 100.102 20.6963 100.028 20.5943C100.028 20.5875 100.028 20.5807 100.014 20.5739C99.9665 20.5128 99.8171 20.7303 99.7695 20.6759C99.7763 20.6895 99.7831 20.6963 99.7967 20.7031C100.007 20.9682 99.9801 21.0021 100.34 21.1313" fill="white"/>
<path d="M96.5498 19.8876C96.5498 19.8876 96.7739 20.0032 96.8146 20.0168C96.8894 20.0439 97.0591 20.1323 97.2154 20.2139C97.3308 20.275 97.4463 20.3294 97.5006 20.3498C97.5753 20.377 97.6025 20.1187 97.6636 20.1459C97.5414 20.0983 97.4259 20.0507 97.2968 20.0032C97.0591 19.9148 96.8078 19.8468 96.543 19.8876" fill="white"/>
<path d="M96.8164 19.5751C96.8164 19.5751 97.0405 19.6906 97.0813 19.7042C97.2035 19.7518 97.2443 19.8334 97.3462 19.8877C97.3597 19.8877 97.3665 19.9013 97.3733 19.9013C97.448 19.9285 97.4752 19.6702 97.5363 19.6974C97.4956 19.6838 97.4616 19.6634 97.4277 19.6499C97.1832 19.5479 97.1628 19.5071 96.8164 19.5683" fill="white"/>
<path d="M98.6314 20.3499C98.6857 20.3975 98.8012 20.513 98.9167 20.6218C99.0253 20.7305 99.134 20.8325 99.1815 20.8733C99.2427 20.9208 99.3445 20.6829 99.3989 20.7305C99.3242 20.6694 99.2494 20.6014 99.1679 20.5402C98.9438 20.3567 98.7061 20.1936 98.4141 20.146C98.4209 20.146 98.5907 20.3227 98.6246 20.3499" fill="white"/>
<path d="M99.1168 20.2273C99.2119 20.3089 99.2255 20.3972 99.307 20.4788C99.3138 20.4856 99.3205 20.4992 99.3341 20.5128C99.3817 20.5468 99.4496 20.4312 99.5039 20.3768C99.5107 20.37 99.5243 20.3632 99.5311 20.3632C99.5311 20.3632 99.5447 20.3632 99.5515 20.3632C99.5515 20.3632 99.5515 20.3632 99.5447 20.3564C99.2662 20.1254 99.3002 20.0846 98.9062 20.0166C98.913 20.0166 99.0828 20.1933 99.1168 20.2205" fill="white"/>
<path d="M86.7917 36.4312C86.7917 36.4312 86.8461 36.4923 86.8732 36.5263C86.9004 36.5603 86.9208 36.6011 86.9276 36.6419C86.9344 36.6827 86.9412 36.7234 86.9276 36.771C86.914 36.8254 86.8936 36.873 86.8529 36.9069C86.8121 36.9409 86.7714 36.9613 86.7102 36.9749C86.6559 36.9885 86.588 36.9885 86.5133 36.9749C86.4318 36.9613 86.3571 36.9341 86.2892 36.8934C86.228 36.8526 86.1737 36.7846 86.1262 36.703C86.0786 36.6215 86.0379 36.5059 86.0039 36.37L86.2077 36.336C86.228 36.4312 86.2552 36.5127 86.2824 36.5807C86.3095 36.6487 86.3435 36.703 86.3842 36.7438C86.425 36.7846 86.4725 36.805 86.5269 36.8186C86.5608 36.8186 86.588 36.8186 86.6084 36.8186C86.6287 36.8186 86.6491 36.805 86.6695 36.7914C86.6831 36.7778 86.6967 36.7574 86.7035 36.7302C86.7102 36.6827 86.7035 36.6419 86.6763 36.6011C86.6491 36.5603 86.6084 36.5195 86.554 36.4719L86.7782 36.4516L86.7917 36.4312ZM86.0718 35.8398L87.3351 36.037L87.3011 36.1933L86.0379 35.9962L86.0718 35.8398ZM86.6899 35.9418C86.7374 35.9486 86.7782 35.969 86.8189 35.9894C86.8597 36.0098 86.9004 36.037 86.9276 36.0641C86.9547 36.0913 86.9819 36.1253 86.9955 36.1593C87.0091 36.1933 87.0159 36.2341 87.0091 36.268C86.9887 36.3496 86.9344 36.4108 86.8461 36.4448C86.751 36.4855 86.6355 36.4923 86.4861 36.4787L86.5065 36.3224C86.588 36.336 86.6559 36.3292 86.7035 36.3224C86.751 36.3088 86.7782 36.2748 86.7917 36.2273C86.7985 36.1865 86.7917 36.1525 86.7578 36.1185C86.7306 36.0845 86.6899 36.0641 86.6491 36.0437L86.6899 35.935V35.9418Z" fill="white"/>
<path d="M88.3659 36.3293L88.2029 37.2061L87.9787 37.1789L88.0738 36.6624L87.8837 36.6352C87.809 36.6284 87.7546 36.6216 87.7139 36.6216C87.6799 36.6216 87.646 36.6284 87.6188 36.642C87.6052 36.6488 87.5916 36.6624 87.578 36.676C87.5645 36.6896 87.5577 36.71 87.5577 36.7303C87.5577 36.7575 87.5577 36.7915 87.5712 36.8187C87.5848 36.8527 87.612 36.8867 87.6392 36.9207C87.6731 36.9546 87.7071 36.9954 87.7614 37.043L87.5916 37.145C87.5373 37.0906 87.4897 37.043 87.449 36.9886C87.4082 36.9343 87.3743 36.8867 87.3539 36.8323C87.3335 36.7779 87.3268 36.7236 87.3403 36.6692C87.3471 36.6284 87.3607 36.5944 87.3879 36.5672C87.4082 36.54 87.4354 36.5129 87.4694 36.4993C87.4965 36.4857 87.5305 36.4721 87.5645 36.4653C87.5984 36.4585 87.6392 36.4517 87.6867 36.4517C87.7342 36.4517 87.7886 36.4517 87.8497 36.4653L88.101 36.4993L88.1418 36.2954L87.2656 36.1798L87.3335 36.0303L88.7462 36.207L88.7191 36.3633L88.3659 36.3225V36.3293Z" fill="white"/>
<path d="M88.1641 37.2671C88.1641 37.2671 88.2048 37.2671 88.2252 37.2671C88.2456 37.2671 88.2727 37.2671 88.2931 37.2671C88.3814 37.2806 88.4561 37.301 88.524 37.335C88.5851 37.369 88.6395 37.4166 88.687 37.4642C88.7346 37.5185 88.7753 37.5729 88.8161 37.6341L88.6463 37.702C88.6123 37.6409 88.5784 37.5933 88.5376 37.5525C88.5037 37.5117 88.4629 37.4846 88.4222 37.4574C88.3814 37.437 88.3339 37.4234 88.2795 37.4166C88.2591 37.4166 88.2388 37.4166 88.2252 37.4166C88.2116 37.4166 88.198 37.4166 88.1844 37.4166V37.2603L88.1641 37.2671Z" fill="white"/>
<path d="M90.7174 36.594L89.8956 36.5124L89.848 36.8319V36.7911C89.848 36.7911 89.916 36.7571 89.9567 36.7503C89.9975 36.7503 90.0382 36.7435 90.0857 36.7503C90.174 36.7571 90.2487 36.7911 90.2963 36.8454C90.3438 36.8998 90.3642 36.9678 90.3506 37.0561C90.3506 37.1037 90.3235 37.1581 90.2963 37.2193C90.2623 37.2736 90.2216 37.3348 90.1672 37.3824L89.9839 37.2669C90.0246 37.2329 90.0518 37.1989 90.079 37.1581C90.1061 37.1173 90.1197 37.0833 90.1265 37.0358C90.1333 36.9882 90.1265 36.9542 90.1061 36.9338C90.0857 36.9134 90.0586 36.8998 90.0178 36.893C89.9839 36.893 89.9499 36.893 89.916 36.9134C89.882 36.927 89.848 36.9474 89.8141 36.9746L89.8277 36.9406L89.7597 37.3824L89.5356 37.3552L89.5832 37.029L89.6307 37.0901C89.6307 37.0901 89.5628 37.1173 89.5288 37.1309C89.4949 37.1445 89.4541 37.1513 89.4134 37.1581C89.3726 37.1581 89.3251 37.1581 89.2775 37.1581C89.2096 37.1513 89.1485 37.1309 89.0942 37.1037C89.0398 37.0765 88.9991 37.0358 88.9719 36.9882C88.9447 36.9406 88.938 36.8862 88.9447 36.8183C88.9515 36.7571 88.9787 36.7027 89.0195 36.6687C89.0602 36.6279 89.1145 36.6008 89.1824 36.5804C89.2504 36.56 89.3183 36.56 89.3998 36.5668C89.4337 36.5668 89.4677 36.5736 89.5084 36.5804C89.5424 36.5872 89.5764 36.594 89.59 36.6008L89.5492 36.7639C89.5492 36.7639 89.5085 36.7503 89.4813 36.7435C89.4541 36.7435 89.427 36.7299 89.4066 36.7299C89.3387 36.7231 89.2843 36.7299 89.2436 36.7503C89.2028 36.7707 89.1825 36.7979 89.1757 36.8454C89.1689 36.893 89.1757 36.9338 89.2096 36.961C89.2436 36.9882 89.2775 37.0018 89.3251 37.0086C89.393 37.0154 89.4541 37.0086 89.5084 36.9814C89.5628 36.9542 89.6103 36.927 89.6511 36.893L89.59 37.0154L89.6715 36.4852L88.707 36.3629L88.7342 36.2065L90.7038 36.4308L90.7174 36.594Z" fill="white"/>
<path d="M90.6231 37.8718C90.5892 37.8854 90.5484 37.8922 90.5009 37.899C90.4534 37.9058 90.399 37.9058 90.3379 37.899C90.27 37.899 90.2156 37.8786 90.1681 37.8514C90.1206 37.8242 90.0866 37.797 90.0662 37.7563C90.0458 37.7155 90.0391 37.6747 90.0391 37.6271C90.0459 37.5524 90.0866 37.498 90.1545 37.4572C90.2224 37.4164 90.3175 37.4028 90.4398 37.4028V37.5524C90.3651 37.5524 90.3175 37.5592 90.2836 37.5796C90.2564 37.5999 90.236 37.6203 90.2292 37.6475C90.2292 37.6747 90.2292 37.7019 90.2564 37.7155C90.2768 37.7291 90.3107 37.7427 90.3515 37.7427C90.3854 37.7427 90.4194 37.7427 90.4533 37.7427C90.4873 37.7427 90.5213 37.7291 90.5688 37.7155L90.6164 37.865L90.6231 37.8718Z" fill="white"/>
<path d="M92.3583 36.574L92.3379 36.7303L91.9643 36.7099L91.8625 37.5935L91.6383 37.5731L91.6859 37.1993L91.747 37.2604C91.7063 37.274 91.6655 37.2876 91.6248 37.3012C91.584 37.3148 91.5501 37.3216 91.5093 37.3216C91.4686 37.3216 91.421 37.3216 91.3735 37.3216C91.3123 37.3216 91.2648 37.3012 91.2173 37.2876C91.1765 37.2672 91.1425 37.2469 91.1154 37.2197C91.095 37.1993 91.0814 37.1721 91.0678 37.1449C91.0543 37.1177 91.0475 37.0905 91.0475 37.0565C91.0475 37.0226 91.0475 36.9818 91.0475 36.9342L91.0814 36.6419L90.6875 36.6012L90.7079 36.4448L92.3651 36.5808L92.3583 36.574ZM91.2376 36.6691L91.3463 36.6079L91.713 37.1109L91.5976 37.1653L91.2308 36.6691H91.2376ZM91.7402 36.6895L91.292 36.6487L91.258 36.9274C91.258 36.9682 91.258 36.9954 91.258 37.0226C91.258 37.0429 91.258 37.0633 91.2648 37.0769C91.2648 37.0905 91.2784 37.1041 91.292 37.1177C91.3055 37.1313 91.3191 37.1381 91.3395 37.1449C91.3599 37.1517 91.3871 37.1585 91.4142 37.1585C91.455 37.1585 91.4889 37.1585 91.5297 37.1517C91.5636 37.1449 91.5976 37.1313 91.6315 37.1177L91.6927 37.0905L91.7402 36.6827V36.6895Z" fill="white"/>
<path d="M91.8261 37.6543C91.8261 37.6543 91.8668 37.6543 91.8872 37.6543C91.9076 37.6543 91.928 37.6543 91.9483 37.6543C92.0366 37.6543 92.1181 37.6814 92.1793 37.7086C92.2472 37.7426 92.3015 37.7834 92.3491 37.831C92.3966 37.8786 92.4441 37.9329 92.4849 37.9941L92.3219 38.0757C92.2811 38.0145 92.2404 37.9669 92.2064 37.9261C92.1657 37.8854 92.1317 37.8582 92.0842 37.8378C92.0434 37.8174 91.9891 37.8038 91.9348 37.8038C91.9144 37.8038 91.894 37.8038 91.8804 37.8038C91.8668 37.8038 91.8465 37.8038 91.8329 37.8038L91.8125 37.6475L91.8261 37.6543Z" fill="white"/>
<path d="M93.6797 36.8321L93.3401 36.8117L93.3129 37.1311H93.1907C93.1228 37.1176 93.0684 37.1176 93.0277 37.1311C92.9869 37.1311 92.953 37.1447 92.9258 37.1583C92.8918 37.1719 92.8647 37.1923 92.8443 37.2195C92.8239 37.2467 92.8171 37.2739 92.8103 37.3011C92.8103 37.3486 92.8103 37.3894 92.8375 37.4166C92.8579 37.4506 92.8918 37.471 92.9326 37.4914C92.9733 37.505 93.0209 37.5186 93.0752 37.5186C93.1431 37.5186 93.2043 37.5186 93.2586 37.5118C93.3129 37.505 93.3673 37.4846 93.4216 37.4642L93.4827 37.6341C93.4216 37.6545 93.3537 37.6681 93.2858 37.6817C93.2178 37.6953 93.1431 37.6953 93.0616 37.6885C92.9598 37.6817 92.8783 37.6613 92.8035 37.6273C92.7288 37.5933 92.6745 37.5458 92.6337 37.4846C92.593 37.4234 92.5794 37.3554 92.5862 37.2807C92.5862 37.2059 92.6202 37.1447 92.6677 37.0972C92.7153 37.0496 92.7832 37.0156 92.8579 36.9952C92.9326 36.9748 93.0209 36.968 93.116 36.9748H93.1295H93.0956L93.1092 36.8049L92.3281 36.7437L92.3417 36.5874L93.7408 36.6894L93.6729 36.8457L93.6797 36.8321Z" fill="white"/>
<path d="M94.8333 36.8729L94.7857 37.7565H94.5616L94.5888 37.2263H94.3918C94.3171 37.2127 94.2628 37.2195 94.222 37.2263C94.1813 37.2263 94.1541 37.2399 94.1269 37.2535C94.1133 37.2603 94.0997 37.2739 94.093 37.2875C94.0862 37.3011 94.0794 37.3215 94.0794 37.3419C94.0794 37.3691 94.0794 37.403 94.1065 37.4302C94.1269 37.4642 94.1541 37.4914 94.188 37.5254C94.222 37.5594 94.2695 37.5934 94.3239 37.6341L94.1677 37.7565C94.1133 37.7089 94.059 37.6613 94.0115 37.6137C93.9639 37.5662 93.9232 37.5186 93.896 37.4642C93.8688 37.4166 93.8553 37.3623 93.862 37.3079C93.862 37.2671 93.8756 37.2331 93.896 37.1991C93.9164 37.1652 93.9368 37.1448 93.9707 37.1244C93.9979 37.104 94.025 37.0904 94.059 37.0836C94.093 37.07 94.1337 37.0632 94.1745 37.0632C94.222 37.0632 94.2763 37.0632 94.3375 37.0632H94.5888L94.6023 36.8661L93.6719 36.8321V36.6758L95.1457 36.7302V36.8865L94.8333 36.8797V36.8729Z" fill="white"/>
<path d="M95.5918 36.8931L95.5646 37.7767L95.3405 37.7699L95.3676 36.8863L95.1367 36.8795L95.1435 36.7231L95.7887 36.7367L95.7819 36.8931H95.5918Z" fill="white"/>
<path d="M98.3148 36.8931H97.6764V37.2194V37.1786C97.6764 37.1786 97.7375 37.1378 97.7715 37.131C97.8122 37.1174 97.853 37.1106 97.9005 37.1106C97.9888 37.1106 98.0635 37.131 98.1246 37.1786C98.1858 37.2262 98.2129 37.2942 98.2129 37.3825C98.2129 37.4301 98.2061 37.4845 98.1858 37.5456C98.1654 37.6068 98.1314 37.668 98.0839 37.7224L97.8869 37.634C97.9209 37.6 97.9413 37.5592 97.9616 37.5185C97.982 37.4777 97.9888 37.4369 97.9888 37.3961C97.9888 37.3485 97.9752 37.3145 97.9548 37.2942C97.9345 37.2738 97.9005 37.267 97.8666 37.267C97.8326 37.267 97.7986 37.2738 97.7647 37.2942C97.7307 37.3145 97.7036 37.3417 97.6764 37.3689V37.3349L97.69 37.7835H97.4658V37.4573L97.5202 37.5117C97.5202 37.5117 97.459 37.5524 97.4251 37.566C97.3911 37.5864 97.3572 37.5932 97.3164 37.6068C97.2757 37.6136 97.2349 37.6204 97.1874 37.6204C97.1195 37.6204 97.0583 37.6136 96.9972 37.5864C96.9361 37.566 96.8953 37.532 96.8546 37.4845C96.8206 37.4437 96.8002 37.3893 96.8002 37.3213C96.8002 37.2602 96.8138 37.2058 96.8478 37.1582C96.8818 37.1106 96.9293 37.0767 96.9904 37.0563C97.0515 37.0291 97.1262 37.0155 97.201 37.0155C97.2349 37.0155 97.2689 37.0155 97.3096 37.0155C97.3504 37.0155 97.3775 37.0155 97.3979 37.0223L97.3843 37.1854C97.3843 37.1854 97.3436 37.1786 97.3164 37.1786C97.2892 37.1786 97.2621 37.1786 97.2349 37.1786C97.167 37.1786 97.1195 37.1922 97.0787 37.2194C97.038 37.2466 97.0244 37.2738 97.0244 37.3213C97.0244 37.3757 97.0448 37.4097 97.0787 37.4301C97.1127 37.4505 97.1534 37.4641 97.201 37.4641C97.2689 37.4641 97.33 37.4437 97.3775 37.4165C97.4251 37.3825 97.4726 37.3485 97.5066 37.3145L97.4658 37.4437V36.9135H96.7188V36.7504L98.3216 36.7368V36.8999L98.3148 36.8931Z" fill="white"/>
<path d="M98.0669 36.7438C98.0397 36.703 98.0261 36.669 98.0126 36.635C97.999 36.601 97.9922 36.567 97.9922 36.5331C97.9922 36.4515 98.0194 36.3903 98.0805 36.336C98.1416 36.2884 98.2231 36.2612 98.3386 36.2544C98.4133 36.2544 98.4744 36.2544 98.5287 36.2816C98.5831 36.302 98.6306 36.3292 98.6714 36.3699C98.7121 36.4107 98.7461 36.4583 98.78 36.5127C98.8072 36.567 98.8412 36.635 98.8615 36.703H99.0721V36.8525H98.8819L98.9226 37.7429H98.6985L98.6578 36.8661H98.4948L98.488 36.7098H98.6578C98.6306 36.635 98.6034 36.5806 98.5763 36.5399C98.5491 36.4991 98.5151 36.4651 98.4812 36.4447C98.4472 36.4243 98.4065 36.4107 98.3657 36.4175C98.3182 36.4175 98.2774 36.4311 98.2571 36.4583C98.2299 36.4855 98.2231 36.5127 98.2231 36.5535C98.2231 36.5874 98.2299 36.6214 98.2435 36.6486C98.2571 36.6758 98.2706 36.703 98.291 36.7302H98.0737L98.0669 36.7438Z" fill="white"/>
<path d="M100.53 36.8387L100.551 36.7912C100.551 36.7912 100.585 36.8319 100.592 36.8591C100.605 36.8863 100.612 36.9271 100.619 36.9679C100.619 37.029 100.619 37.0834 100.598 37.1242C100.578 37.1718 100.551 37.2058 100.51 37.2397C100.469 37.2737 100.429 37.3009 100.374 37.3281L100.388 37.3145C100.442 37.3553 100.503 37.3961 100.558 37.4301C100.619 37.464 100.687 37.4844 100.761 37.5048C100.836 37.5184 100.911 37.5252 100.999 37.5184C101.081 37.5116 101.155 37.498 101.21 37.4776C101.264 37.4572 101.318 37.4301 101.366 37.4029L101.434 37.5456C101.379 37.5864 101.318 37.6136 101.244 37.6408C101.176 37.6679 101.094 37.6815 101.019 37.6883C100.931 37.6951 100.843 37.6883 100.761 37.6815C100.68 37.6679 100.605 37.6408 100.53 37.6136C100.456 37.5796 100.395 37.5456 100.333 37.5048C100.272 37.464 100.218 37.4233 100.164 37.3757C100.13 37.3417 100.103 37.3145 100.089 37.2873C100.075 37.2601 100.069 37.2397 100.062 37.2193C100.062 37.1922 100.062 37.165 100.089 37.1378C100.109 37.1106 100.143 37.097 100.198 37.0902C100.232 37.0902 100.266 37.0902 100.293 37.1038C100.32 37.1106 100.347 37.131 100.374 37.1514C100.401 37.1718 100.422 37.199 100.449 37.2261L100.313 37.1922C100.313 37.1922 100.361 37.1514 100.374 37.131C100.388 37.1106 100.395 37.0834 100.401 37.0562C100.401 37.029 100.401 37.0019 100.401 36.9747C100.401 36.9407 100.388 36.9135 100.381 36.8795C100.367 36.8523 100.354 36.8251 100.34 36.8115L100.449 36.8523L99.9735 36.8931L99.9531 36.7368L100.911 36.6552L100.924 36.8115L100.537 36.8455L100.53 36.8387ZM101.379 37.2941C101.379 37.2941 101.311 37.3417 101.264 37.3621C101.216 37.3825 101.155 37.3961 101.087 37.4029C101.026 37.4029 100.965 37.4029 100.911 37.3893C100.856 37.3757 100.816 37.3485 100.782 37.3145C100.748 37.2805 100.734 37.2329 100.727 37.1786C100.727 37.1242 100.727 37.0766 100.755 37.0358C100.782 36.9951 100.816 36.9611 100.87 36.9339C100.918 36.9067 100.979 36.8931 101.053 36.8863C101.074 36.8863 101.101 36.8863 101.142 36.8863C101.176 36.8863 101.203 36.8863 101.23 36.8863V37.029C101.23 37.029 101.189 37.029 101.169 37.029C101.148 37.029 101.121 37.029 101.101 37.029C101.047 37.029 101.006 37.0494 100.979 37.0698C100.952 37.0902 100.938 37.1174 100.945 37.1582C100.945 37.1922 100.965 37.2194 100.999 37.2329C101.033 37.2465 101.067 37.2533 101.115 37.2533C101.176 37.2533 101.223 37.2329 101.264 37.2058C101.305 37.1786 101.339 37.1514 101.373 37.1174L101.386 37.3009L101.379 37.2941ZM101.502 36.7572L101.597 37.6408L101.373 37.6611L101.278 36.7776L100.856 36.8115L100.843 36.6552L101.868 36.5601L101.889 36.7164L101.502 36.7572Z" fill="white"/>
<path d="M102.023 36.5536C101.989 36.4788 101.955 36.4244 101.928 36.3837C101.901 36.3429 101.867 36.3089 101.833 36.2953C101.799 36.2749 101.765 36.2749 101.717 36.2749C101.69 36.2749 101.67 36.2817 101.643 36.2885C101.622 36.2953 101.602 36.3021 101.582 36.3089L101.5 36.1594C101.5 36.1594 101.561 36.1322 101.588 36.1254C101.622 36.1186 101.649 36.1118 101.69 36.105C101.745 36.105 101.792 36.105 101.833 36.105C101.88 36.1118 101.921 36.1322 101.962 36.1662C102.003 36.1933 102.043 36.2409 102.084 36.2953C102.125 36.3565 102.166 36.4312 102.213 36.5264L102.009 36.5468L102.023 36.5536ZM102.254 36.6759L102.363 37.5527L102.138 37.5731L102.03 36.6963L101.867 36.7099L101.846 36.5536L102.6 36.4788L102.621 36.6351L102.254 36.6691V36.6759Z" fill="white"/>
<path d="M104.003 36.4853L104.132 37.3621L103.908 37.3893L103.826 36.8115L103.616 36.8319C103.582 36.8319 103.548 36.8387 103.527 36.8387C103.507 36.8387 103.487 36.8387 103.473 36.8387L103.391 36.7843C103.466 36.8115 103.527 36.8523 103.575 36.8931C103.622 36.9407 103.65 36.9882 103.663 37.0494C103.67 37.1038 103.663 37.1446 103.643 37.1853C103.622 37.2261 103.588 37.2533 103.541 37.2805C103.493 37.3077 103.439 37.3213 103.385 37.3281C103.33 37.3281 103.269 37.3281 103.215 37.3213C103.161 37.3077 103.099 37.2873 103.045 37.2533C102.991 37.2193 102.936 37.1718 102.882 37.1038C102.828 37.0426 102.773 36.9611 102.712 36.8591L102.896 36.7775C102.95 36.8659 102.998 36.9407 103.052 37.0018C103.099 37.063 103.147 37.1038 103.201 37.131C103.256 37.1582 103.303 37.1718 103.351 37.165C103.385 37.165 103.412 37.1514 103.432 37.131C103.453 37.1106 103.459 37.0902 103.453 37.0562C103.453 37.0086 103.425 36.9746 103.378 36.9407C103.337 36.9067 103.283 36.8795 103.222 36.8523L103.276 36.7096L103.813 36.6484L103.792 36.5057L102.638 36.6348L102.617 36.4785L104.193 36.3018L104.213 36.4581L104.023 36.4785L104.003 36.4853Z" fill="white"/>
<path d="M106.135 36.2338L106.311 37.1038L106.087 37.1377L106.012 36.7571L105.625 36.8183V36.8591C105.646 36.8999 105.639 36.9338 105.625 36.9542C105.605 36.9746 105.578 36.9882 105.544 36.995C105.517 36.995 105.489 36.995 105.455 36.9882C105.421 36.9814 105.387 36.9678 105.36 36.9474C105.326 36.927 105.299 36.9067 105.279 36.8795C105.252 36.8523 105.238 36.8319 105.238 36.8115C105.238 36.7843 105.238 36.7639 105.252 36.7435C105.265 36.7231 105.299 36.7095 105.347 36.7028H105.381L105.313 36.3697L105.089 36.4037L105.055 36.2474L106.304 36.0435L106.338 36.1998L106.148 36.227L106.135 36.2338ZM105.91 36.2678L105.523 36.3289L105.591 36.662L105.978 36.6008L105.91 36.2678Z" fill="white"/>
<path d="M106.1 36.0846C106.059 36.0166 106.025 35.9622 105.991 35.9214C105.957 35.8807 105.923 35.8535 105.889 35.8399C105.855 35.8263 105.815 35.8195 105.774 35.8263C105.747 35.8263 105.726 35.8399 105.699 35.8467C105.679 35.8535 105.658 35.8671 105.638 35.8739L105.543 35.7311C105.543 35.7311 105.597 35.7039 105.624 35.6903C105.652 35.6836 105.686 35.67 105.726 35.67C105.774 35.6632 105.828 35.6564 105.876 35.67C105.923 35.67 105.964 35.6903 106.012 35.7175C106.052 35.7447 106.1 35.7855 106.141 35.8399C106.188 35.8943 106.236 35.969 106.283 36.0574L106.086 36.0914L106.1 36.0846Z" fill="white"/>
<path d="M106.23 35.7922C106.23 35.7922 106.23 35.731 106.251 35.7038C106.271 35.6766 106.298 35.663 106.332 35.6562C106.366 35.6562 106.4 35.6563 106.434 35.6698C106.461 35.6834 106.482 35.7106 106.489 35.7446C106.495 35.7786 106.489 35.8058 106.468 35.833C106.448 35.8602 106.421 35.8738 106.38 35.8805C106.346 35.8805 106.312 35.8805 106.285 35.8602C106.258 35.8398 106.237 35.8194 106.23 35.7854" fill="white"/>
<path d="M71.4962 32.6111L71.2381 32.7062L71.2109 32.6111C71.3604 32.5091 71.5166 32.3664 71.6456 32.2305H71.8222V32.2441C71.8222 32.2441 71.7746 32.3392 71.7475 32.7198L71.7067 33.4267C71.6864 33.7869 71.7679 33.8413 71.7679 33.8413L71.7543 33.9161H71.3604V33.9025C71.3604 33.9025 71.4419 33.7937 71.4622 33.4267L71.4758 33.1141L71.503 32.6043L71.4962 32.6111Z" fill="white"/>
<path d="M72.9027 34.3444C72.6582 34.3444 72.4545 34.2017 72.373 33.8754L72.6378 33.8075H72.6446C72.6446 33.9638 72.7261 34.1745 72.8891 34.1813C73.1608 34.1813 73.2083 33.855 73.2151 33.5832C73.12 33.6307 73.0114 33.6647 72.8891 33.6647C72.631 33.6647 72.3594 33.4676 72.3594 33.155C72.3594 32.8151 72.6582 32.5908 72.9367 32.5908C73.283 32.5908 73.5547 32.9375 73.5547 33.386C73.5547 33.7395 73.3917 34.3512 72.8959 34.3512M73.2287 33.42V33.386C73.2287 33.0326 73.1336 32.7539 72.9299 32.7471C72.7669 32.7471 72.6786 32.9443 72.6786 33.121C72.6786 33.3249 72.7669 33.488 73.0114 33.488C73.0793 33.488 73.1608 33.4608 73.2287 33.42Z" fill="white"/>
<path d="M120.438 32.4143L121.294 32.2852L121.308 32.3123C121.178 32.5638 121.049 33.1755 121.022 33.5426C120.995 33.896 121.07 33.9572 121.07 33.9572V34.0387L120.717 34.0931V34.0795C120.805 33.5562 120.92 33.0872 121.077 32.5774C120.642 32.625 120.445 32.8221 120.445 32.8221L120.391 32.7949L120.452 32.4211L120.438 32.4143Z" fill="white"/>
<path d="M122.264 32.0808C122.644 32.0537 122.909 32.3459 122.956 32.9033C122.997 33.3994 122.746 33.8208 122.386 33.848C122.026 33.8752 121.741 33.5965 121.7 33.0188C121.659 32.543 121.89 32.108 122.264 32.0808ZM122.264 32.2304C122.101 32.2644 121.965 32.543 122.006 32.978C122.04 33.4334 122.216 33.6985 122.399 33.6849C122.583 33.6713 122.685 33.379 122.651 32.944C122.617 32.5022 122.467 32.1896 122.264 32.2304Z" fill="white"/>
</svg>
