<svg width="100" height="100" viewBox="0 0 100 100" fill="none" xmlns="http://www.w3.org/2000/svg">
<path d="M49.9999 0C22.3857 0 0 22.3857 0 50.0001C0 77.6144 22.3857 100 49.9999 100C77.6143 100 100 77.6143 100 50.0001C100 22.3858 77.6143 0 49.9999 0ZM3.67821 50.0001C3.67821 44.6286 4.58118 39.3969 6.36712 34.4113L11.1766 37.7519V75.2863C9.68149 72.9956 8.39292 70.5716 7.31686 68.0288C4.90335 62.3203 3.67821 56.2547 3.67821 50.0001ZM82.7545 82.7546C78.4995 87.0094 73.5452 90.35 68.0297 92.683C62.3213 95.0978 56.2556 96.3217 50 96.3217C43.7455 96.3217 37.6797 95.0978 31.9715 92.683C26.455 90.35 21.5015 87.0094 17.2458 82.7546C15.9118 81.4206 14.6594 80.0074 13.4956 78.5226H39.0946L49.1756 71.2244V31.5012L39.0946 23.9945H11.6563C13.2922 21.5883 15.1595 19.3331 17.2458 17.2459C21.5015 12.99 26.455 9.64949 31.9715 7.31708C37.6797 4.90234 43.7455 3.67842 50 3.67842C56.2556 3.67842 62.3214 4.90234 68.0297 7.31708C73.5451 9.64949 78.4995 12.99 82.7545 17.2459C84.8417 19.333 86.7078 21.5883 88.3438 23.9945H81.0247L79.3805 27.6249L74.4937 23.9945H63.1244L53.1162 31.5012V71.2244L63.0774 78.5226H86.5058C85.3418 80.0076 84.089 81.4208 82.7545 82.7546ZM21.3972 36.4756H30.5524C33.114 36.4756 35.1897 38.5513 35.1897 41.1129V61.6408C35.1897 64.2015 33.114 66.2779 30.5524 66.2779H25.0599V39.13L21.3972 36.4756ZM90.0452 73.3042V59.1498H77.0888V66.2779H71.4923C69.0441 66.2779 67.0601 64.2942 67.0601 61.8461V39.1352L63.3952 36.4756H77.0888V44.2563H88.9652L91.3276 29.0513C91.8131 30.0083 92.2652 30.9819 92.6829 31.9703C95.0976 37.6787 96.3219 43.7444 96.3219 49.9999C96.3219 56.2546 95.0976 62.3202 92.6829 68.0287C91.9168 69.8415 91.0358 71.6036 90.0452 73.3042Z" fill="white"/>
</svg>
