<svg width="196" height="60" viewBox="0 0 196 60" fill="none" xmlns="http://www.w3.org/2000/svg">
<mask id="mask0_659_320" style="mask-type:alpha" maskUnits="userSpaceOnUse" x="0" y="0" width="196" height="60">
<path d="M47.8764 53.4248C47.6134 51.9646 46.3712 51.2423 44.8964 51.2423C42.2077 51.2423 41.6392 53.2835 41.6392 54.6574C41.6392 56.0313 42.2097 58.0725 44.8964 58.0725C46.2559 58.0725 47.5993 57.4209 47.8764 55.8331H50.9596C50.6096 58.7811 48.1253 59.9999 44.7952 59.9999C40.9979 59.9999 38.6309 58.4121 38.6309 54.6574C38.6309 50.9028 40.9979 49.3149 44.7952 49.3149C47.3221 49.3149 50.5065 49.9391 50.9313 53.4248H47.8785H47.8764Z" fill="#AC811F"/>
<path d="M65.7539 50.1372H68.2197V59.1783H65.7539V50.1372Z" fill="#AC811F"/>
<path d="M91.3512 50.1372H93.699V59.1783H91.0642L86.2079 52.8727H86.1837V59.1783H83.8359V50.1372H86.6453L91.327 56.4428H91.3512V50.1372Z" fill="#AC811F"/>
<path d="M109.318 50.1372H118.305V51.8592H111.931V53.7337H117.981V55.3802H111.931V57.4564H118.358V59.1783H109.316V50.1372H109.318Z" fill="#AC811F"/>
<path d="M137.723 27.1499L137.608 20.5218L137.774 20.2791L156.056 21.9762L156.163 41.9184L146.624 40.098L146.451 37.3907C145.038 38.4774 143.249 38.9385 141.486 39.114C132.335 40.027 119.762 34.114 117.895 24.4781C115.184 10.4826 128.195 4.67412 140.285 5.91758C146.116 6.51691 150.859 9.4426 154.302 14.0431L147.268 19.4874C144.421 15.9493 140.289 13.8676 135.622 14.5696C127.078 15.8522 128.091 28.1338 136.147 30.1614C138.882 30.8504 142.809 30.4527 144.483 27.9602L137.719 27.1517L137.723 27.1499Z" fill="url(#paint0_linear_659_320)"/>
<path d="M122.892 8.72755C127.419 5.61703 133.802 4.46974 139.919 5.0977C145.875 5.70879 150.718 8.69551 154.223 13.3709L154.446 13.6674L146.808 19.5683L146.571 19.2741C143.788 15.8211 139.778 13.8199 135.267 14.4972C133.227 14.803 131.78 15.7576 130.861 17.0332C129.937 18.3151 129.53 19.945 129.622 21.6151C129.808 24.9641 131.988 28.3752 135.83 29.3404L135.954 29.3707C137.246 29.6753 138.8 29.7313 140.227 29.4294C141.469 29.1667 142.584 28.6406 143.362 27.8028L135.995 26.9238L136.926 26.4649L136.815 20.0787L136.813 19.959L137.174 19.4314L156.053 21.1808L156.165 41.9185L145.862 39.9561L145.713 37.6307C144.328 38.4941 142.695 38.8764 141.12 39.033C136.449 39.4982 130.931 38.2257 126.344 35.624C121.758 33.0229 118.045 29.0581 117.082 24.098C116.392 20.5393 116.699 17.4778 117.759 14.9085C118.82 12.3397 120.624 10.2859 122.892 8.72755ZM139.839 5.8513C133.85 5.23638 127.666 6.37062 123.331 9.34957C121.167 10.836 119.467 12.7791 118.47 15.1945C117.473 17.6094 117.169 20.5195 117.836 23.9553C118.743 28.6268 122.259 32.4332 126.726 34.967C131.192 37.5002 136.551 38.7265 141.043 38.2792C142.775 38.1071 144.484 37.6584 145.817 36.6346L146.39 36.1946L146.591 39.3229L155.392 40.9996L155.289 21.871L137.585 20.2304L137.692 26.363L144.747 27.2048L144.403 27.717C143.491 29.072 141.983 29.8329 140.388 30.1704C138.791 30.5082 137.063 30.4324 135.64 30.0747C131.416 29.0132 129.056 25.2727 128.856 21.6565C128.756 19.844 129.195 18.0378 130.235 16.5941C131.28 15.144 132.915 14.0834 135.152 13.7481L135.378 13.7162C139.99 13.1072 144.068 15.1228 146.931 18.511L153.381 13.5273C150.011 9.17633 145.436 6.42547 139.839 5.8513Z" fill="url(#paint1_linear_659_320)"/>
<path d="M193.15 51.7814V7.40689L181.358 6.75022V25.3761L174.692 15.4805L167.85 6.1467C165.884 5.88289 163.88 5.94362 161.897 5.8772C161.643 5.8696 161.409 5.76522 161.155 5.75953C160.315 5.73865 159.469 5.7842 158.631 5.76332L158.965 41.6903L170.745 44.5504L170.692 27.1297C175.449 34.0912 179.954 41.2367 184.097 48.6005L193.151 51.7814H193.15Z" fill="url(#paint2_linear_659_320)"/>
<path d="M159.018 5.76357C159.427 5.77362 159.839 5.76765 160.26 5.76156C160.678 5.75551 161.104 5.74927 161.531 5.75974L161.531 5.75992C161.7 5.76375 161.856 5.79978 161.972 5.82591C162.068 5.84742 162.141 5.86315 162.207 5.87075L162.271 5.87549L162.273 5.87567C164.214 5.93995 166.254 5.88101 168.235 6.14364L168.392 6.16442L175.297 15.472L175.301 15.4782L175.305 15.4844L181.257 24.2144V6.71292L193.744 7.39997V51.1312L195.617 51.7814H192.995V51.6722L184.104 48.5863L184.034 48.463C180.115 41.5819 175.871 34.8938 171.393 28.3694L171.445 44.7702L158.97 41.7778L158.631 5.75391L159.018 5.76357ZM161.513 6.51733C161.103 6.50727 160.691 6.51325 160.27 6.51933C159.979 6.52355 159.684 6.5274 159.388 6.52608L159.713 41.1772L170.692 43.8107L170.636 25.9483L171.322 26.9396C176.036 33.7552 180.502 40.7516 184.613 47.9616L192.995 50.8711V8.11763L182.007 7.51298V26.6494L174.692 15.9205L167.982 6.87516C166.1 6.64203 164.199 6.69768 162.248 6.63308C162.08 6.62797 161.925 6.59148 161.81 6.56563C161.683 6.5372 161.597 6.51936 161.514 6.51751L161.513 6.51733Z" fill="url(#paint3_linear_659_320)"/>
<path d="M69.6518 36.7741V28.56C62.8128 28.8258 55.9908 29.5371 49.1936 30.2896L49.302 26.3978L67.121 24.9939V16.7797L49.4124 17.7531V14.9433L69.7603 14.0785V12.1335L69.8631 5.75391C67.0829 5.78947 52.5731 6.19943 43.3135 6.51954C41.3231 6.5888 39.2965 6.51392 37.3269 6.7423L36.9863 41.0964C47.7588 38.998 58.6777 37.4592 69.6518 36.7741Z" fill="url(#paint4_linear_659_320)"/>
<path d="M69.7565 11.6978V13.999L49.8823 14.8632V16.9057L67.1786 15.9329V24.8932L49.7649 26.2967L49.6803 29.4084C56.1772 28.6746 62.7084 27.9872 69.2585 27.7267L69.6507 27.711V36.6706L69.2971 36.6932C58.5982 37.3766 47.9502 38.9115 37.4415 41.0058L36.9863 41.0966L37.3268 5.96661L37.6568 5.92734C39.5993 5.6969 41.6298 5.77029 43.5349 5.70246C52.5785 5.38261 66.7543 4.97267 69.4747 4.93706L69.8631 4.93213L69.7565 11.6978ZM69.096 5.70301C65.6246 5.76561 52.2362 6.15466 43.5614 6.46147C41.6927 6.528 39.8725 6.46393 38.0748 6.64543L37.7499 40.171C48.0215 38.1405 58.4313 36.6454 68.896 35.9587V28.5018C62.3625 28.7785 55.8422 29.4746 49.3335 30.2118L48.9022 30.2607L49.0293 25.5943L66.4241 24.1921V16.736L49.1276 17.7089V14.1358L69.002 13.2714V11.6858L69.096 5.70301Z" fill="url(#paint5_linear_659_320)"/>
<path d="M0.909281 12.158C0.909281 12.1394 1.01823 11.9893 1.02377 11.7966C1.05147 10.6717 0.986839 9.53756 1.01454 8.41268C4.40312 8.24959 7.80831 8.06613 11.208 7.8771C20.744 7.34709 33.3104 5.13067 35.0499 18.0029C35.4395 20.8847 35.3989 24.7115 35.1699 27.6154C33.9844 42.7319 20.8326 43.8031 9.15266 47.4335C6.39194 48.2915 3.66446 49.2644 0.909281 50.1373C1.11241 37.4874 0.635979 24.8042 0.909281 12.158ZM12.5431 36.1216C15.5642 35.2265 21.0653 35.1375 22.5611 31.8815C23.6838 29.4353 23.8279 21.9039 22.8418 19.4336C22.0828 17.5304 20.2879 17.3543 18.4634 17.3951L12.6557 18.0474L12.5431 36.1216Z" fill="url(#paint6_linear_659_320)"/>
<path d="M10.7618 7.06387C15.4946 6.79684 21.1117 6.08945 25.7372 7.10953C28.0645 7.62279 30.1747 8.57822 31.8157 10.2679C33.4592 11.96 34.6013 14.3568 35.0456 17.6948C35.441 20.6632 35.3986 24.5856 35.168 27.5544C34.8666 31.4558 33.8022 34.4747 32.1732 36.8608C30.5451 39.2454 28.3689 40.9753 25.8781 42.3238C23.3905 43.6706 20.5792 44.6421 17.6723 45.5059C14.7441 46.376 11.7644 47.1251 8.83426 48.0497C7.4555 48.4847 6.0842 48.949 4.70986 49.4166C3.33669 49.8838 1.95989 50.3544 0.57588 50.7995L0.078942 50.9593L0.0872544 50.4284C0.188934 44.0003 0.12056 37.5631 0.0608715 31.1198C0.00120028 24.6783 -0.0498185 18.2312 0.0872544 11.7924H0.0876158C0.0884498 11.7527 0.0948158 11.7219 0.0986388 11.7062C0.103254 11.6873 0.108382 11.6721 0.11183 11.6626C0.11855 11.6441 0.125431 11.6291 0.128816 11.6219C0.135521 11.6076 0.143969 11.5916 0.147429 11.5849C0.15721 11.5659 0.165838 11.549 0.174173 11.5297C0.191262 11.4899 0.200837 11.4539 0.202002 11.4236C0.215657 10.8607 0.206577 10.294 0.197303 9.71816C0.188073 9.145 0.178685 8.56254 0.192786 7.98122L0.20146 7.62555L0.5504 7.60843C3.94452 7.4426 7.3556 7.25614 10.7618 7.06387ZM25.5782 7.85769C21.0829 6.86633 15.6262 7.55594 10.8034 7.82805C7.51405 8.01372 4.21886 8.19389 0.938192 8.35548C0.934163 8.80159 0.941167 9.25077 0.948492 9.70564C0.957722 10.2788 0.967109 10.8611 0.95301 11.4424V11.444C0.948321 11.6095 0.900686 11.7473 0.862116 11.8369C0.853386 11.8572 0.844649 11.8757 0.836817 11.892C0.702226 18.2897 0.752637 24.6979 0.81206 31.1126C0.870081 37.3758 0.935919 43.6458 0.845852 49.9087C2.05592 49.5141 3.262 49.1023 4.47187 48.6907C5.84586 48.2233 7.22438 47.7563 8.61199 47.3185C11.5338 46.3966 14.5904 45.6245 17.462 44.7712C20.3549 43.9115 23.1071 42.9573 25.5256 41.648C27.9409 40.3403 30.0136 38.6836 31.5564 36.4237C33.0982 34.1653 34.1266 31.2815 34.4191 27.4944L34.4399 27.216C34.6494 24.3145 34.6746 20.6015 34.3011 17.7977C33.874 14.5887 32.7881 12.3571 31.2817 10.8062C29.7729 9.25268 27.8112 8.35015 25.5782 7.85769ZM18.0446 16.7454C18.9634 16.7246 19.9303 16.7558 20.7734 17.0628C21.639 17.378 22.3653 17.9808 22.789 19.0593L22.838 19.1904C23.0783 19.8636 23.2432 20.8025 23.3452 21.8526C23.4548 22.981 23.4944 24.2676 23.4675 25.5502C23.4407 26.8327 23.3472 28.118 23.1883 29.2437C23.0306 30.361 22.8047 31.3508 22.5002 32.0242C21.6755 33.8467 19.7707 34.7358 17.8135 35.2901C16.8243 35.5702 15.7896 35.7731 14.8259 35.9609C13.854 36.1504 12.9621 36.3232 12.2268 36.5443L11.7416 36.6901L11.8598 17.449L18.0112 16.7476L18.0278 16.7458L18.0446 16.7454ZM20.5204 17.7835C19.8214 17.529 18.9809 17.4904 18.0778 17.5102L12.6068 18.1339L12.4991 35.6758C13.1669 35.5039 13.917 35.3587 14.6847 35.2091C15.6528 35.0204 16.6576 34.8229 17.6123 34.5526C19.5427 34.0059 21.1435 33.1936 21.8177 31.7039C22.0757 31.1332 22.2898 30.2322 22.4447 29.1347C22.5985 28.0455 22.6902 26.7918 22.7165 25.534C22.7429 24.2761 22.7037 23.0206 22.5976 21.9281C22.4907 20.8272 22.3183 19.9208 22.0915 19.3439C21.7546 18.4865 21.2013 18.0315 20.5204 17.7835Z" fill="url(#paint7_linear_659_320)"/>
<path d="M103.558 13.1504L101.918 15.6161L103.562 13.1569C103.562 13.1569 103.56 13.1536 103.558 13.1504Z" fill="url(#paint8_linear_659_320)"/>
<path d="M103.558 13.1504L101.918 15.6161L103.562 13.1569C103.562 13.1569 103.56 13.1536 103.558 13.1504Z" fill="url(#paint9_linear_659_320)"/>
<path d="M114.059 21.0673C108.925 21.0673 104.609 18.9067 101.944 15.6676L101.268 16.843L100.493 18.189L100.079 18.9086L98.7427 21.236L97.6868 23.0689L95.5843 19.4071L91.6597 12.5721L90.074 9.816L88.5861 7.22477L86.8269 4.16223C83.4007 4.19908 79.9709 4.12926 76.5466 4.16223L70.6855 4.10986L78.7525 17.1999L86.4632 29.7099L90.3693 36.0522L95.1265 36.0891L104.868 36.1647L106.662 33.2341L114.247 21.0615C114.184 21.0615 114.124 21.0654 114.061 21.0654L114.059 21.0673Z" fill="url(#paint10_linear_659_320)"/>
<path d="M72.43 5.1203L76.5392 5.15715H76.5484H76.5576C77.1945 5.15134 77.872 5.14746 78.6307 5.14746C79.6183 5.14746 80.6225 5.15328 81.5954 5.15715C82.57 5.16297 83.5779 5.16685 84.5692 5.16685C85.1913 5.16685 85.7617 5.16491 86.2989 5.16103L87.7794 7.73853L89.2673 10.3296L90.853 13.0836L94.7776 19.9162L96.8801 23.5778L97.6868 24.9839L98.4954 23.5798L99.5513 21.7451L100.888 19.4178L101.301 18.6982L102.077 17.3523L102.112 17.2902C104.779 19.9996 108.466 21.6617 112.536 21.9933L105.868 32.6951L104.355 35.1679L95.132 35.0961L90.8844 35.0631L87.2533 29.1692L79.5426 16.6599L72.4282 5.11643M70.6855 4.1118L78.7525 17.201L86.4632 29.7103L90.3693 36.0522L95.1265 36.0891L104.868 36.1647L106.662 33.2342L114.247 21.0624C114.184 21.0624 114.124 21.0663 114.061 21.0663C108.927 21.0663 104.611 18.9058 101.946 15.6669L101.27 16.8422L100.495 18.1882L100.081 18.9077L98.7446 21.235L97.6887 23.0678L95.5861 19.4061L91.6615 12.5716L90.0758 9.81566L88.588 7.22458L86.8287 4.16223C86.0756 4.16998 85.3224 4.17386 84.5692 4.17386C82.5903 4.17386 80.6096 4.15253 78.6307 4.15253C77.9366 4.15253 77.2425 4.15447 76.5484 4.16223L70.6874 4.10986L70.6855 4.1118Z" fill="url(#paint11_linear_659_320)"/>
<path d="M110.51 4.68364C110.64 4.69378 110.867 4.98569 111.133 4.87014C111.353 4.66337 109.664 4.10184 110.512 4.10995C111.535 4.11806 112.986 4.60661 113.899 5.05867L113.984 4.49512C114.347 4.23564 116.07 5.74183 116.417 6.07024C116.637 6.27701 116.696 6.73312 116.891 6.8953C117.142 7.1041 119.091 7.39196 118.499 7.89875C118.434 7.95349 118.198 7.76901 118.262 8.08525C118.599 8.21702 119.139 8.35284 119.17 8.74814C119.29 10.2503 118.061 9.20629 117.281 9.20629C116.652 9.20629 116.194 9.59551 115.587 9.59753L117.011 8.46231C117.061 8.14607 116.573 8.25148 116.39 8.27581C114.152 8.55961 113.581 11.4929 110.684 11.5071L109.17 11.1139C110.997 11.1767 112.697 10.5422 113.624 8.84342C112.291 9.62186 111.292 10.1935 109.697 9.88539C109.508 9.8489 109.122 9.8712 109.168 9.60159C109.717 9.62794 110.205 9.62186 110.741 9.46577C111.056 9.37252 111.204 9.52455 111.126 9.03398C109.756 9.25697 107.807 9.52658 106.85 8.27784C108.955 8.77044 110.503 8.18256 111.483 6.10064L109.88 6.19389L110.237 5.63034H108.275C108.244 6.3358 108.456 6.98652 108.987 7.42642C108.229 7.99403 107.201 5.16611 107.391 4.88433C107.55 4.90461 107.767 4.68364 107.829 4.68364C108.695 4.68364 109.654 4.61877 110.503 4.68364H110.51ZM113.272 6.95206H115.946L115.408 6.19592H115.236C115.308 6.7311 114.909 6.57906 114.52 6.57095L114.875 6.28917C114.689 5.8067 113.376 6.0601 112.916 6.00739L113.805 6.38648L113.271 6.95206H113.272Z" fill="#473517"/>
<path d="M108.052 3.28809C107.733 3.72114 107.09 3.85509 106.671 4.22208C105.098 5.5928 105.048 8.67003 106.262 10.2903C107.517 11.9638 110.266 13.1106 111.33 14.5401C111.821 15.1988 112.181 16.9861 110.916 16.2741C109.52 15.4888 105.339 11.984 104.5 10.672C102.374 7.34336 103.993 3.41103 108.052 3.28809Z" fill="#473517"/>
<path d="M113.93 11.5165C113.933 12.2096 113.429 12.7385 113.725 13.4245C114.186 14.4893 114.973 14.4317 115.889 14.8559C115.953 15.1684 114.482 16.6993 113.932 16.3991C113.83 16.2053 114.641 16.1931 114.258 15.912C114.197 15.8666 113.899 15.94 113.767 15.9103L114.092 14.9362L113.28 15.7497C113.476 14.7599 112.42 14.4073 112.067 13.7824C111.908 13.5013 111.568 12.529 111.971 12.3318L112.46 13.4699L112.628 12.0071C112.911 11.9495 112.697 12.8886 113.114 12.4941C113.212 12.3998 113.33 11.3856 113.932 11.5183L113.93 11.5165Z" fill="#473517"/>
<path d="M117.396 6.5937C117.912 7.00042 119.62 6.9217 119.924 7.51585C120.167 7.99191 119.776 9.43511 119.528 9.92054C119.48 10.0143 118.241 11.4912 118.145 11.538C117.735 11.7461 117.678 10.451 117.501 10.3404C117.38 10.2635 116.577 10.2804 116.374 10.3198C115.329 10.5259 115.682 11.9972 115.397 12.7619L116.638 12.4133C116.374 13.7909 116.884 14.5069 115.923 15.6427C115.049 16.6754 113.852 17.039 112.556 17.3108L113.895 19.3988C116.621 24.613 112.374 29.3493 107.77 31.2329C109.451 28.4234 109.259 25.4358 107.058 22.8118C104.375 19.6143 99.9056 18.4822 98.4052 14.2014C96.5238 8.82972 99.2116 3.78416 104.784 2.3972C106.932 1.86303 108.893 2.26787 110.159 0C110.52 0.470443 110.745 2.03359 111.139 2.35597C111.868 2.95386 114.114 2.61462 115.123 3.85164C115.844 4.7363 116.459 5.84962 117.398 6.59183L117.396 6.5937ZM108.295 2.97448C104.108 3.10005 102.439 7.11663 104.631 10.5166C105.495 11.8567 109.808 15.4365 111.247 16.2387C112.551 16.966 112.179 15.1404 111.675 14.4675C110.579 13.0075 107.742 11.8361 106.448 10.1267C105.196 8.4736 105.248 5.32857 106.87 3.92848C107.302 3.55363 107.967 3.41681 108.295 2.97448ZM110.515 4.89749C109.67 4.83751 108.714 4.89749 107.853 4.89749C107.79 4.89749 107.575 5.10366 107.417 5.08304C107.227 5.34169 108.25 7.9563 109.005 7.43338C108.475 7.02666 108.263 6.42502 108.296 5.77277H110.25L109.894 6.29382L111.49 6.2076C110.515 8.13436 108.974 8.67603 106.877 8.22058C107.833 9.37513 109.773 9.12398 111.135 8.91968C111.212 9.37326 111.065 9.23269 110.752 9.3189C110.218 9.4651 109.732 9.47072 109.186 9.44448C109.138 9.69376 109.524 9.67314 109.712 9.70688C111.299 9.99364 112.295 9.4651 113.622 8.7435C112.7 10.3123 111.004 10.9008 109.187 10.8427L110.695 11.2063C113.58 11.1932 114.149 8.4811 116.376 8.2187C116.559 8.19808 117.045 8.09875 116.995 8.39114L115.577 9.44073C116.181 9.44073 116.638 9.079 117.264 9.079C118.042 9.079 119.265 10.0442 119.145 8.65541C119.114 8.28992 118.574 8.16435 118.241 8.04252C118.177 7.75013 118.412 7.92069 118.477 7.87009C119.066 7.40152 117.126 7.13537 116.875 6.94232C116.682 6.79238 116.623 6.37067 116.404 6.17949C116.056 5.87586 114.342 4.48327 113.981 4.72318L113.897 5.24423C112.985 4.82439 111.542 4.37456 110.524 4.36706C109.679 4.36144 111.362 4.88062 111.143 5.06992C110.877 5.17675 110.649 4.90686 110.522 4.89749H110.515ZM118.41 10.4903C118.891 9.40887 117.982 9.60379 117.172 9.61879L118.41 10.4903ZM113.619 11.017C112.965 10.8746 112.836 11.9635 112.729 12.0647C112.277 12.4883 112.51 11.4799 112.201 11.5418L112.019 13.1124L111.487 11.8904C111.049 12.1022 111.419 13.1462 111.592 13.4479C111.975 14.1189 113.123 14.4975 112.91 15.5602L113.793 14.6868L113.44 15.7327C113.584 15.7645 113.909 15.6877 113.974 15.7345C114.39 16.0363 113.508 16.0476 113.619 16.2575C114.217 16.5817 115.817 14.9361 115.747 14.6006C114.751 14.1433 113.895 14.207 113.394 13.0637C113.072 12.3271 113.62 11.7592 113.617 11.0151L113.619 11.017Z" fill="url(#paint12_linear_659_320)"/>
<path d="M118.277 10.6847L117.535 9.88388C118.02 9.87011 118.565 9.691 118.277 10.6847Z" fill="#473517"/>
<path d="M113.713 7.39775L114.147 6.43363L113.424 5.78743C113.798 5.88073 114.867 5.44533 115.019 6.26776L114.73 6.74809C115.046 6.76191 115.369 7.01763 115.312 6.1088H115.452L115.89 7.39429H113.714L113.713 7.39775Z" fill="url(#paint13_linear_659_320)"/>
<path d="M101.918 18.9043C101.918 18.9043 113.01 24.2294 108.029 31.2331C108.029 31.2331 110.043 25.2869 101.918 18.9043Z" fill="#010101"/>
<path d="M146.301 59.1763H140.963L138.088 56.6431L138.082 56.6378L139.59 55.2844L139.809 55.0881L140.746 54.2466C140.746 54.2466 140.748 54.2501 140.75 54.2518L143.135 56.3836L146.188 59.1132L146.301 59.1781V59.1763Z" fill="url(#paint14_linear_659_320)"/>
<path d="M146.302 48.4937C146.302 48.4937 135.749 58.4378 135.713 58.4715L134.96 59.1786H129.863L135.086 54.2305L141.218 48.4937H146.3H146.302Z" fill="url(#paint15_linear_659_320)"/>
<path d="M138.672 56.5918L137.136 58.1538L136.503 58.799L136.121 59.1786C136.121 59.1786 137.183 57.5123 137.183 56.5918C137.183 55.6714 136.832 54.7186 136.128 54.0031L130.686 48.4937H135.786L138.672 51.4145C140.079 52.8454 140.077 55.1627 138.672 56.5918Z" fill="url(#paint16_linear_659_320)"/>
<path d="M136.093 53.4269L134.795 54.8229C134.795 54.8229 137.752 55.2827 136.035 59.1782C136.035 59.1782 138.753 56.5199 136.093 53.4248V53.4269Z" fill="#010101"/>
</mask>
<g mask="url(#mask0_659_320)">
<rect x="-7" y="-8" width="210" height="73" fill="white"/>
</g>
<defs>
<linearGradient id="paint0_linear_659_320" x1="136.849" y1="41.9165" x2="136.849" y2="5.75328" gradientUnits="userSpaceOnUse">
<stop stop-color="#71706F"/>
<stop offset="1" stop-color="white"/>
</linearGradient>
<linearGradient id="paint1_linear_659_320" x1="116.714" y1="23.4239" x2="156.166" y2="23.4239" gradientUnits="userSpaceOnUse">
<stop stop-color="#FEEB8E"/>
<stop offset="0.03" stop-color="#F2DC80"/>
<stop offset="0.1" stop-color="#D5BA5F"/>
<stop offset="0.17" stop-color="#BFA045"/>
<stop offset="0.24" stop-color="#AF8D32"/>
<stop offset="0.32" stop-color="#A68127"/>
<stop offset="0.4" stop-color="#A37E24"/>
<stop offset="0.68" stop-color="#E9D263"/>
<stop offset="1" stop-color="#513516"/>
</linearGradient>
<linearGradient id="paint2_linear_659_320" x1="175.89" y1="51.7814" x2="175.89" y2="5.75383" gradientUnits="userSpaceOnUse">
<stop stop-color="#71706F"/>
<stop offset="1" stop-color="white"/>
</linearGradient>
<linearGradient id="paint3_linear_659_320" x1="158.631" y1="28.8424" x2="193.746" y2="28.8424" gradientUnits="userSpaceOnUse">
<stop stop-color="#FEEB8E"/>
<stop offset="0.03" stop-color="#F2DC80"/>
<stop offset="0.1" stop-color="#D5BA5F"/>
<stop offset="0.17" stop-color="#BFA045"/>
<stop offset="0.24" stop-color="#AF8D32"/>
<stop offset="0.32" stop-color="#A68127"/>
<stop offset="0.4" stop-color="#A37E24"/>
<stop offset="0.68" stop-color="#E9D263"/>
<stop offset="1" stop-color="#513516"/>
</linearGradient>
<linearGradient id="paint4_linear_659_320" x1="53.4257" y1="41.0964" x2="53.4257" y2="5.75391" gradientUnits="userSpaceOnUse">
<stop stop-color="#71706F"/>
<stop offset="1" stop-color="white"/>
</linearGradient>
<linearGradient id="paint5_linear_659_320" x1="36.9853" y1="23.0144" x2="69.8644" y2="23.0144" gradientUnits="userSpaceOnUse">
<stop stop-color="#FEEB8E"/>
<stop offset="0.03" stop-color="#F2DC80"/>
<stop offset="0.1" stop-color="#D5BA5F"/>
<stop offset="0.17" stop-color="#BFA045"/>
<stop offset="0.24" stop-color="#AF8D32"/>
<stop offset="0.32" stop-color="#A68127"/>
<stop offset="0.4" stop-color="#A37E24"/>
<stop offset="0.68" stop-color="#E9D263"/>
<stop offset="1" stop-color="#513516"/>
</linearGradient>
<linearGradient id="paint6_linear_659_320" x1="18.083" y1="50.1373" x2="18.083" y2="7.39713" gradientUnits="userSpaceOnUse">
<stop stop-color="#71706F"/>
<stop offset="1" stop-color="white"/>
</linearGradient>
<linearGradient id="paint7_linear_659_320" x1="0.000248302" y1="28.7687" x2="35.3413" y2="28.7687" gradientUnits="userSpaceOnUse">
<stop stop-color="#FEEB8E"/>
<stop offset="0.03" stop-color="#F2DC80"/>
<stop offset="0.1" stop-color="#D5BA5F"/>
<stop offset="0.17" stop-color="#BFA045"/>
<stop offset="0.24" stop-color="#AF8D32"/>
<stop offset="0.32" stop-color="#A68127"/>
<stop offset="0.4" stop-color="#A37E24"/>
<stop offset="0.68" stop-color="#E9D263"/>
<stop offset="1" stop-color="#513516"/>
</linearGradient>
<linearGradient id="paint8_linear_659_320" x1="71.5283" y1="14.3841" x2="119.372" y2="14.3841" gradientUnits="userSpaceOnUse">
<stop stop-color="#FEEB8E"/>
<stop offset="0.03" stop-color="#F2DC80"/>
<stop offset="0.1" stop-color="#D5BA5F"/>
<stop offset="0.17" stop-color="#BFA045"/>
<stop offset="0.24" stop-color="#AF8D32"/>
<stop offset="0.32" stop-color="#A68127"/>
<stop offset="0.4" stop-color="#A37E24"/>
<stop offset="0.68" stop-color="#E9D263"/>
<stop offset="1" stop-color="#513516"/>
</linearGradient>
<linearGradient id="paint9_linear_659_320" x1="101.916" y1="14.3841" x2="103.56" y2="14.3841" gradientUnits="userSpaceOnUse">
<stop stop-color="#513516"/>
<stop offset="0.32" stop-color="#E9D263"/>
<stop offset="0.6" stop-color="#A37E24"/>
<stop offset="0.68" stop-color="#A68127"/>
<stop offset="0.76" stop-color="#AF8D32"/>
<stop offset="0.83" stop-color="#BFA045"/>
<stop offset="0.9" stop-color="#D5BA5F"/>
<stop offset="0.97" stop-color="#F2DC80"/>
<stop offset="1" stop-color="#FEEB8E"/>
</linearGradient>
<linearGradient id="paint10_linear_659_320" x1="70.6837" y1="20.1402" x2="120.328" y2="20.1402" gradientUnits="userSpaceOnUse">
<stop stop-color="#FEEB8E"/>
<stop offset="0.03" stop-color="#F2DC80"/>
<stop offset="0.1" stop-color="#D5BA5F"/>
<stop offset="0.17" stop-color="#BFA045"/>
<stop offset="0.24" stop-color="#AF8D32"/>
<stop offset="0.32" stop-color="#A68127"/>
<stop offset="0.4" stop-color="#A37E24"/>
<stop offset="0.68" stop-color="#E9D263"/>
<stop offset="1" stop-color="#513516"/>
</linearGradient>
<linearGradient id="paint11_linear_659_320" x1="70.6855" y1="20.1392" x2="114.247" y2="20.1392" gradientUnits="userSpaceOnUse">
<stop stop-color="#513516"/>
<stop offset="0.32" stop-color="#E9D263"/>
<stop offset="0.6" stop-color="#A37E24"/>
<stop offset="0.68" stop-color="#A68127"/>
<stop offset="0.76" stop-color="#AF8D32"/>
<stop offset="0.83" stop-color="#BFA045"/>
<stop offset="0.9" stop-color="#D5BA5F"/>
<stop offset="0.97" stop-color="#F2DC80"/>
<stop offset="1" stop-color="#FEEB8E"/>
</linearGradient>
<linearGradient id="paint12_linear_659_320" x1="98.2635" y1="7.39027" x2="117.353" y2="21.5189" gradientUnits="userSpaceOnUse">
<stop stop-color="#FEEB8E"/>
<stop offset="0.02" stop-color="#F2DC80"/>
<stop offset="0.07" stop-color="#D5BA5F"/>
<stop offset="0.12" stop-color="#BFA045"/>
<stop offset="0.18" stop-color="#AF8D32"/>
<stop offset="0.23" stop-color="#A68127"/>
<stop offset="0.29" stop-color="#A37E24"/>
<stop offset="0.63" stop-color="#E9D263"/>
<stop offset="0.69" stop-color="#CAB253"/>
<stop offset="0.84" stop-color="#896F32"/>
<stop offset="0.94" stop-color="#60451D"/>
<stop offset="1" stop-color="#513516"/>
</linearGradient>
<linearGradient id="paint13_linear_659_320" x1="113.424" y1="6.57531" x2="115.888" y2="6.57531" gradientUnits="userSpaceOnUse">
<stop stop-color="#D0A82A"/>
<stop offset="0.41" stop-color="#CEA629"/>
<stop offset="0.56" stop-color="#C79F28"/>
<stop offset="0.68" stop-color="#BB9426"/>
<stop offset="0.77" stop-color="#A98523"/>
<stop offset="0.85" stop-color="#937120"/>
<stop offset="0.92" stop-color="#77571C"/>
<stop offset="0.99" stop-color="#573A17"/>
<stop offset="1" stop-color="#513516"/>
</linearGradient>
<linearGradient id="paint14_linear_659_320" x1="139.399" y1="55.5474" x2="144.673" y2="60.7745" gradientUnits="userSpaceOnUse">
<stop stop-color="#A37E24"/>
<stop offset="0.16" stop-color="#A78329"/>
<stop offset="0.37" stop-color="#B49238"/>
<stop offset="0.6" stop-color="#C9AC50"/>
<stop offset="0.84" stop-color="#E6CF73"/>
<stop offset="1" stop-color="#FEEB8E"/>
</linearGradient>
<linearGradient id="paint15_linear_659_320" x1="145.04" y1="47.6802" x2="132.199" y2="60.2899" gradientUnits="userSpaceOnUse">
<stop offset="0.1" stop-color="#C9B367"/>
<stop offset="0.15" stop-color="#BBA45A"/>
<stop offset="0.3" stop-color="#957D39"/>
<stop offset="0.38" stop-color="#876F2D"/>
<stop offset="0.48" stop-color="#8E722A"/>
<stop offset="0.77" stop-color="#9D7B25"/>
<stop offset="1" stop-color="#A37E24"/>
</linearGradient>
<linearGradient id="paint16_linear_659_320" x1="138.739" y1="56.6867" x2="130.81" y2="48.7438" gradientUnits="userSpaceOnUse">
<stop stop-color="#FEEB8E"/>
<stop offset="0.16" stop-color="#E6CF73"/>
<stop offset="0.4" stop-color="#C9AC50"/>
<stop offset="0.63" stop-color="#B49238"/>
<stop offset="0.84" stop-color="#A78329"/>
<stop offset="1" stop-color="#A37E24"/>
</linearGradient>
</defs>
</svg>
