<svg width="192" height="80" viewBox="0 0 192 80" fill="none" xmlns="http://www.w3.org/2000/svg">
<path d="M165.17 34.9432C161.961 35.6768 153.487 36.0844 153.487 36.0844L152.444 39.3993C152.444 39.3993 156.641 39.0461 159.712 39.345C159.712 39.345 160.7 39.2635 160.81 40.4319C160.864 41.6274 160.727 42.8773 160.727 42.8773C160.727 42.8773 160.645 43.611 159.63 43.8012C158.451 43.9914 150.497 44.3446 150.497 44.3446L149.208 48.6378C149.208 48.6378 148.742 49.6159 149.812 49.3442C150.799 49.0725 159.137 47.4965 160.234 47.7139C161.386 47.9856 162.702 49.5616 162.318 50.9745C161.879 52.6864 153.542 57.9577 148.495 57.6045C148.495 57.6045 145.835 57.7675 143.613 54.208C141.474 50.8115 144.354 44.4261 144.354 44.4261C144.354 44.4261 143.065 41.4372 144.025 40.3503C144.025 40.3503 144.573 39.8884 146.219 39.7526L148.276 35.5681C148.276 35.5681 145.944 35.704 144.573 34.0193C143.311 32.389 143.202 31.6825 144.189 31.2478C145.231 30.7043 154.885 28.9925 161.523 29.2099C161.523 29.2099 163.854 28.9382 165.911 32.9324C165.911 32.9324 166.843 34.5627 165.198 34.9432M140.157 51.0289C139.335 53.0124 137.058 55.1046 134.316 53.8276C131.518 52.5233 127.102 43.611 127.102 43.611C127.102 43.611 125.457 40.296 125.128 40.4047C125.128 40.4047 124.771 39.7526 124.579 43.3936C124.305 47.0074 124.634 54.0449 123.126 55.159C121.754 56.2459 120.109 55.7839 119.176 54.5069C118.408 53.2298 118.079 50.1594 118.518 44.8065C119.012 39.4537 120.246 33.7476 121.809 31.9814C123.455 30.1881 124.771 31.4923 125.265 31.9814C125.265 31.9814 127.377 33.8834 130.942 39.508L131.546 40.5405C131.546 40.5405 134.782 45.8934 135.111 45.8662C135.111 45.8662 135.385 46.1379 135.605 45.9206C135.934 45.8391 135.824 44.1001 135.824 44.1001C135.824 44.1001 135.221 38.3125 132.204 28.5306C132.204 28.5306 131.765 27.2807 132.067 26.0851C132.341 24.9983 133.52 25.5417 133.52 25.5417C133.52 25.5417 138.073 27.7154 140.295 35.0518C142.489 42.3882 141.008 49.0453 140.185 51.0289M117.832 32.1988C117.393 32.9596 117.201 34.0193 115.309 34.3182C115.309 34.3182 96.9333 35.5953 96.0282 36.8723C96.0282 36.8723 95.4249 37.6332 96.4122 37.8234C97.4544 38.0407 101.623 38.5842 103.598 38.6929C105.737 38.6929 112.923 38.7472 115.556 41.9535C115.556 41.9535 117.064 43.4751 117.009 46.9259C116.955 50.4583 116.324 51.7082 114.925 52.9852C113.471 54.1808 101.02 59.7239 92.9839 51.2462C92.9839 51.2462 89.3088 47.1705 94.273 44.0729C94.273 44.0729 97.8384 41.8991 106.971 44.4261C106.971 44.4261 109.714 45.4043 109.604 46.4097C109.44 47.4965 107.328 48.5834 104.256 48.5291C101.294 48.4476 99.1 47.0346 99.5388 47.2792C99.9502 47.415 96.3299 45.5402 95.2055 46.8172C94.1084 48.0128 94.3827 48.7193 95.4797 49.4529C98.2224 51.0289 109.001 50.4583 112.21 46.8988C112.21 46.8988 113.499 45.4586 111.552 44.2903C109.632 43.2034 104.037 42.5241 101.87 42.4426C99.8131 42.3339 92.1063 42.4426 90.9544 40.459C90.9544 40.459 89.8573 39.0461 91.0641 35.1877C92.3257 31.1119 101.294 29.536 105.189 29.2099C105.189 29.2099 115.885 28.7751 117.887 30.9489C117.887 30.9489 118.161 31.438 117.832 32.1716M87.4986 56.0828C86.2096 57.0338 83.4669 56.6263 82.6716 55.5394C81.9036 54.5884 81.6294 50.8387 81.7665 44.9424C81.9585 38.9102 82.0407 31.5195 83.4121 30.3239C84.7834 29.1556 85.6062 30.1881 86.1547 30.9761C86.7032 31.7912 87.4163 32.6879 87.526 34.5627C87.6906 36.4648 88.1568 46.2466 88.1568 46.2466C88.1568 46.2466 88.7602 55.159 87.526 56.0828M90.2413 24.2918C86.4564 25.5689 83.8783 25.1613 81.6842 24.2103C80.7243 25.9221 80.1483 26.4384 79.4352 26.5471C78.3382 26.6557 77.3783 24.9167 77.2411 24.3733C77.0217 23.9657 76.5006 23.2321 77.1314 21.5746C74.9922 19.6726 74.8276 17.1184 75.2116 15.4066C75.7052 13.3959 79.3255 5.84213 90.2961 4.94546C90.2961 4.94546 95.6717 4.56505 96.6042 7.39092H96.7688C96.7688 7.39092 101.98 7.39092 101.87 12.0101C101.87 16.6293 96.1105 22.3898 90.2413 24.3733M95.1232 11.1406C91.6674 11.6841 86.3467 16.2489 83.796 20.0258C87.718 20.7323 94.5746 20.4606 97.6464 14.3197C97.6464 14.3197 99.1 10.4613 95.1232 11.1406ZM79.9563 14.1295C78.8593 15.8957 78.8044 16.9554 79.3255 17.6619C80.6146 15.7598 82.891 12.7709 86.3193 10.4342C83.6863 10.7059 81.4648 11.7928 79.9563 14.1295ZM173.398 55.8926C170.875 62.0335 168.736 68.2558 167.502 77.5757C167.502 77.5757 167.227 79.3963 165.719 78.7985C164.21 78.255 161.742 75.8096 161.194 72.3588C160.645 67.8482 162.675 60.2401 166.816 51.4908C165.609 49.5888 164.759 46.7629 165.445 42.7958C165.445 42.7958 166.542 35.4594 173.947 28.8295C173.947 28.8295 174.824 28.0959 175.318 28.3404C175.922 28.6121 175.675 30.9489 175.181 32.1445C174.742 33.2857 171.451 38.9374 171.451 38.9374C171.451 38.9374 169.394 42.7958 169.97 45.8119C173.865 39.8884 182.723 27.8785 188.209 31.6825C191.692 34.128 191.692 42.0078 189.086 46.5727C187.029 50.1865 181.215 57.6588 173.453 55.9198M184.863 37.443C182.833 39.6167 179.213 43.7468 176.36 49.3442C179.377 49.0182 182.312 47.3607 183.217 46.5183C184.671 45.2413 188.017 41.7905 187.495 37.2256C187.495 37.2256 187.166 34.8345 184.863 37.443ZM61.992 59.0989C52.283 62.0335 43.1226 60.6749 38.131 59.3706C37.9938 61.3813 37.7744 62.2237 37.4453 62.5497C37.0613 62.9845 33.8799 64.7778 32.1246 62.2237C31.3566 61.0009 30.9727 58.8 30.7533 56.7893C19.5084 51.7353 14.2974 44.2903 14.1328 44.0185C13.8586 43.7468 11.3079 41.1112 13.8586 37.8505C16.2447 34.916 24.1435 31.9543 31.2195 30.7859C31.4938 24.8081 32.152 20.1889 33.0022 18.151C34.017 15.7055 35.306 17.8792 36.458 19.5096C37.3905 20.7323 37.9664 25.9764 38.0213 30.1609C42.6289 29.9435 45.4264 30.2696 50.5552 31.2478C57.3021 32.389 61.8 35.8127 61.4435 39.6711C61.1144 43.4751 57.6038 45.0511 56.2324 45.1598C54.8611 45.2684 52.667 44.2631 52.667 44.2631C51.1311 43.5566 52.5299 42.9045 54.3126 42.1437C56.2873 41.1927 55.8485 40.2417 55.8485 40.2417C55.1354 38.0679 46.3863 36.6278 37.6922 36.6278C37.6922 41.3829 37.8841 49.2627 38.0213 53.8547C44.1099 54.996 48.6627 54.7514 48.6627 54.7514C48.6627 54.7514 70.8782 54.1265 71.509 40.0786C72.1946 26.0036 49.2935 12.5264 32.4263 8.28759C15.5864 3.91293 6.04201 7.01052 5.21922 7.4181C4.31414 7.85284 5.13694 8.01588 5.13694 8.01588C5.13694 8.01588 6.04201 8.15173 7.6876 8.69517C9.33319 9.23861 8.01672 10.0538 8.01672 10.0538C5.13694 11.0319 1.92804 10.4613 1.29723 9.15709C0.666422 7.88002 1.70863 6.71163 2.94282 4.9998C4.09473 3.23363 5.4112 3.28798 5.4112 3.28798C26.2553 -3.91255 51.7071 8.99406 51.7071 8.99406C75.5133 20.8953 79.5724 34.8888 79.1335 40.3232C78.7496 45.676 76.6652 54.7242 61.992 59.1261M16.1898 39.6711C13.8311 40.7579 15.4767 42.4969 15.4767 42.4969C19.9198 47.1976 25.3502 50.1594 30.5613 52.0071C31.1647 43.8555 31.1098 40.9481 31.1098 36.8452C23.0464 37.3886 18.3839 38.6929 16.1898 39.6711Z" fill="white"/>
</svg>
