<svg width="201" height="60" viewBox="0 0 201 60" fill="none" xmlns="http://www.w3.org/2000/svg">
<path d="M86.1367 26.0413C86.1367 27.8537 86.8045 29.0938 87.2814 29.4754V29.8569H79.8887V29.4754C80.6518 28.5215 81.0811 27.2814 81.0334 26.0413V15.0715C81.0334 12.7822 79.5548 11.7806 77.7901 11.7806C75.5485 11.7806 73.5453 13.1161 73.5453 15.4054V26.0413C73.5453 27.8537 74.213 29.0938 74.69 29.4754V29.8569H67.345V29.4754C68.1081 28.5215 68.5374 27.2814 68.4897 26.0413V14.213C68.4897 11.9237 68.1558 10.9221 67.2019 10.779C67.1065 10.6836 67.0588 10.5882 67.0588 10.4452L72.7822 8.63275C73.2114 9.87281 73.4499 11.1606 73.4499 12.496C75.4531 10.2544 78.3148 8.72814 80.318 8.72814C83.132 8.72814 85.1351 10.159 86.1367 12.5914C88.0445 10.4928 90.9062 8.72814 92.9571 8.72814C97.8696 8.72814 99.0143 12.3529 99.0143 14.7854V27.7106C99.0143 28.3784 99.3959 28.9507 99.9682 29.2369V29.5231C99.3482 29.9046 98.442 30.1908 97.0588 30.1908C95.1033 30.1908 93.6248 29.1892 93.6248 27.2814V15.1192C93.6248 12.8299 92.0986 11.8283 90.3339 11.8283C88.1876 11.8283 86.1367 13.1638 86.1367 15.4531V26.0413ZM50.2226 18.9348C50.2226 24.6105 52.655 27.4722 56.7091 27.4722C58.9984 27.5199 61.2401 26.8045 63.1002 25.5167L63.4817 25.8983C62.5278 27.8537 59.8569 30.4769 55.5167 30.4769C48.2194 30.5246 44.8331 25.9936 44.8331 19.2687C44.8331 12.1145 49.841 8.53736 55.2782 8.53736C61.1924 8.53736 63.7679 11.9714 63.7679 16.9793C63.7679 18.3148 63.1479 18.9348 61.2878 18.9348H50.2226ZM5.34181 18.9348C5.34181 24.6105 7.77424 27.4722 11.8283 27.4722C14.1176 27.5199 16.407 26.8521 18.2671 25.5167L18.6486 25.8983C17.6948 27.8537 15.0238 30.4769 10.6359 30.4769C3.29094 30.5246 0 25.9936 0 19.2687C0 12.1145 4.91256 8.53736 10.3975 8.53736C16.407 8.53736 18.9348 11.9714 18.9348 16.9793C18.9348 18.3148 18.3148 18.9348 16.4547 18.9348H5.34181ZM108.983 18.8394C108.983 24.5151 111.463 27.4722 115.517 27.4722C117.854 27.5199 120.095 26.8045 122.003 25.469L122.385 25.9459C121.431 27.9014 118.665 30.5246 114.372 30.5246C106.979 30.5246 103.784 25.9936 103.784 19.2687C103.784 12.1145 108.553 8.53736 114.086 8.53736C120.095 8.53736 122.623 11.9714 122.623 16.9793C122.623 18.3148 122.003 18.8871 120.143 18.8871L108.983 18.8394ZM127.107 14.1653C127.107 11.876 126.773 10.8744 125.819 10.7313C125.723 10.6359 125.676 10.5405 125.676 10.3975L131.351 8.58506C132.019 9.77742 132.305 11.0652 132.353 12.4483C134.261 10.2067 136.789 8.68044 139.078 8.68044C143.943 8.68044 144.992 12.3052 144.992 14.7377V27.663C144.897 28.3307 145.326 28.9984 145.994 29.1892V29.4754C145.087 29.9523 144.086 30.1908 143.084 30.1431C141.129 30.1431 139.698 29.1415 139.698 27.2337V15.1192C139.698 12.8299 138.172 11.8283 136.312 11.8283C134.165 11.8283 132.114 13.1638 132.114 15.4531V26.089C132.114 27.9014 132.782 29.1415 133.259 29.5231V29.9046H125.866V29.5231C126.63 28.5692 127.059 27.3291 127.011 26.089L127.107 14.1653ZM197.933 15.0715C197.265 16.5501 196.645 18.1717 195.978 19.7933C194.022 24.6582 191.781 30.0477 189.3 34.1017C187.059 37.8696 184.769 40.2067 182.051 40.2067C180.048 40.2067 178.808 38.3943 178.426 36.6296L178.808 36.248C179.714 36.3911 180.668 36.5342 181.574 36.5819C184.483 36.5819 185.819 34.5787 187.774 31.0016C185.866 25.8983 183.672 20.2703 181.717 15.1669C181.622 14.9285 181.526 14.7377 181.431 14.4992C180.811 12.973 180.095 10.8744 178.808 10.2067V9.72973H186.153V10.1113C185.914 10.4452 185.771 10.8267 185.819 11.2083C185.914 12.3052 186.153 13.4022 186.534 14.4515L190.636 25.4213L194.261 16.3116C194.738 15.1669 194.976 13.9746 194.976 12.7345C194.976 11.4467 194.642 10.5882 193.879 10.159V9.68203H200.7V10.0636C200.175 10.779 199.078 12.4006 197.933 15.0715ZM40.3975 26.0413C40.3975 27.8537 41.0652 29.0938 41.5421 29.4754V29.8569H34.1971V29.4754C34.9603 28.5215 35.3895 27.2814 35.3418 26.0413V5.58029C35.3418 3.24324 35.0556 2.19396 34.1494 2.09857C34.0541 2.00318 34.0064 1.90779 34.0064 1.76471L39.5866 0C40.0636 0.715421 40.3975 1.90779 40.3975 3.57711V26.0413ZM28.4738 26.0413C28.4738 27.8537 29.1415 29.0938 29.6184 29.4754V29.8569H22.2258V29.4754C22.9889 28.5215 23.4181 27.2814 23.3704 26.0413V5.58029C23.3704 3.24324 23.0843 2.19396 22.1781 2.09857C22.0827 2.00318 22.035 1.90779 22.035 1.76471L27.663 0C28.1399 0.715421 28.4738 1.90779 28.4738 3.57711V26.0413ZM148.617 10.0159C152.337 9.82512 154.531 6.72496 155.246 3.52941H156.725V9.72973H161.494V11.0652H156.725V24.8013C156.725 26.8045 157.631 27.7583 159.348 27.7583C160.254 27.7583 161.161 27.4245 161.924 26.9475C162.019 27.0429 162.067 27.1383 162.21 27.2337C161.256 29.5707 159.062 30.3339 156.82 30.3339C153.72 30.3339 151.765 28.2353 151.765 25.2782V11.1129H148.665L148.617 10.0159ZM165.739 14.213C165.739 11.9237 165.358 10.9221 164.404 10.779C164.308 10.6836 164.261 10.5882 164.261 10.4452L169.65 8.77583C170.27 9.58665 170.795 11.0175 170.795 12.8776C172.273 10.5882 174.563 8.68044 176.995 8.68044C177.329 8.68044 177.663 8.72814 177.997 8.82353C177.854 10.4928 177.615 12.3052 177.472 14.0223H177.186C176.661 13.0207 175.612 12.3529 174.467 12.3529C172.512 12.2576 170.843 13.7361 170.747 15.6916C170.747 15.8347 170.747 15.93 170.747 16.0731V26.1367C170.747 27.9491 171.415 29.1892 171.892 29.5707V29.9523H164.499V29.5707C165.31 28.6169 165.739 27.3768 165.692 26.1367V14.213H165.739ZM12.6868 17.2178C13.6407 17.2178 13.9746 16.8839 13.9746 15.787C13.9746 13.2114 13.3068 10.0636 10.1113 10.0636C6.53418 10.0636 5.38951 14.3561 5.38951 17.2178H12.6868ZM116.375 17.1701C117.329 17.1701 117.663 16.8839 117.663 15.8347C117.663 13.2591 116.995 10.1113 113.8 10.1113C110.175 10.1113 109.03 14.3561 109.03 17.2178L116.375 17.1701ZM57.5676 17.1701C58.5215 17.1701 58.8553 16.8839 58.8553 15.8347C58.8553 13.2591 58.1876 10.1113 54.9921 10.1113C51.4149 10.1113 50.2703 14.3561 50.2703 17.2178L57.5676 17.1701Z" fill="white"/>
<path d="M43.1641 45.5962H44.261V50.2703H50.1752V45.5962H51.2722V56.4229H50.1752V51.3196H44.261V56.4229H43.1641V45.5962Z" fill="white"/>
<path d="M61.8131 52.8462C61.8131 53.3708 61.7177 53.8955 61.5269 54.3247C61.3362 54.754 61.0977 55.1832 60.7638 55.5171C60.43 55.8509 60.0484 56.1371 59.5715 56.2802C59.0945 56.471 58.6176 56.5664 58.0452 56.5664C57.4729 56.5664 56.9959 56.471 56.519 56.2802C56.042 56.0894 55.6605 55.8509 55.3266 55.5171C54.9928 55.1832 54.7066 54.8017 54.5635 54.3247C54.4204 53.8478 54.2773 53.3708 54.2773 52.8462C54.2773 52.3215 54.3727 51.7969 54.5635 51.3676C54.7543 50.9384 54.9928 50.5091 55.3266 50.1753C55.6605 49.8414 56.042 49.5552 56.519 49.4121C56.9959 49.2691 57.4729 49.126 58.0452 49.126C58.6176 49.126 59.0945 49.2214 59.5715 49.4121C60.0484 49.6029 60.43 49.8414 60.7638 50.1753C61.0977 50.5091 61.3839 50.8907 61.5269 51.3676C61.67 51.8446 61.8131 52.3215 61.8131 52.8462ZM60.7161 52.8462C60.7161 52.4646 60.6684 52.0831 60.5254 51.7492C60.3823 51.4153 60.2392 51.0815 60.0007 50.843C59.7622 50.6045 59.4761 50.366 59.1422 50.223C58.8083 50.0799 58.4268 49.9845 57.9975 49.9845C57.5683 49.9845 57.1867 50.0799 56.8529 50.223C56.519 50.366 56.2328 50.5568 55.9944 50.843C55.7559 51.0815 55.5651 51.4153 55.4697 51.7492C55.3266 52.0831 55.2789 52.4646 55.2789 52.8462C55.2789 53.2277 55.3266 53.6093 55.4697 53.9431C55.6128 54.277 55.7559 54.6109 55.9944 54.8493C56.2328 55.0878 56.519 55.3263 56.8529 55.4694C57.1867 55.6125 57.5683 55.7079 57.9975 55.7079C58.4268 55.7079 58.8083 55.6125 59.1422 55.4694C59.4761 55.3263 59.7622 55.1355 60.0007 54.8493C60.2392 54.6109 60.43 54.277 60.5254 53.9431C60.6207 53.6093 60.7161 53.2277 60.7161 52.8462Z" fill="white"/>
<path d="M64.3875 50.8427C64.3875 50.5565 64.3875 50.318 64.3875 50.0319C64.3875 49.7457 64.3398 49.5072 64.3398 49.221H65.4368V50.318H65.4845C65.723 49.8888 66.0569 49.6026 66.4861 49.3641C66.9154 49.1734 67.3446 49.0303 67.7739 49.0303C67.9647 49.0303 68.1554 49.0303 68.3939 49.078C68.6324 49.1257 68.8232 49.1734 69.0139 49.3164C69.2047 49.4118 69.3955 49.5549 69.5863 49.7457C69.777 49.9365 69.9201 50.1749 70.0155 50.5088C70.2063 50.0319 70.5402 49.698 70.9694 49.4118C71.3987 49.1257 71.8756 49.0303 72.3526 49.0303C73.2588 49.0303 73.9265 49.2687 74.4034 49.7457C74.8327 50.2226 75.0712 50.9381 75.0712 51.7966V56.3276H74.0696V52.1781C74.0696 51.4627 73.9265 50.8904 73.688 50.5088C73.4495 50.1273 72.9726 49.9365 72.2572 49.9365C71.8756 49.9365 71.5418 50.0319 71.3033 50.1749C71.0648 50.318 70.8263 50.5088 70.6832 50.7473C70.5402 50.9858 70.3971 51.2719 70.3494 51.5581C70.3017 51.892 70.254 52.1781 70.254 52.512V56.3276H69.2524V52.1781C69.2524 51.4627 69.1093 50.8904 68.8708 50.5088C68.6324 50.1273 68.1554 49.9365 67.44 49.9365C67.3923 49.9365 67.2492 49.9365 67.0108 49.9842C66.7723 50.0319 66.5815 50.1273 66.343 50.318C66.1046 50.5088 65.9138 50.795 65.723 51.1288C65.5322 51.5104 65.4368 51.9873 65.4368 52.6551V56.3276H64.3875V50.8427Z" fill="white"/>
<path d="M78.888 53.1322C78.9357 53.466 78.9834 53.8476 79.1265 54.1338C79.2695 54.4676 79.4603 54.7061 79.6988 54.9446C79.9373 55.1831 80.2234 55.3738 80.5096 55.4692C80.7958 55.6123 81.1296 55.66 81.5112 55.66C82.0358 55.66 82.5128 55.5169 82.8944 55.2784C83.2759 55.04 83.5621 54.7538 83.8006 54.4199L84.5637 55.04C84.1344 55.5646 83.6575 55.9462 83.1328 56.1846C82.6082 56.4231 82.0835 56.5185 81.4635 56.5185C80.9389 56.5185 80.4619 56.4231 79.985 56.2323C79.508 56.0416 79.1265 55.8031 78.8403 55.4692C78.5064 55.1354 78.268 54.7538 78.0772 54.2769C77.8864 53.7999 77.791 53.323 77.791 52.7983C77.791 52.2737 77.8864 51.749 78.0772 51.3198C78.268 50.8428 78.5064 50.4613 78.8403 50.1274C79.1742 49.7935 79.5557 49.5074 79.985 49.3643C80.4142 49.1735 80.8912 49.0781 81.4158 49.0781C81.9405 49.0781 82.4174 49.1735 82.8467 49.3643C83.2759 49.5551 83.6098 49.7935 83.9436 50.1274C84.2298 50.4613 84.4683 50.8428 84.6114 51.2721C84.7544 51.7013 84.8498 52.1783 84.8498 52.6552V53.1322H78.888ZM83.7052 52.2737C83.7052 51.6059 83.5144 51.0336 83.0851 50.6044C82.6559 50.1751 82.1312 49.9843 81.3681 49.9843C81.0343 49.9843 80.7481 50.032 80.4142 50.1751C80.1281 50.3182 79.8419 50.4613 79.6034 50.6997C79.3649 50.8905 79.1742 51.1767 79.0311 51.4152C78.888 51.7013 78.8403 51.9875 78.8403 52.2737H83.7052Z" fill="white"/>
<path d="M99.3966 53.8953L101.829 56.3754H100.255L98.7289 54.8492C98.2996 55.4215 97.8227 55.8985 97.298 56.2323C96.7734 56.5662 96.1534 56.7093 95.4379 56.7093C95.0087 56.7093 94.5794 56.6616 94.1502 56.5185C93.7209 56.3754 93.3871 56.1846 93.0532 55.8984C92.7193 55.6123 92.4809 55.3261 92.2901 54.9446C92.0993 54.563 92.0039 54.1337 92.0039 53.6568C92.0039 53.2752 92.0516 52.8937 92.1947 52.5598C92.3378 52.226 92.5285 51.9398 92.7193 51.7013C92.9578 51.4628 93.1963 51.2244 93.4824 50.9859C93.7686 50.7951 94.1025 50.6043 94.4363 50.4613C94.1025 50.1274 93.8163 49.7458 93.5778 49.3166C93.3394 48.8873 93.1963 48.4104 93.1963 47.9334C93.1963 47.5042 93.244 47.1703 93.3871 46.8364C93.5301 46.5026 93.7209 46.2641 93.9594 46.0256C94.1979 45.7872 94.484 45.6441 94.8179 45.5487C95.1518 45.4533 95.4856 45.3579 95.8672 45.3579C96.201 45.3579 96.5826 45.4056 96.8688 45.501C97.2026 45.5964 97.4411 45.7395 97.6796 45.9779C97.9181 46.2164 98.1088 46.4549 98.2519 46.7411C98.395 47.0272 98.4427 47.4088 98.4427 47.7903C98.4427 48.1242 98.395 48.4581 98.2519 48.7442C98.1088 49.0304 97.9181 49.2689 97.6796 49.5074C97.4411 49.7458 97.2026 49.9366 96.9165 50.1274C96.6303 50.3182 96.3441 50.4612 96.058 50.6043L98.5381 53.1799L100.017 50.6043H101.257L99.3966 53.8953ZM95.1995 51.0813C94.8656 51.2721 94.5317 51.4628 94.2933 51.6536C94.0548 51.8444 93.864 52.0352 93.6732 52.226C93.4824 52.4167 93.3871 52.6552 93.3394 52.846C93.2917 53.0845 93.244 53.3229 93.244 53.6091C93.244 53.8953 93.2917 54.1814 93.4347 54.4676C93.5778 54.7538 93.7209 54.9446 93.9117 55.1353C94.1025 55.3261 94.3409 55.4692 94.6271 55.5646C94.9133 55.66 95.1518 55.7077 95.4856 55.7077C95.7718 55.7077 96.058 55.66 96.2964 55.5646C96.5349 55.4692 96.7734 55.3738 96.9642 55.2307C97.1549 55.0876 97.3457 54.8969 97.5365 54.7061C97.7273 54.5153 97.9181 54.3245 98.0611 54.0861L95.1995 51.0813ZM97.4411 47.7426C97.4411 47.3134 97.298 46.9795 97.0119 46.6934C96.7257 46.4549 96.3918 46.3118 95.9626 46.3118C95.4856 46.3118 95.1041 46.4549 94.8179 46.7411C94.484 47.0272 94.341 47.4088 94.341 47.8857C94.341 48.0765 94.3886 48.2673 94.484 48.4581C94.5794 48.6488 94.6748 48.8396 94.7702 49.0304C94.8656 49.2212 95.0087 49.3643 95.1518 49.5074C95.2948 49.6504 95.3902 49.7458 95.4856 49.8412C95.6764 49.6981 95.9149 49.6027 96.1534 49.4597C96.3918 49.3166 96.5826 49.1735 96.8211 49.0304C97.0119 48.8873 97.2026 48.6965 97.298 48.4581C97.3934 48.2673 97.4411 48.0288 97.4411 47.7426Z" fill="white"/>
<path d="M117.283 47.5994C116.901 47.2179 116.472 46.884 115.947 46.6932C115.423 46.4548 114.85 46.3594 114.183 46.3594C113.467 46.3594 112.847 46.5024 112.323 46.7409C111.75 46.9794 111.321 47.3133 110.939 47.7425C110.558 48.1718 110.272 48.6487 110.081 49.221C109.89 49.7934 109.795 50.3657 109.795 50.9858C109.795 51.6058 109.89 52.1781 110.081 52.7505C110.272 53.3228 110.558 53.7997 110.939 54.229C111.321 54.6582 111.798 54.9921 112.323 55.2306C112.895 55.4691 113.515 55.6121 114.183 55.6121C114.755 55.6121 115.28 55.5644 115.804 55.4214C116.329 55.2783 116.758 55.0875 117.187 54.849V51.2242H114.612V50.2226H118.284V55.5168C117.664 55.8506 116.997 56.1368 116.281 56.3276C115.566 56.5183 114.85 56.6137 114.183 56.6137C113.372 56.6137 112.656 56.4707 111.941 56.1845C111.273 55.8983 110.653 55.5168 110.176 54.9921C109.652 54.4675 109.27 53.8951 108.984 53.1797C108.698 52.4643 108.555 51.7489 108.555 50.8904C108.555 50.0796 108.698 49.3164 108.984 48.601C109.27 47.8856 109.652 47.3133 110.176 46.7886C110.701 46.264 111.273 45.8824 111.941 45.5962C112.609 45.3101 113.372 45.167 114.183 45.167C115.041 45.167 115.804 45.3101 116.424 45.5486C117.044 45.787 117.617 46.1686 118.094 46.6455L117.283 47.5994Z" fill="white"/>
<path d="M123.054 46.502C123.054 46.6928 122.958 46.8836 122.815 47.0267C122.672 47.1698 122.481 47.2175 122.29 47.2175C122.1 47.2175 121.957 47.1698 121.766 47.0267C121.623 46.8836 121.527 46.6928 121.527 46.502C121.527 46.3113 121.623 46.1205 121.766 45.9774C121.909 45.8343 122.1 45.7866 122.29 45.7866C122.481 45.7866 122.624 45.8343 122.815 45.9774C122.958 46.1205 123.054 46.3113 123.054 46.502ZM122.815 56.4226H121.814V49.2683H122.815V56.4226Z" fill="white"/>
<path d="M129.348 50.1753H127.631V56.4233H126.63V50.1753H125.104V49.2691H126.63V47.3136C126.63 46.3597 126.868 45.692 127.297 45.3105C127.727 44.9289 128.299 44.6904 129.014 44.6904C129.158 44.6904 129.301 44.6904 129.444 44.7381C129.587 44.7858 129.73 44.7858 129.873 44.8335L129.682 45.7397C129.539 45.692 129.444 45.692 129.301 45.6443C129.158 45.6443 129.014 45.5966 128.919 45.5966C128.633 45.5966 128.442 45.6443 128.251 45.7397C128.061 45.8351 127.965 45.9782 127.87 46.1213C127.774 46.3121 127.727 46.5028 127.679 46.6936C127.631 46.9321 127.631 47.1706 127.631 47.409V49.2214H129.348V50.1753Z" fill="white"/>
<path d="M134.977 50.1745H132.926V54.3717C132.926 54.6578 132.974 54.8486 133.022 55.0394C133.069 55.2302 133.165 55.3255 133.212 55.4209C133.308 55.5163 133.403 55.564 133.546 55.6117C133.689 55.6594 133.832 55.6594 133.976 55.6594C134.166 55.6594 134.309 55.6117 134.5 55.564C134.691 55.5163 134.834 55.4686 135.025 55.3732L135.073 56.3271C134.691 56.5179 134.262 56.5656 133.737 56.5656C133.546 56.5656 133.356 56.5179 133.117 56.4702C132.926 56.4225 132.735 56.3271 132.545 56.1841C132.354 56.041 132.211 55.8502 132.115 55.6117C132.02 55.3732 131.925 55.0394 131.925 54.6578V50.1745H130.398V49.2683H131.925V47.2651H132.926V49.2683H134.977V50.1745Z" fill="white"/>
<path d="M138.554 46.502C138.554 46.6928 138.458 46.8836 138.315 47.0267C138.172 47.1698 137.981 47.2175 137.79 47.2175C137.6 47.2175 137.457 47.1698 137.266 47.0267C137.123 46.8836 137.027 46.6928 137.027 46.502C137.027 46.3113 137.123 46.1205 137.266 45.9774C137.409 45.8343 137.6 45.7866 137.79 45.7866C137.981 45.7866 138.124 45.8343 138.315 45.9774C138.506 46.1205 138.554 46.3113 138.554 46.502ZM138.363 56.4226H137.361V49.2683H138.363V56.4226Z" fill="white"/>
<path d="M142.513 49.2689C142.513 49.4597 142.561 49.6505 142.561 49.8412C142.561 50.032 142.561 50.2228 142.561 50.4136H142.609C142.704 50.2228 142.847 50.032 143.038 49.8889C143.229 49.7459 143.42 49.6028 143.61 49.4597C143.801 49.3643 144.04 49.2689 144.278 49.1735C144.516 49.1258 144.755 49.0781 144.993 49.0781C145.9 49.0781 146.567 49.3166 147.044 49.7935C147.474 50.2705 147.712 50.9859 147.712 51.8444V56.3754H146.71V52.4645C146.71 51.6536 146.567 51.0813 146.281 50.652C145.995 50.2228 145.518 50.032 144.755 50.032C144.707 50.032 144.564 50.032 144.326 50.0797C144.087 50.1274 143.849 50.2228 143.563 50.4136C143.324 50.6044 143.086 50.8905 142.847 51.2244C142.656 51.6059 142.561 52.0829 142.561 52.7506V56.4231H141.559V50.8428C141.559 50.6521 141.559 50.4136 141.559 50.1274C141.559 49.8412 141.512 49.5551 141.512 49.2689H142.513Z" fill="white"/>
<path d="M151.336 57.854C151.622 58.2355 152.003 58.5694 152.48 58.8079C152.957 59.0463 153.482 59.1894 154.054 59.1894C154.579 59.1894 155.008 59.094 155.342 58.9509C155.676 58.8079 155.962 58.6171 156.2 58.3309C156.439 58.0924 156.582 57.7586 156.677 57.4247C156.773 57.0908 156.82 56.7093 156.82 56.3277V55.04H156.773C156.439 55.5169 156.057 55.8985 155.58 56.0893C155.103 56.28 154.627 56.3754 154.102 56.3754C153.577 56.3754 153.1 56.28 152.623 56.0893C152.146 55.8985 151.765 55.66 151.431 55.3261C151.097 54.9923 150.811 54.6107 150.62 54.1815C150.429 53.7522 150.334 53.2276 150.334 52.7506C150.334 52.2737 150.429 51.749 150.62 51.3198C150.811 50.8905 151.049 50.4613 151.383 50.1274C151.717 49.7935 152.099 49.5074 152.528 49.3643C152.957 49.1735 153.434 49.0781 154.006 49.0781C154.197 49.0781 154.436 49.0781 154.674 49.1258C154.913 49.1735 155.151 49.2212 155.39 49.3166C155.628 49.412 155.867 49.5551 156.105 49.7459C156.344 49.9366 156.534 50.1274 156.773 50.4136H156.82V49.2212H157.822V56.28C157.822 56.6616 157.774 57.0908 157.679 57.5201C157.584 57.9493 157.393 58.3786 157.107 58.7125C156.82 59.094 156.439 59.3802 155.962 59.6187C155.485 59.8571 154.817 60.0002 154.006 60.0002C153.291 60.0002 152.671 59.9048 152.099 59.6664C151.526 59.4279 151.049 59.094 150.572 58.5694L151.336 57.854ZM151.526 52.7506C151.526 53.1322 151.574 53.466 151.717 53.7999C151.86 54.1338 152.051 54.4199 152.289 54.6584C152.528 54.8969 152.814 55.0877 153.148 55.2307C153.482 55.3738 153.816 55.4692 154.197 55.4692C154.579 55.4692 154.913 55.4215 155.247 55.2784C155.58 55.1354 155.867 54.9446 156.105 54.7061C156.344 54.4676 156.534 54.1815 156.677 53.8476C156.82 53.5137 156.868 53.1322 156.868 52.7029C156.868 52.3214 156.82 51.9875 156.677 51.6536C156.534 51.3198 156.391 51.0336 156.153 50.7951C155.914 50.5567 155.628 50.3659 155.294 50.2228C154.96 50.0797 154.579 49.9843 154.15 49.9843C153.768 49.9843 153.434 50.0797 153.1 50.2228C152.766 50.3659 152.48 50.5567 152.242 50.7951C152.003 51.0336 151.813 51.3198 151.669 51.6536C151.574 52.0352 151.526 52.3691 151.526 52.7506Z" fill="white"/>
</svg>
