<svg width="157" height="64" viewBox="0 0 157 64" fill="none" xmlns="http://www.w3.org/2000/svg">
<mask id="mask0_659_352" style="mask-type:alpha" maskUnits="userSpaceOnUse" x="0" y="0" width="157" height="64">
<path d="M26.0305 4.90867L26.4625 2.09616C26.5361 1.6549 26.4073 1.21359 26.1133 0.873465C25.8282 0.53334 25.4054 0.34023 24.955 0.34023H7.87521C7.12144 0.34023 6.48727 0.882497 6.36766 1.6271L1.78062 30.6294C1.71623 31.0706 1.83585 31.5213 2.12991 31.8614C2.41498 32.2015 2.83782 32.4037 3.279 32.4037H7.22251C7.97646 32.4037 8.60147 31.8614 8.73025 31.1168L10.5043 19.8649H20.2761C21.0207 19.8649 21.6548 19.3226 21.7744 18.578L22.1789 16.1237C22.2431 15.6825 22.1237 15.2321 21.8295 14.892C21.5354 14.5428 21.1126 14.3494 20.662 14.3494H11.4419L12.6462 6.20496H24.5138C25.2859 6.19577 25.9203 5.66245 26.0305 4.90867ZM115.557 14.5886L115.437 14.5424C114.38 14.2206 113.149 14.0464 111.798 14.0464C109.6 14.0464 107.927 14.9377 106.833 16.7028C105.766 18.4402 105.214 20.3985 105.214 22.5127C105.214 23.8456 105.445 24.9668 105.904 25.84C106.382 26.7409 107.063 27.21 107.927 27.21C108.892 27.21 110.003 26.5846 111.245 25.362C112.459 24.167 113.57 22.7334 114.526 21.1154L115.557 14.5886ZM122.728 11.2519L119.593 31.1441C119.473 31.8979 118.838 32.4315 118.085 32.4315H115.76C115.345 32.4315 114.95 32.2657 114.664 31.9625C114.38 31.6682 114.223 31.2639 114.242 30.8502L114.334 28.3864L114.059 28.6898C114.048 28.699 113.158 29.6918 112.127 30.4916C110.593 31.6866 108.892 32.3301 108.709 32.4037C107.761 32.7529 106.742 32.9274 105.675 32.9274C103.33 32.9274 101.584 32.0909 100.307 30.3812C99.0382 28.6805 98.4031 26.4195 98.4031 23.6801C98.4031 22.2553 98.5496 20.8488 98.8265 19.5068C99.1105 18.1647 99.608 16.8041 100.315 15.4526C101.023 14.1106 101.915 12.9155 102.963 11.9135C104.002 10.9115 105.38 10.0932 107.043 9.46812C108.709 8.85222 110.61 8.5399 112.68 8.5399C115.225 8.5399 118.196 8.86169 121.505 9.51435C122.322 9.67982 122.856 10.4337 122.728 11.2519ZM139.384 8.76972C137.821 9.13741 136.295 10.0934 135.284 10.838C134.136 11.6837 132.49 13.4764 132.461 13.4948L132.186 13.7982L132.333 10.6356C132.352 10.2219 132.204 9.80828 131.909 9.50493C131.625 9.20157 131.221 9.03633 130.807 9.03633H128.462C127.709 9.03633 127.074 9.56941 126.956 10.3232L123.747 30.6661C123.684 31.1074 123.811 31.5486 124.096 31.8889C124.382 32.229 124.804 32.422 125.255 32.422H128.877C129.63 32.422 130.265 31.8797 130.383 31.1351L132.075 20.3062C133.04 18.9456 134.291 17.7782 135.808 16.8221C136.939 16.1143 138.096 15.6548 139.255 15.4802C139.89 15.3789 140.394 14.8922 140.514 14.2579L141.213 10.5346C141.313 10.029 141.149 9.51423 140.772 9.15572C140.423 8.79722 139.89 8.65939 139.384 8.76972ZM66.7069 18.9551C66.7069 17.6131 66.4687 16.4913 66.0083 15.6273C65.5302 14.7264 64.8599 14.2669 63.9955 14.2669C63.0306 14.2669 61.9087 14.883 60.6774 16.1147C59.4549 17.319 58.3506 18.7435 57.3857 20.3614L56.3567 26.8792L56.486 26.9159C57.5427 27.2468 58.7651 27.412 60.1252 27.412C62.332 27.412 64.0043 26.5206 65.0892 24.7557C66.1565 23.0274 66.7069 21.0785 66.7069 18.9551ZM71.6074 11.0952C72.8669 12.7958 73.5108 15.0575 73.5108 17.7877C73.5108 19.5893 73.262 21.3541 72.7752 23.0271C72.2865 24.7001 71.5156 26.3272 70.4766 27.8717C69.4464 29.3976 67.9576 30.6477 66.0453 31.567C64.1243 32.4954 61.8452 32.9738 59.2803 32.9738C58.2695 32.9738 56.9905 32.8727 55.4833 32.6614L55.3272 32.6429L55.0513 35.4006C55.0421 35.4283 55.0421 35.4555 55.0421 35.4923L54.2425 40.3367C54.1137 41.0722 53.4885 41.6056 52.7439 41.6056H49.1497C48.6993 41.6056 48.2857 41.4124 48.0006 41.0723C47.7065 40.7322 47.5778 40.2907 47.6513 39.8403L52.3396 10.3232C52.4591 9.5786 53.0934 9.04531 53.8472 9.04531H56.1729C56.5866 9.04531 56.9905 9.21078 57.2763 9.50493C57.5603 9.80828 57.7173 10.2127 57.6997 10.6172L57.6062 13.1178L57.8831 12.7686C57.9096 12.741 60.1252 10.0474 63.5175 8.98112C64.4559 8.68696 65.3556 8.5399 66.2658 8.5399C68.5732 8.54909 70.3302 9.37621 71.6074 11.0952ZM155.47 9.03633H152.639L153.265 4.99171C153.328 4.55047 153.2 4.09997 152.916 3.76903C152.63 3.42891 152.198 3.2358 151.757 3.2358H148.897C148.227 3.2358 147.629 3.67698 147.436 4.32964L146.048 9.03633H144.485C143.732 9.03633 143.107 9.56962 142.988 10.3142L142.629 12.5019C142.564 12.9432 142.675 13.3935 142.979 13.7336C143.263 14.0737 143.686 14.2669 144.136 14.2669H145.083L143.391 25.0954C143.271 25.7756 143.208 26.4837 143.208 27.2283C143.208 29.1495 143.713 30.5468 144.762 31.5028C145.791 32.4405 147.362 32.9274 149.449 32.9274C150.7 32.9274 152.464 32.4037 152.676 32.3301C152.841 32.2657 153.154 32.1648 153.191 32.1465C153.256 32.1189 153.32 32.0911 153.374 32.0634C153.815 31.8244 154.101 31.3925 154.156 30.9055L154.422 28.6625C154.468 28.1936 154.304 27.7154 153.955 27.3936C153.852 27.3017 153.752 27.2193 153.632 27.1458C153.549 27.1091 153.476 27.0719 153.394 27.0443C153.337 27.026 153.2 26.9983 152.658 27.0075C152.529 27.0075 152.392 27.017 152.254 27.017C152.005 27.017 151.848 27.0075 151.765 26.9891C151.554 26.9524 151.03 26.8422 150.763 26.6031C150.635 26.4929 150.239 26.1436 150.239 24.8566C150.239 24.728 150.25 24.535 150.285 24.2593L151.839 14.2762H155.048C155.773 14.2762 156.408 13.7614 156.546 13.0536L156.969 10.8654C157.061 10.415 156.941 9.95568 156.646 9.60637C156.362 9.23867 155.93 9.03633 155.47 9.03633ZM97.851 9.65216C97.567 9.26606 97.1066 9.03633 96.6285 9.03633H92.8411C92.1708 9.03633 91.5728 9.48692 91.3805 10.1212C91.0577 11.2243 90.4526 12.4925 89.56 13.9082C88.3199 15.903 87.2985 17.135 86.4341 17.6866L86.2965 17.7508C85.9931 17.9071 85.5151 18.1366 83.8427 18.4309L83.6311 18.4676L86.2507 2.09616C86.3159 1.6549 86.196 1.2044 85.9014 0.873465C85.6174 0.53334 85.194 0.330811 84.753 0.330811H81.1314C80.3764 0.330811 79.7431 0.873518 79.6232 1.61812L75.0173 30.6756C74.9432 31.1168 75.0719 31.5582 75.3577 31.8983C75.6435 32.2384 76.0739 32.4405 76.5167 32.4405H80.1383C80.8915 32.4405 81.5266 31.8983 81.6447 31.1537L82.832 23.5787H85.1023L88.2264 31.4754C88.4575 32.0637 89.0184 32.4405 89.6429 32.4405H93.5767C94.4129 32.4405 95.1026 31.7601 95.1026 30.9143C95.1026 30.7121 95.0567 30.501 94.9738 30.308L91.3981 21.0877L91.4722 21.0235C92.9522 19.6906 94.4693 17.7967 95.9864 15.416C96.969 13.8716 97.6675 12.3823 98.0821 11.0126C98.2285 10.5346 98.1368 10.0382 97.851 9.65216ZM45.4084 7.03219C46.9159 7.03219 48.0467 6.64609 48.7636 5.86473C49.4898 5.07418 49.8484 4.09998 49.8484 2.86817C49.8484 1.91215 49.5817 1.19528 49.0395 0.717277C48.5062 0.239257 47.679 0 46.5758 0C45.0682 0 43.9375 0.395304 43.2298 1.16748C42.4943 1.95803 42.1359 2.94164 42.1359 4.17344C42.1359 5.12946 42.4116 5.84656 42.9449 6.31537C43.4963 6.80258 44.2961 7.03219 45.4084 7.03219ZM46.631 9.03633H43.046C42.2922 9.03633 41.667 9.56962 41.5384 10.3142L38.3301 30.6661C38.2658 31.1074 38.3854 31.558 38.6794 31.8889C38.9645 32.229 39.3873 32.422 39.8285 32.422H43.4136C44.1673 32.422 44.7925 31.8797 44.9211 31.1351L48.1294 10.7922C48.1938 10.351 48.0742 9.9005 47.7801 9.56957C47.495 9.23863 47.0814 9.03633 46.631 9.03633ZM36.2618 0.873465C36.5469 1.21359 36.6847 1.6549 36.6111 2.09616L33.0812 24.6179C33.0444 25.0039 33.0352 25.2425 33.0352 25.3988C33.0352 26.1526 33.1823 26.6767 33.4672 26.9434C33.7339 27.1916 34.3222 27.3294 34.4233 27.3477C34.7451 27.3938 35.0483 27.5594 35.2782 27.7985C35.5816 28.1202 35.7379 28.5611 35.701 29.0022L35.4989 31.0247C35.4528 31.4569 35.269 31.8152 35.0025 32.0082C34.7543 32.1736 34.4508 32.3303 34.0649 32.4772C33.6787 32.6243 32.594 32.9369 31.8402 32.9369C29.9374 32.9369 28.4665 32.4956 27.4645 31.6222C26.4717 30.7582 25.9662 29.4986 25.9662 27.8717C25.9662 27.4303 26.0122 26.9436 26.1041 26.4195C26.1316 26.199 29.9374 1.9031 29.9832 1.63652C30.1028 0.891934 30.7372 0.349209 31.491 0.349209H35.1127C35.5541 0.340019 35.9677 0.53334 36.2618 0.873465Z" fill="#2A55E5"/>
<path d="M140.554 48.5539C140.554 48.5539 142.828 49.6839 143.95 50.1636C145.04 50.6293 145.163 52.375 143.964 52.9645C142.762 53.5542 142.431 53.65 142.431 53.65C142.431 53.65 142.62 53.161 142.595 52.6884C142.517 51.8461 140.037 51.1627 138.393 50.758C138.393 50.758 137.132 46.7849 136.56 45.6781C135.987 44.5643 134.824 44.1011 134.824 44.1011L137.573 44.1385C137.573 44.1385 138.518 44.0915 138.938 45.1094C139.356 46.132 140.554 48.5539 140.554 48.5539Z" fill="url(#paint0_linear_659_352)"/>
<path d="M140.395 57.2575C140.395 57.2575 139.28 59.5132 138.79 60.6667C138.324 61.7618 136.551 61.8858 135.964 60.6808C135.376 59.4756 135.316 59.2627 135.316 59.2627C135.316 59.2627 135.671 59.3329 136.235 59.3071C137.075 59.23 137.795 56.7403 138.199 55.0907C138.199 55.0907 142.154 53.8225 143.26 53.2515C144.369 52.6759 144.828 51.5083 144.828 51.5083L144.791 54.679C144.791 54.679 144.839 55.2195 143.824 55.6406C142.807 56.0571 140.395 57.2575 140.395 57.2575Z" fill="url(#paint1_linear_659_352)"/>
<path d="M131.646 57.0987C131.646 57.0987 129.385 55.9753 128.251 55.4886C127.159 55.0231 127.035 53.2753 128.237 52.6879C129.436 52.0983 129.919 51.9907 129.919 51.9907C129.919 51.9907 129.607 52.4914 129.683 53.0553C129.762 53.8999 132.165 54.4895 133.804 54.8943C133.804 54.8943 135.113 58.844 135.637 59.9742C136.275 61.35 137.334 61.5608 137.334 61.5608L134.217 61.5139C134.217 61.5139 133.677 61.5606 133.257 60.5428C132.842 59.5204 131.646 57.0987 131.646 57.0987Z" fill="url(#paint2_linear_659_352)"/>
<path d="M131.833 48.3798C131.833 48.3798 132.951 46.1124 133.436 44.9706C133.9 43.8755 135.64 43.7537 136.227 44.9565C136.814 46.1615 136.871 46.3792 136.871 46.3792C136.871 46.3792 136.428 46.386 135.959 46.4118C135.117 46.4914 134.433 48.9016 134.031 50.5488C134.031 50.5488 130.086 51.8427 128.97 52.3878C127.433 53.1367 127.375 54.0961 127.375 54.0961L127.438 50.9628C127.438 50.9628 127.391 50.4225 128.405 50.0013C129.42 49.58 131.833 48.3798 131.833 48.3798Z" fill="url(#paint3_linear_659_352)"/>
<path d="M10.3853 59.3515H0L2.28073 44.9546H12.666L12.2384 47.7444H5.15188L4.68353 50.7581H10.813L10.3853 53.4257H4.25592L3.76728 56.5616H10.8333L10.3853 59.3515Z" fill="#9E9E9E"/>
<path d="M22.5334 59.3522H18.9494L17.4832 56.318L14.9174 59.3522H11.5371L16.0986 53.9965L13.3698 48.6206H16.9742L18.3996 51.777L21.0061 48.6206H24.2846L19.7231 53.9355L22.5334 59.3522Z" fill="#9E9E9E"/>
<path d="M31.8841 48.3965C32.9566 48.3965 33.7847 48.7902 34.3684 49.5777C34.9521 50.365 35.2441 51.3901 35.2441 52.6526C35.2441 53.4806 35.1287 54.2817 34.898 55.0554C34.6806 55.8157 34.3345 56.5486 33.8593 57.2546C33.3842 57.9606 32.7054 58.5307 31.8231 58.9652C30.9405 59.3861 29.9089 59.5964 28.7277 59.5964C28.2662 59.5964 27.6892 59.5489 26.9968 59.4538L26.8748 60.6553L26.4064 63.5062H23.25L25.6122 48.6205H28.0965L28.015 50.9012C29.0197 49.2314 30.3093 48.3965 31.8841 48.3965ZM30.8659 51.1253C30.4452 51.1253 29.9564 51.3968 29.3998 51.9397C28.8567 52.4829 28.368 53.1209 27.9335 53.8539L27.4856 56.7252C27.9607 56.8745 28.5038 56.9493 29.1147 56.9493C30.0922 56.9493 30.8184 56.5622 31.2935 55.7885C31.7823 55.0011 32.0266 54.1323 32.0266 53.182C32.0266 52.5847 31.9248 52.0959 31.7213 51.7159C31.5175 51.3221 31.2325 51.1253 30.8659 51.1253Z" fill="#9E9E9E"/>
<path d="M41.8444 56.7252L41.6001 59.128C40.8534 59.4266 40.0864 59.576 39.2991 59.576C38.4167 59.576 37.7379 59.3725 37.2627 58.9651C36.8012 58.5578 36.5703 57.9741 36.5703 57.2138C36.5703 57.0102 36.5908 56.7862 36.6315 56.5419L38.5252 44.4663H41.7019L39.9303 55.7477C39.9167 55.9105 39.91 56.0261 39.91 56.0938C39.91 56.4196 39.9643 56.637 40.0728 56.7454C40.1951 56.8541 40.4327 56.9084 40.7857 56.9084C41.0707 56.9084 41.4237 56.8472 41.8444 56.7252Z" fill="#9E9E9E"/>
<path d="M47.8615 59.5556C46.3954 59.5286 45.255 59.1349 44.4405 58.3746C43.6259 57.6145 43.2188 56.5486 43.2188 55.1776C43.2188 53.1684 43.7889 51.5393 44.9292 50.2904C46.0832 49.0278 47.6172 48.3965 49.5314 48.3965C51.0518 48.3965 52.2261 48.7766 53.0542 49.5369C53.896 50.2837 54.3167 51.356 54.3167 52.7544C54.3167 54.8314 53.7465 56.4876 52.6063 57.723C51.4658 58.9447 49.8843 59.5556 47.8615 59.5556ZM48.2076 56.9085C49.1038 56.9085 49.8164 56.5758 50.3458 55.9106C50.8754 55.232 51.14 54.3087 51.14 53.1412C51.14 51.7295 50.536 51.0235 49.3276 51.0235C48.4452 51.0235 47.7326 51.356 47.1896 52.0212C46.6465 52.6865 46.375 53.6165 46.375 54.8111C46.375 55.5306 46.5244 56.06 46.823 56.3994C47.1353 56.7252 47.5967 56.8949 48.2076 56.9085Z" fill="#9E9E9E"/>
<path d="M55.293 59.3521L56.9829 48.6205H59.4879L59.3661 51.2068C60.4651 49.3334 61.8358 48.3965 63.4799 48.3965H63.6616L63.0512 51.6344C62.3597 51.6344 61.6735 51.8515 60.9944 52.286C60.3152 52.7067 59.7595 53.2227 59.3256 53.8336L58.47 59.3521H55.293Z" fill="#9E9E9E"/>
<path d="M74.1875 51.6342C74.0781 54.132 72.2117 55.381 68.5866 55.381C68.0715 55.381 67.5688 55.3607 67.0801 55.3199C67.1472 55.9444 67.3659 56.3923 67.7311 56.664C68.1121 56.9355 68.756 57.0711 69.6662 57.0711C70.7387 57.0711 71.8448 56.8742 72.9861 56.4807L72.4975 59.0668C71.3562 59.4198 70.1337 59.5962 68.8318 59.5962C67.0113 59.5962 65.7148 59.2093 64.9421 58.4356C64.1818 57.6617 63.8008 56.5417 63.8008 55.0756C63.8008 53.202 64.3582 51.6273 65.4713 50.3512C66.5985 49.0751 68.1121 48.437 70.012 48.437C71.4373 48.437 72.4904 48.729 73.1678 49.3127C73.847 49.8828 74.1875 50.6567 74.1875 51.6342ZM67.2424 53.3243C67.3783 53.3515 67.5952 53.365 67.8951 53.365C69.9714 53.365 71.0104 52.8831 71.0104 51.9192C71.0104 51.607 70.9081 51.3558 70.7052 51.1658C70.5006 50.9621 70.1954 50.8603 69.7879 50.8603C69.137 50.8603 68.5937 51.0776 68.1597 51.5119C67.7381 51.9464 67.4329 52.5504 67.2424 53.3243Z" fill="#9E9E9E"/>
<path d="M83.1268 59.3515H79.8086L82.0895 44.9546H87.9938C89.8001 44.9546 91.0685 45.2871 91.8023 45.9523C92.5485 46.6176 92.9225 47.5543 92.9225 48.7624C92.9225 49.3733 92.8678 49.9436 92.7602 50.473C92.6508 50.9888 92.448 51.5184 92.1481 52.0614C91.8641 52.5908 91.483 53.0455 91.0085 53.4257C90.5463 53.7923 89.9289 54.0978 89.1545 54.3421C88.3818 54.5728 87.4857 54.6882 86.4679 54.6882H83.8818L83.1268 59.3515ZM84.2875 52.0614H86.5896C88.5177 52.0614 89.4808 51.145 89.4808 49.3123C89.4808 48.7422 89.3185 48.3146 88.9922 48.0295C88.6658 47.7308 88.1031 47.5814 87.3022 47.5814H85.0002L84.2875 52.0614Z" fill="#FFC200"/>
<path d="M98.6221 56.7252L98.3787 59.128C97.6307 59.4266 96.8634 59.576 96.0766 59.576C95.1946 59.576 94.5154 59.3725 94.0409 58.9651C93.5787 58.5578 93.3477 57.9741 93.3477 57.2138C93.3477 57.0102 93.3688 56.7862 93.4094 56.5419L95.3022 44.4663H98.4792L96.7082 55.7477C96.694 55.9105 96.687 56.0261 96.687 56.0938C96.687 56.4196 96.7417 56.637 96.851 56.7454C96.9728 56.8541 97.2109 56.9084 97.5637 56.9084C97.8477 56.9084 98.2005 56.8472 98.6221 56.7252Z" fill="#FFC200"/>
<path d="M111.318 48.6206L109.607 59.3522H107.123L107.204 57.0714C106.077 58.7413 104.632 59.5762 102.866 59.5762C101.917 59.5762 101.205 59.3114 100.728 58.782C100.254 58.2526 100.016 57.5467 100.016 56.6643C100.016 56.2977 100.044 55.9719 100.097 55.6868L101.238 48.6206H104.394L103.397 54.8927C103.355 55.0962 103.336 55.3134 103.336 55.5443C103.336 56.3452 103.621 56.7456 104.191 56.7456C104.639 56.7456 105.14 56.4946 105.698 55.9922C106.255 55.49 106.777 54.8586 107.266 54.0985L108.141 48.6206H111.318Z" fill="#FFC200"/>
<path d="M111.77 59.0467L112.32 56.3994C112.415 56.5081 112.842 56.6437 113.602 56.8067C114.363 56.956 115.075 57.0306 115.74 57.0306C117.113 57.0306 117.797 56.6912 117.797 56.0126C117.797 55.7681 117.621 55.5712 117.268 55.422C116.929 55.2725 116.508 55.1505 116.005 55.0554C115.516 54.9467 115.021 54.8111 114.52 54.6481C114.031 54.4717 113.609 54.1797 113.257 53.7726C112.918 53.3517 112.747 52.8223 112.747 52.1842C112.747 50.9623 113.19 50.0256 114.072 49.3739C114.954 48.7223 116.284 48.3965 118.062 48.3965C118.646 48.3965 119.216 48.4372 119.773 48.5187C120.329 48.5866 120.75 48.6613 121.036 48.7428C121.334 48.8243 121.525 48.892 121.606 48.9463L121.077 51.5121C120.846 51.3629 120.424 51.2339 119.814 51.1253C119.203 51.0166 118.612 50.9623 118.042 50.9623C116.629 50.9623 115.924 51.2881 115.924 51.9397C115.924 52.1707 116.093 52.3539 116.434 52.4896C116.786 52.6254 117.206 52.7475 117.695 52.8562C118.185 52.9512 118.674 53.0869 119.163 53.2635C119.664 53.4263 120.085 53.7182 120.424 54.139C120.777 54.5463 120.953 55.069 120.953 55.707C120.953 57.0239 120.479 57.9945 119.528 58.6189C118.591 59.2434 117.302 59.5556 115.659 59.5556C115.035 59.5556 114.403 59.5151 113.766 59.4336C113.128 59.3521 112.646 59.2774 112.32 59.2095C112.008 59.128 111.824 59.0737 111.77 59.0467Z" fill="#FFC200"/>
</mask>
<g mask="url(#mask0_659_352)">
<rect x="-9" y="-4" width="172" height="74" fill="white"/>
</g>
<defs>
<linearGradient id="paint0_linear_659_352" x1="134.882" y1="44.0418" x2="143.96" y2="53.0871" gradientUnits="userSpaceOnUse">
<stop offset="0.0411" stop-color="#FFF300"/>
<stop offset="0.2727" stop-color="#FFF300"/>
<stop offset="0.5022" stop-color="#FFE500"/>
<stop offset="0.8126" stop-color="#F2A930"/>
</linearGradient>
<linearGradient id="paint1_linear_659_352" x1="135.847" y1="60.6818" x2="144.941" y2="51.621" gradientUnits="userSpaceOnUse">
<stop offset="0.1874" stop-color="#F2A930"/>
<stop offset="0.4978" stop-color="#FFE500"/>
<stop offset="0.7273" stop-color="#FFF300"/>
<stop offset="0.9589" stop-color="#FFF300"/>
</linearGradient>
<linearGradient id="paint2_linear_659_352" x1="128.251" y1="52.5529" x2="137.312" y2="61.5822" gradientUnits="userSpaceOnUse">
<stop offset="0.1874" stop-color="#F2A930"/>
<stop offset="0.4978" stop-color="#FFE500"/>
<stop offset="0.7273" stop-color="#FFF300"/>
<stop offset="0.9589" stop-color="#FFF300"/>
</linearGradient>
<linearGradient id="paint3_linear_659_352" x1="127.326" y1="54.0474" x2="136.398" y2="45.0083" gradientUnits="userSpaceOnUse">
<stop offset="0.0411" stop-color="#FFF300"/>
<stop offset="0.2727" stop-color="#FFF300"/>
<stop offset="0.5022" stop-color="#FFE500"/>
<stop offset="0.8126" stop-color="#F2A930"/>
</linearGradient>
</defs>
</svg>
