<svg width="144" height="73" viewBox="0 0 144 73" fill="none" xmlns="http://www.w3.org/2000/svg">
<path d="M15.306 0.272815C16.259 0.45351 17.035 0.659007 17.6267 0.889305V6.66447H15.848C14.7958 6.66447 14.0871 6.86288 13.7258 7.25616C13.3644 7.64944 13.1837 8.32616 13.1837 9.27924V10.3174H17.6267V16.9818H13.1837V36.3871H3.35881V16.9854H0V10.3174H3.35881V9.22964C3.35881 5.87083 4.18079 3.49344 5.82831 2.09394C7.47228 0.69798 9.82486 0 12.8861 0C13.5451 0 14.3493 0.0921192 15.306 0.272815ZM19.7489 36.3906V0.591689H29.5738V36.3871H19.7489V36.3906Z" fill="white"/>
<path d="M56.1389 11.7264C58.6403 13.0586 59.891 15.2234 59.891 18.2208V28.3929C59.891 28.9527 60.022 29.4133 60.2842 29.7747C60.5464 30.1361 60.9432 30.3168 61.4676 30.3168H63.2462V35.9963C63.147 36.0636 62.8919 36.1699 62.4809 36.3187C62.0699 36.4675 61.4853 36.6163 60.7271 36.7616C59.9689 36.9104 59.0973 36.9848 58.1088 36.9848C56.1991 36.9848 54.626 36.6978 53.393 36.1203C52.16 35.5463 51.3097 34.7456 50.8491 33.7252C49.5984 34.7137 48.1989 35.5038 46.6541 36.0955C45.1058 36.6872 43.2953 36.9848 41.2226 36.9848C35.1003 36.9848 32.0391 34.5507 32.0391 29.679C32.0391 27.1458 32.7229 25.2113 34.0869 23.8791C35.451 22.5469 37.421 21.6328 39.9861 21.1403C42.5548 20.6478 45.9101 20.3998 50.059 20.3998V19.1172C50.059 18.0968 49.7047 17.3244 48.9961 16.7965C48.2875 16.2686 47.3734 16.0064 46.2573 16.0064C45.2369 16.0064 44.3547 16.1871 43.6142 16.5485C42.8737 16.9099 42.5017 17.4874 42.5017 18.2775V18.4759H32.8256C32.7937 18.3129 32.776 18.0826 32.776 17.785C32.776 15.3155 33.9523 13.3598 36.3049 11.9107C38.6575 10.4616 42.0234 9.73877 46.4026 9.73877C50.385 9.73877 53.6268 10.4049 56.1282 11.737L56.1389 11.7264ZM43.8693 25.9447C42.5371 26.5541 41.871 27.369 41.871 28.3894C41.871 30.0369 42.9906 30.8589 45.2298 30.8589C46.5124 30.8589 47.6391 30.5117 48.6134 29.8208C49.5842 29.1299 50.0696 28.2724 50.0696 27.2521V25.0306C47.2706 25.0306 45.205 25.3353 43.8728 25.9447H43.8693Z" fill="white"/>
<path d="M83.3932 36.3866L82.7519 32.4361C81.7315 33.8533 80.3887 34.9623 78.727 35.7701C77.0653 36.5779 75.3115 36.9783 73.4691 36.9783C70.4398 36.9783 68.1687 36.1386 66.6559 34.4592C65.143 32.7798 64.3848 30.3599 64.3848 27.1995V10.3169H74.2096V26.0161C74.2096 27.1357 74.4966 28.0321 75.0741 28.7053C75.6481 29.382 76.463 29.7186 77.5188 29.7186C78.7376 29.7186 79.7226 29.3253 80.4808 28.5352C81.239 27.7451 81.6181 26.7743 81.6181 25.6229V10.3169H91.443V36.3866H83.3968H83.3932Z" fill="white"/>
<path d="M120.227 12.2418C121.739 13.9212 122.498 16.3411 122.498 19.4979V36.3841H112.673V20.6848C112.673 19.5652 112.386 18.6688 111.808 17.9957C111.231 17.3225 110.416 16.9824 109.364 16.9824C108.145 16.9824 107.156 17.3756 106.402 18.1657C105.643 18.9558 105.264 19.9266 105.264 21.0781V36.3841H95.4395V10.3143H103.486L104.127 14.2648C105.147 12.8831 106.49 11.7812 108.152 10.9556C109.814 10.1336 111.567 9.72266 113.41 9.72266C116.439 9.72266 118.71 10.5624 120.223 12.2418H120.227Z" fill="white"/>
<path d="M143.774 10.3194V16.9839H138.243V26.908C138.243 28.0914 138.441 28.9559 138.835 29.5015C139.228 30.0436 139.954 30.3164 141.007 30.3164H143.77V36.0916C142.98 36.3537 141.96 36.5699 140.709 36.7329C139.458 36.8958 138.371 36.9809 137.449 36.9809C134.551 36.9809 132.323 36.453 130.76 35.4007C129.198 34.3484 128.415 32.5556 128.415 30.0188V16.9875H124.762V10.3194H128.811L130.934 2.41846H138.239V10.3194H143.77H143.774Z" fill="white"/>
<path d="M74.1074 62.3116V39.8877H81.3104V62.3116H74.1074Z" fill="white"/>
<path d="M101.185 62.3116L91.7672 51.4274V62.3116H85.1523V39.8877H91.4412L100.859 50.9349V39.8877H107.474V62.3116H101.185Z" fill="white"/>
<path d="M126.185 39.8912H135.114L127.064 49.1138L135.277 62.3116H126.77L122.111 54.0989L118.199 57.2911V62.3116H110.996V39.8877H118.199V49.4681L126.185 39.8877V39.8912Z" fill="white"/>
<path d="M136.418 62.3114V55.8276H143.327V62.3114H136.418Z" fill="white"/>
<path d="M13.2684 57.7465C11.1142 63.1815 9.24702 64.4996 5.16189 64.4996C4.23007 64.4996 3.55335 64.4677 2.71719 64.3401V60.6093C3.19904 60.6731 3.71278 60.6731 4.29384 60.6731C5.64374 60.6731 6.57911 60.2231 7.12474 59.0008L7.35149 58.5189L0.244141 40.5698H6.67831L10.2143 53.1441L13.7183 40.5698H20.0533L13.2684 57.743V57.7465Z" fill="white"/>
<path d="M36.9143 49.1575C36.9143 54.6563 33.3111 58.1958 27.6847 58.1958C22.0584 58.1958 18.4551 54.6598 18.4551 49.1575C18.4551 43.6551 22.0584 40.1191 27.6847 40.1191C33.3111 40.1191 36.9143 43.6232 36.9143 49.1575ZM30.9975 49.1575C30.9975 45.7172 29.7432 44.0448 27.6847 44.0448C25.6262 44.0448 24.372 45.7172 24.372 49.1575C24.372 52.5977 25.6262 54.2701 27.6847 54.2701C29.7432 54.2701 30.9975 52.5659 30.9975 49.1575Z" fill="white"/>
<path d="M55.2365 57.7444H49.4471V54.8498L47.9024 57.1988C46.8395 57.8436 45.6206 58.1944 44.044 58.1944C40.5045 58.1944 38.3503 56.1997 37.9641 53.8542C37.8366 52.9861 37.8047 51.9905 37.8047 50.6052V40.5713H43.594V49.3191C43.594 49.8647 43.6259 50.8001 43.7216 51.6681C43.9129 53.3085 44.6853 54.2722 46.5206 54.2722C48.3559 54.2722 49.4471 52.568 49.4471 50.2828V40.5713H55.2365V57.7444Z" fill="white"/>
<path d="M69.132 40.2144V44.9409C64.7918 44.6503 63.2151 46.2589 63.2151 51.4388V57.7419H57.4258V40.5687H63.2151V44.0409L64.4375 41.6281C65.3693 40.6006 66.7192 40.1152 67.814 40.1152C68.3596 40.1152 68.7139 40.1471 69.132 40.2109V40.2144Z" fill="white"/>
<path d="M77.6112 66.8284V72.0437H76.8566V66.8284H74.6953V66.2402H79.769V66.8284H77.6077H77.6112Z" fill="white"/>
<path d="M81.3579 69.9923L80.6457 72.0437H79.8379L82.0169 66.2402H83.0337L85.1241 72.0437H84.3092L83.59 69.9923H81.3614H81.3579ZM83.3845 69.4042L82.5058 66.8142L81.5669 69.4042H83.3845Z" fill="white"/>
<path d="M88.1093 66.8284V72.0437H87.3546V66.8284H85.1934V66.2402H90.267V66.8284H88.1057H88.1093Z" fill="white"/>
<path d="M93.8339 66.8284V72.0437H93.0792V66.8284H90.918V66.2402H95.9916V66.8284H93.8304H93.8339Z" fill="white"/>
<path d="M102.405 69.1368C102.405 70.9048 101.388 72.1555 99.5425 72.1555C97.6965 72.1555 96.6797 70.9013 96.6797 69.1368C96.6797 67.3724 97.6965 66.1182 99.5425 66.1182C101.388 66.1182 102.405 67.3618 102.405 69.1368ZM101.562 69.1368C101.562 67.624 100.814 66.6886 99.5425 66.6886C98.2705 66.6886 97.5229 67.624 97.5229 69.1368C97.5229 70.6497 98.2705 71.5851 99.5425 71.5851C100.814 71.5851 101.562 70.6426 101.562 69.1368Z" fill="white"/>
<path d="M109.218 69.1368C109.218 70.9048 108.201 72.1555 106.355 72.1555C104.509 72.1555 103.492 70.9013 103.492 69.1368C103.492 67.3724 104.509 66.1182 106.355 66.1182C108.201 66.1182 109.218 67.3618 109.218 69.1368ZM108.375 69.1368C108.375 67.624 107.627 66.6886 106.355 66.6886C105.083 66.6886 104.335 67.624 104.335 69.1368C104.335 70.6497 105.083 71.5851 106.355 71.5851C107.627 71.5851 108.375 70.6426 108.375 69.1368Z" fill="white"/>
<path d="M117.889 68.0849L117.9 68.17H117.145L117.128 68.0849C116.95 67.2523 116.415 66.689 115.406 66.689C114.169 66.689 113.404 67.7235 113.404 69.1301C113.404 70.5367 114.158 71.5854 115.352 71.5854C116.362 71.5854 116.897 71.0221 117.074 70.1895L117.092 70.1045H117.847L117.84 70.1895C117.726 71.2418 116.908 72.1594 115.31 72.1594C113.546 72.1594 112.561 70.8627 112.561 69.1655C112.561 67.4684 113.701 66.1221 115.423 66.1221C116.961 66.1221 117.769 66.9547 117.889 68.092V68.0849Z" fill="white"/>
<path d="M120.264 69.9923L119.552 72.0437H118.744L120.923 66.2402H121.94L124.03 72.0437H123.215L122.496 69.9923H120.268H120.264ZM122.291 69.4042L121.412 66.8142L120.473 69.4042H122.291Z" fill="white"/>
<path d="M129.703 72.0437H128.87C128.704 71.6753 128.626 71.3032 128.544 70.5875C128.473 69.9888 128.236 69.5955 127.641 69.553C127.499 69.5459 127.35 69.5459 127.212 69.5459H126.071V72.0437H125.316V66.2402H127.301C127.609 66.2402 127.818 66.2402 128.091 66.2721C128.969 66.382 129.6 66.8425 129.6 67.8204C129.6 68.5857 129.083 69.0251 128.519 69.1916C129.012 69.4113 129.249 69.9392 129.302 70.5202C129.373 71.2784 129.462 71.732 129.706 72.0437H129.703ZM127.226 68.9577C127.499 68.9577 127.648 68.9577 127.814 68.94C128.378 68.8904 128.789 68.5432 128.789 67.8877C128.789 67.2323 128.463 66.9453 127.903 66.8603C127.736 66.8355 127.57 66.8248 127.297 66.8248H126.068V68.9542H127.226V68.9577Z" fill="white"/>
<path d="M135.13 72.0437H131.102V66.2402H135.045V66.8284H131.856V68.8479H134.779V69.4361H131.856V71.4556H135.13V72.0437Z" fill="white"/>
</svg>
