<svg width="198" height="70" viewBox="0 0 198 70" fill="none" xmlns="http://www.w3.org/2000/svg">
<g clip-path="url(#clip0_659_248)">
<path d="M43.0508 29.4546C41.2598 29.4546 39.6652 29.7781 38.2573 30.3913C36.8829 31.0335 35.6043 32.0331 34.4838 33.3899C33.8133 32.1007 32.8556 31.1349 31.6057 30.4589C30.3607 29.7829 28.8905 29.4594 27.1618 29.4594C25.6916 29.4594 24.3173 29.8119 23.0387 30.4927C21.7601 31.2025 20.7353 32.1683 19.9068 33.3947V31.4585C19.9068 31.106 19.7775 30.8114 19.5573 30.5555C19.3035 30.2996 19.0161 30.203 18.6618 30.203H11.8857C11.5361 30.203 11.2153 30.3334 10.9902 30.5555C10.7364 30.8114 10.6406 31.106 10.6406 31.4585V55.7607C10.6406 56.1132 10.7699 56.4367 10.9902 56.6637C11.2153 56.8906 11.5313 57.0162 11.8857 57.0162H18.6618C19.0113 57.0162 19.3322 56.8858 19.5573 56.6637C19.7823 56.4367 19.9068 56.118 19.9068 55.7607V41.5502C19.9068 40.3575 20.2277 39.3918 20.8646 38.682C21.5015 37.9722 22.3682 37.6197 23.4218 37.6197C24.4753 37.6197 25.3373 37.9722 25.979 38.682C26.6206 39.3918 26.9367 40.3575 26.9367 41.584V55.7945C26.9367 56.147 27.066 56.4705 27.2863 56.6975C27.5114 56.9244 27.8274 57.05 28.1818 57.05H34.9578C35.3074 57.05 35.6283 56.9196 35.8533 56.6975C36.0784 56.4705 36.2029 56.147 36.2029 55.7945V41.584C36.2029 40.3913 36.5238 39.4256 37.1607 38.7158C37.8024 38.006 38.6643 37.6535 39.7179 37.6535C40.7714 37.6535 41.6333 38.006 42.275 38.7158C42.9167 39.4256 43.2328 40.3913 43.2328 41.6178V55.8283C43.2328 56.1808 43.3621 56.5043 43.5872 56.7313C43.8122 56.9582 44.1283 57.0838 44.4826 57.0838H51.2587C51.6083 57.0838 51.9291 56.9534 52.1542 56.7313C52.3793 56.5043 52.5038 56.1808 52.5038 55.8283V39.9423C52.5038 36.8134 51.6705 34.3025 49.9801 32.4C48.3184 30.401 45.9863 29.4691 43.046 29.4691" fill="white"/>
<path d="M7.99241 30.1978H1.24507C0.895494 30.1978 0.574649 30.3281 0.349578 30.5502C0.0957748 30.8062 0 31.1007 0 31.4532V55.7506C0 56.1031 0.129296 56.3977 0.349578 56.6536C0.603381 56.9095 0.890705 57.0061 1.24507 57.0061H7.98762C8.33719 57.0061 8.65804 56.8757 8.88311 56.6536C9.13691 56.3977 9.23269 56.1079 9.23269 55.7506V31.4532C9.23269 31.1007 9.10339 30.8062 8.88311 30.5502C8.65804 30.3233 8.33719 30.1978 7.98762 30.1978" fill="white"/>
<path d="M140.789 29.4546C139.094 29.4546 137.595 29.7781 136.283 30.4541C134.971 31.1301 133.884 32.0958 133.055 33.3851V31.4488C133.055 31.0963 132.926 30.7728 132.706 30.5458C132.481 30.3189 132.16 30.1934 131.81 30.1934H125.034C124.68 30.1934 124.364 30.3237 124.139 30.5458C123.914 30.7728 123.789 31.0963 123.789 31.4488V55.7511C123.789 56.1035 123.918 56.4271 124.139 56.654C124.364 56.881 124.68 57.0065 125.034 57.0065H131.81C132.16 57.0065 132.481 56.8761 132.706 56.654C132.931 56.4271 133.055 56.1084 133.055 55.7511V41.9896C133.055 40.6376 133.472 39.5705 134.272 38.7689C135.105 37.9626 136.125 37.5763 137.403 37.5763C138.682 37.5763 139.707 37.9626 140.502 38.7689C141.301 39.5753 141.685 40.6376 141.685 41.9896V55.7511C141.685 56.1035 141.814 56.4271 142.034 56.654C142.259 56.881 142.58 57.0065 142.93 57.0065H149.706C150.055 57.0065 150.376 56.8761 150.601 56.654C150.826 56.4271 150.951 56.1084 150.951 55.7511V41.217C150.951 37.3831 150.089 34.4811 148.36 32.4821C146.665 30.4493 144.141 29.4546 140.784 29.4546" fill="white"/>
<path d="M174.861 33.2929C172.366 30.7482 169.11 29.459 165.111 29.459C161.113 29.459 157.631 30.782 155.074 33.4571C152.517 36.1321 151.238 39.5459 151.238 43.7371C151.238 47.9283 152.613 51.1152 155.328 53.7902C158.043 56.4653 161.529 57.7883 165.777 57.7883C168.301 57.7883 170.604 57.3054 172.711 56.3687C174.818 55.4319 176.417 54.1765 177.476 52.6314C177.701 52.3417 177.763 52.0181 177.73 51.6657C177.696 51.3421 177.505 51.0524 177.184 50.8593L172.677 47.8945C172.323 47.6676 171.974 47.571 171.624 47.6048C171.274 47.6386 170.954 47.8318 170.633 48.1215C169.929 48.8313 169.163 49.3769 168.396 49.7004C167.63 50.0239 166.768 50.2171 165.873 50.2171C164.498 50.2171 163.349 49.8646 162.391 49.121C161.433 48.4112 160.825 47.4117 160.572 46.19H177.16C177.639 46.19 177.988 45.9969 178.247 45.6734C178.501 45.3209 178.63 44.8332 178.63 44.2538V42.7086C178.596 39.0003 177.351 35.8424 174.856 33.2977M160.801 40.1543C161.055 39.121 161.601 38.2518 162.43 37.6096C163.263 36.9674 164.221 36.6439 165.274 36.6439C166.328 36.6439 167.29 36.9674 168.119 37.6096C168.918 38.2567 169.431 39.1258 169.589 40.1543H160.801Z" fill="white"/>
<path d="M117.779 18.0781C116.371 18.0781 115.126 18.5948 114.101 19.5943C113.076 20.6276 112.568 21.8155 112.568 23.1723C112.568 24.5291 113.081 25.7507 114.101 26.7503C115.126 27.7498 116.337 28.2326 117.779 28.2326C119.22 28.2326 120.398 27.7498 121.423 26.7503C122.448 25.7507 122.955 24.5581 122.955 23.1723C122.955 21.7865 122.443 20.5938 121.423 19.5943C120.431 18.561 119.186 18.0781 117.779 18.0781Z" fill="white"/>
<path d="M121.136 30.1978H114.394C114.044 30.1978 113.723 30.3281 113.498 30.5502C113.244 30.8062 113.148 31.1007 113.148 31.4532V55.7506C113.148 56.1031 113.278 56.3977 113.498 56.6536C113.752 56.9095 114.044 57.0061 114.394 57.0061H121.136C121.486 57.0061 121.806 56.8757 122.032 56.6536C122.285 56.3977 122.381 56.1079 122.381 55.7506V31.4532C122.381 31.1007 122.252 30.8062 122.032 30.5502C121.806 30.3233 121.49 30.1978 121.136 30.1978Z" fill="white"/>
<path d="M129.924 20.2076C135.455 20.2076 139.927 15.6977 139.927 10.1207C139.927 4.5437 135.455 0 129.924 0C124.393 0 119.92 4.5099 119.92 10.0869C119.887 15.6639 124.393 20.2076 129.924 20.2076Z" fill="white"/>
<path d="M81.6006 30.5503C81.3755 30.3234 81.0594 30.1978 80.7051 30.1978H73.929C73.5794 30.1978 73.2586 30.3282 73.0335 30.5503C72.8084 30.7772 72.6839 31.1008 72.6839 31.4532V31.9361C71.822 31.1008 70.8307 30.4875 69.7437 30.0674C68.6566 29.6474 67.4738 29.4204 66.1952 29.4204C62.3929 29.4204 59.1941 30.7724 56.6369 33.5151C54.0462 36.2529 52.7676 39.6039 52.7676 43.5682C52.7676 47.5324 54.0797 50.9173 56.6369 53.6213C59.2276 56.3591 62.4217 57.7159 66.1952 57.7159C67.4738 57.7159 68.6566 57.489 69.7437 57.0689C70.8307 56.6488 71.822 56.0066 72.6839 55.1664V55.6155C72.6839 55.968 72.8132 56.2577 73.067 56.5184C73.3208 56.7792 73.6417 56.9047 73.9625 56.9047H80.7386C81.0594 56.9047 81.3468 56.7743 81.6006 56.5184C81.8544 56.2625 81.9502 55.9728 81.9502 55.6155V31.347C81.9502 31.0911 81.8544 30.7676 81.6006 30.5406M67.4403 49.179C64.4042 49.179 61.9428 46.6971 61.9428 43.6358C61.9428 40.5744 64.4042 38.0925 67.4403 38.0925C70.4763 38.0925 72.9377 40.5744 72.9377 43.6358C72.9713 46.6971 70.4763 49.179 67.4403 49.179Z" fill="white"/>
<path d="M111.353 30.5507C111.099 30.2948 110.807 30.1982 110.457 30.1982H103.839C103.518 30.1982 103.231 30.3286 102.977 30.5507C102.724 30.8066 102.628 31.1011 102.628 31.4198V32.2262C101.991 31.3571 101.062 30.6811 99.7833 30.1934C98.5382 29.6767 97.0968 29.4546 95.5309 29.4546C91.8531 29.4546 88.7883 30.7776 86.2599 33.4527C83.7362 36.1277 82.4863 39.5125 82.4863 43.6361C82.4863 47.7598 83.7314 51.1446 86.2599 53.8196C88.7835 56.4947 91.8531 57.8177 95.5309 57.8177C96.9387 57.8177 98.2461 57.5618 99.4959 57.0741C100.712 56.5574 101.704 55.8814 102.436 55.0413V56.2339C102.436 58.006 101.924 59.3918 100.933 60.3286C99.9078 61.2943 98.5047 61.7771 96.6179 61.7771C95.5979 61.7771 94.6354 61.584 93.7111 61.1639C92.7821 60.7438 91.8914 60.1306 91.0247 59.2615C90.7373 59.0055 90.4165 58.8752 90.0669 58.8752C89.7173 58.8752 89.3294 59.0055 88.9799 59.2277L84.2486 62.3855C83.7027 62.738 83.4153 63.1581 83.3196 63.612C83.2238 64.0611 83.3818 64.5149 83.7362 64.935C85.0483 66.4802 86.868 67.7404 89.1714 68.6434C91.4748 69.5463 93.9649 69.9954 96.6179 69.9954C101.124 69.9954 104.768 68.7689 107.551 66.287C110.333 63.8051 111.707 60.4879 111.707 56.2339V31.4488C111.707 31.0963 111.578 30.8018 111.358 30.5458M97.1638 49.1794C94.1278 49.1794 91.6663 46.6975 91.6663 43.6361C91.6663 40.5748 94.1278 38.0929 97.1638 38.0929C100.2 38.0929 102.661 40.5748 102.661 43.6361C102.695 46.6975 100.233 49.1794 97.1638 49.1794Z" fill="white"/>
<path d="M184.481 57.011C185.889 57.011 187.134 56.4943 188.154 55.4948C189.179 54.4615 189.687 53.2736 189.687 51.9168C189.687 50.56 189.174 49.3383 188.154 48.3388C187.134 47.3393 185.918 46.8564 184.481 46.8564C183.045 46.8564 181.862 47.3393 180.837 48.3388C179.812 49.3383 179.305 50.531 179.305 51.9168C179.305 53.3026 179.817 54.4953 180.837 55.4948C181.862 56.4943 183.073 57.011 184.481 57.011Z" fill="white"/>
<path d="M182.054 44.8622H186.943C187.197 44.8622 187.422 44.7994 187.614 44.6691C187.805 44.5387 187.901 44.3793 187.901 44.1862L189.05 25.881C189.084 25.5285 188.988 25.2388 188.763 24.9781C188.538 24.7222 188.251 24.5918 187.867 24.5918H181.125C180.775 24.5918 180.454 24.7222 180.229 24.9781C180.004 25.234 179.909 25.5285 179.942 25.881L181.091 44.1862C181.091 44.3793 181.221 44.5387 181.379 44.6691C181.57 44.7994 181.795 44.8622 182.049 44.8622" fill="white"/>
<path d="M194.041 26.9097C194.294 26.9097 194.328 26.9435 194.328 27.1994V27.4553C194.328 27.7112 194.294 27.745 194.041 27.745H193.212V29.971C193.212 30.1979 193.15 30.2607 192.891 30.2607H192.637C192.412 30.2607 192.35 30.1979 192.35 29.971V27.745H191.488C191.319 27.745 191.234 27.6484 191.234 27.4553V27.1994C191.234 26.9435 191.234 26.9097 191.488 26.9097H194.045H194.041ZM197.685 26.9097C197.939 26.9097 198.006 26.9435 198.006 27.1994V29.9372C198.006 30.1641 197.972 30.2269 197.718 30.2269H197.431C197.177 30.2269 197.144 30.1641 197.144 29.9372V29.1018C197.144 29.0053 197.144 28.7783 197.206 28.4258C197.11 28.5852 197.077 28.6818 197.014 28.7156L196.665 29.2322C196.569 29.3626 196.44 29.4592 196.315 29.4592H196.186C196.057 29.4592 195.961 29.3964 195.865 29.2998L195.516 28.817C195.386 28.6576 195.357 28.561 195.324 28.561C195.324 28.6914 195.357 28.9135 195.357 29.1405V29.9806C195.357 30.2076 195.357 30.2704 195.104 30.2704H194.816C194.563 30.2704 194.529 30.2076 194.529 29.9806V27.2428C194.529 26.9869 194.591 26.9531 194.85 26.9531H195.008C195.137 26.9531 195.262 27.0159 195.357 27.1463L196.253 28.5321L197.148 27.1463C197.244 27.0159 197.374 26.9193 197.469 26.9193H197.694L197.685 26.9097Z" fill="white"/>
</g>
<defs>
<clipPath id="clip0_659_248">
<rect width="198" height="70" fill="white"/>
</clipPath>
</defs>
</svg>
