<svg width="175" height="70" viewBox="0 0 175 70" fill="none" xmlns="http://www.w3.org/2000/svg">
<path d="M174.125 0H0V70H174.125V0Z" fill="white"/>
<path d="M147.356 16.3126V5.59833H117.507L112.599 41.3926L107.741 5.59851H96.9774L98.1832 15.1496C96.9399 12.7028 92.533 5.59851 82.8348 5.59851C82.7709 5.59433 72.0563 5.59851 72.0563 5.59851L72.015 57.7714L64.1694 5.59851L50.0725 5.59033L41.9561 59.6486L41.9603 5.59816H28.4686L23.6048 35.9628L18.8672 5.59851H5.37109V64.3687H15.999V36.0416L20.8334 64.368H26.4836L31.2501 36.0416V64.368H51.7388L52.9821 55.3248H61.2311L62.4702 64.368L82.5853 64.3804H82.6016V64.368H82.6142H82.6267V45.2911L85.0927 44.9323L90.1978 64.3804H90.2104H100.59H100.602L100.598 64.368H100.616H100.629L93.9295 41.574C97.3246 39.0656 101.158 32.6956 100.138 26.6018V26.5978C100.15 26.6803 106.461 64.4056 106.461 64.4056L118.835 64.368L127.291 11.0977V64.3682H147.356V53.7983H137.832V40.3198H147.356V29.589H137.832V16.3126H147.356ZM54.234 46.0052L57.152 20.8799L60.1818 46.0052H54.234ZM85.1271 34.4037C84.3093 34.7999 83.4564 34.998 82.6262 34.998V16.094C82.6406 16.094 82.6573 16.0902 82.6779 16.0902C83.5102 16.086 89.7158 16.3417 89.7158 25.4428C89.7158 30.2036 87.6053 33.2033 85.1271 34.4037ZM168.77 53.7901V64.3598H149.196V5.59033H159.735V53.7901H168.77Z" fill="black"/>
</svg>
