<svg width="207" height="50" viewBox="0 0 207 50" fill="none" xmlns="http://www.w3.org/2000/svg">
<g clip-path="url(#clip0_659_41)">
<path d="M10.2951 0C11.6965 0 12.9841 0.184001 14.1666 0.547621C15.3491 0.915622 16.4878 1.32305 17.5914 1.77429C18.6907 2.22553 19.7812 2.64172 20.863 3.02287C21.9491 3.40839 23.0878 3.59678 24.2878 3.59678L29.3856 21.493L33.9316 3.54858H45.3228V4.54745C44.99 4.68326 44.6746 4.89792 44.3768 5.19583C44.1447 5.46307 43.9345 5.83107 43.7506 6.29545C43.5666 6.76422 43.4615 7.37755 43.4265 8.14422L44.6746 30.439C44.7097 31.2056 44.8148 31.8146 44.9987 32.2615C45.1827 32.7127 45.3885 33.0719 45.6206 33.3348C45.9228 33.6371 46.2381 33.8517 46.571 33.9832V34.982H35.1797V33.9832C35.5433 33.8517 35.863 33.6327 36.1257 33.3348C36.3929 33.0675 36.6162 32.7083 36.8002 32.2615C36.9797 31.8102 37.0761 31.2056 37.0761 30.439L35.9287 10.0456L29.4819 34.9864H25.9345L18.59 9.49356L17.4381 30.439C17.4732 31.2056 17.5827 31.8146 17.7622 32.2615C17.9462 32.7127 18.1564 33.0719 18.3885 33.3348C18.6863 33.6371 19.0016 33.8517 19.3389 33.9832V34.982H11.4951V33.9832C11.8586 33.8517 12.1783 33.6327 12.4411 33.3348C12.7082 33.0675 12.9316 32.7083 13.1155 32.2615C13.2995 31.8146 13.3914 31.2056 13.3914 30.439L14.6396 6.64593C14.6396 6.08078 14.5564 5.5025 14.39 4.91983C14.2235 4.33716 13.9651 3.81144 13.6148 3.34706C13.2644 2.88268 12.8221 2.50591 12.2922 2.22115C11.7622 1.93639 11.1097 1.7962 10.3433 1.7962C9.67756 1.7962 9.08632 1.94515 8.56953 2.24744C8.05274 2.54972 7.6104 2.93963 7.2469 3.42154C6.8834 3.90344 6.59873 4.46421 6.39727 5.09507C6.19581 5.73031 6.09946 6.37869 6.09946 7.0446C6.09946 8.04346 6.25712 8.83641 6.57245 9.41908C6.89216 10.0018 7.2469 10.5187 7.64982 10.9699C8.04836 11.4212 8.40311 11.8549 8.72281 12.2711C9.03814 12.6873 9.19581 13.213 9.19581 13.8439C9.19581 14.5098 8.99435 15.0267 8.59581 15.3947C8.19727 15.7627 7.66296 15.9467 6.99727 15.9467C5.298 15.9467 3.90092 15.5568 2.80165 14.7726C1.70238 13.9884 0.927194 13.0071 0.480478 11.8242C0.0293833 10.637 -0.102004 9.35775 0.0775585 7.97336C0.2615 6.58898 0.76077 5.30535 1.57537 4.12249C2.38997 2.93963 3.52427 1.95829 4.97391 1.1741C6.42354 0.389906 8.19727 0 10.2951 0Z" fill="white"/>
<path d="M67.9782 14.0102C67.8425 13.927 67.7461 13.7999 67.7461 13.5897C67.733 12.6083 71.8498 13.0946 72.4761 13.0946H80.5213L80.4688 14.0935C80.0001 14.1942 79.6366 14.3914 79.3695 14.6937C79.1374 14.9609 78.9972 15.3201 78.9447 15.767C78.8965 16.2182 79.0542 16.8403 79.4177 17.6421L83.1666 25.4884L87.2133 17.3398C87.5768 16.5731 87.6819 15.9817 87.5111 15.5655C87.3447 15.1493 87.0775 14.8251 86.714 14.5885C86.3111 14.3563 85.7987 14.1898 85.1636 14.0891V13.0902H94.5052V14.0891C93.9403 14.0891 93.3885 14.1898 92.8585 14.387C92.425 14.5535 91.9739 14.8032 91.5096 15.1361C91.041 15.4691 90.6731 15.9685 90.4104 16.6344L81.8177 34.8286H80.8191L71.5739 16.7352C71.1709 16.1043 70.6717 15.5041 70.076 14.9346C69.7563 14.6323 69.3797 14.3958 68.9636 14.2512C68.7009 14.1592 68.2542 14.1679 67.9826 14.0015L67.9782 14.0102Z" fill="white"/>
<path d="M114.045 28.967C113.533 29.8607 112.841 30.6931 112.197 31.3239C110.988 32.5112 109.521 33.4137 108.001 34.1409C106.604 34.8068 104.852 35.1398 102.755 35.1398C100.289 35.1398 98.2217 34.5965 96.5574 33.5144C94.8888 32.4323 93.6319 31.0742 92.7823 29.4401C91.9326 27.806 91.5078 26.0317 91.5078 24.1172C91.5078 22.2028 91.9589 20.4285 92.8567 18.7944C93.7589 17.1603 95.1078 15.8022 96.9034 14.7201C98.7034 13.638 100.985 13.0947 103.749 13.0947C105.049 13.0947 106.249 13.2262 107.344 13.4934C108.444 13.7606 109.394 14.1374 110.191 14.6193C110.988 15.1012 111.606 15.6839 112.039 16.3673C112.473 17.0507 112.692 17.8086 112.692 18.641C112.692 19.7407 112.284 20.757 111.465 21.6902C110.651 22.6233 109.626 23.4557 108.391 24.1873C107.156 24.919 105.811 25.5367 104.344 26.0361C102.877 26.5355 101.498 26.9035 100.197 27.1357C100.595 28.1039 101.178 28.8837 101.944 29.4839C103.687 30.8464 106.118 31.1312 108.216 30.566C109.184 30.3032 110.178 30.0403 110.782 29.1729C111.308 28.415 111.465 27.4424 111.439 26.5355C111.422 25.9441 111.457 25.3001 111.842 24.8445C112.359 24.2311 113.388 24.2355 114.014 24.7437C114.641 25.2519 114.877 26.1237 114.776 26.9211C114.693 27.6001 114.413 28.3011 114.036 28.9626L114.045 28.967ZM104.607 15.7934C103.674 15.7934 102.86 16.0869 102.159 16.6696C101.463 17.2523 100.902 18.0014 100.486 18.917C100.07 19.8327 99.7852 20.8403 99.6363 21.9399C99.4874 23.0395 99.4918 24.1216 99.6626 25.1906C100.963 24.6912 102.124 23.9157 103.157 22.8643C104.191 21.8129 104.966 20.7658 105.479 19.7144C105.995 18.6629 106.206 17.7473 106.105 16.9631C106.004 16.1789 105.505 15.789 104.607 15.789V15.7934Z" fill="white"/>
<path d="M69.5529 28.967C69.0404 29.8607 68.3485 30.6931 67.7047 31.3239C66.4959 32.5112 65.0288 33.4137 63.5091 34.1409C62.112 34.8068 60.3601 35.1398 58.2623 35.1398C55.7966 35.1398 53.7295 34.5965 52.0653 33.5144C50.3966 32.4323 49.1397 31.0742 48.2901 29.4401C47.4404 27.806 47.0156 26.0317 47.0156 24.1172C47.0156 22.2028 47.4667 20.4285 48.3645 18.7944C49.2667 17.1603 50.6156 15.8022 52.4112 14.7201C54.2112 13.638 56.493 13.0947 59.2565 13.0947C60.5572 13.0947 61.7572 13.2262 62.8521 13.4934C63.9514 13.7606 64.9018 14.1374 65.6988 14.6193C66.4959 15.1012 67.1134 15.6839 67.547 16.3673C67.9806 17.0507 68.1996 17.8086 68.1996 18.641C68.1996 19.7407 67.7923 20.757 66.9733 21.6902C66.1587 22.6233 65.1339 23.4557 63.8988 24.1873C62.6638 24.919 61.3193 25.5367 59.8521 26.0361C58.385 26.5355 57.0054 26.9035 55.7047 27.1357C56.1032 28.1039 56.6857 28.8837 57.4521 29.4839C59.1952 30.8464 61.6258 31.1312 63.7236 30.566C64.6915 30.3032 65.6857 30.0403 66.2901 29.1729C66.8156 28.415 66.9733 27.4424 66.947 26.5355C66.9295 25.9441 66.9645 25.3001 67.3499 24.8445C67.8667 24.2311 68.8959 24.2355 69.5222 24.7437C70.1441 25.2475 70.385 26.1237 70.2842 26.9211C70.201 27.6001 69.9207 28.3011 69.5441 28.9626L69.5529 28.967ZM60.1105 15.7934C59.1777 15.7934 58.3631 16.0869 57.6623 16.6696C56.966 17.2523 56.4054 18.0014 55.9893 18.917C55.5733 19.8327 55.2886 20.8403 55.1397 21.9399C54.9908 23.0395 54.9952 24.1216 55.166 25.1906C56.4667 24.6912 57.6273 23.9157 58.6609 22.8643C59.6945 21.8129 60.4696 20.7658 60.982 19.7144C61.4988 18.6629 61.7091 17.7473 61.6083 16.9631C61.5076 16.1789 61.0083 15.789 60.1105 15.789V15.7934Z" fill="white"/>
<path d="M143.581 4.39851C143.48 4.46422 143.349 4.56498 143.182 4.69641C143.016 4.83222 142.841 5.01184 142.657 5.24841C142.473 5.48061 142.315 5.76537 142.184 6.09832C142.048 6.43128 141.982 6.82994 141.982 7.29871V26.0449C141.982 27.346 141.781 28.5683 141.382 29.7205C140.979 30.8683 140.384 31.8628 139.582 32.6952C138.785 33.5276 137.791 34.1847 136.609 34.671C135.426 35.1573 134.051 35.3939 132.487 35.3939C130.924 35.3939 129.715 35.2011 128.664 34.82C127.613 34.4388 126.768 33.9438 126.115 33.3436C125.463 32.7434 124.998 32.1125 124.718 31.4422C124.433 30.7763 124.315 30.1411 124.368 29.5453C124.416 28.9451 124.617 28.4544 124.968 28.0689C125.318 27.6877 125.791 27.495 126.391 27.495C127.188 27.495 127.797 27.6264 128.213 27.8936C128.629 28.1609 128.94 28.5026 129.137 28.9188C129.339 29.335 129.479 29.7862 129.562 30.2681C129.645 30.75 129.75 31.2013 129.886 31.6175C130.017 32.0337 130.219 32.3754 130.486 32.6426C130.753 32.9099 131.187 33.0413 131.787 33.0413C132.321 33.0413 132.755 32.8354 133.087 32.4192C133.42 32.003 133.679 31.4685 133.863 30.8201C134.047 30.1717 134.182 29.4533 134.266 28.6691C134.349 27.8849 134.388 27.1094 134.388 26.3472V6.64594C134.388 6.0808 134.305 5.50251 134.139 4.91984C133.972 4.33717 133.714 3.81146 133.363 3.34707C133.013 2.88269 132.571 2.50593 132.041 2.22116C131.506 1.9364 130.858 1.79621 130.092 1.79621C129.426 1.79621 128.835 1.94516 128.318 2.24745C127.797 2.54974 127.359 2.93964 126.991 3.42155C126.628 3.90346 126.343 4.46422 126.141 5.09508C125.94 5.73032 125.844 6.3787 125.844 7.04461C125.844 8.04347 126.001 8.83643 126.317 9.4191C126.632 10.0018 126.991 10.5187 127.39 10.97C127.793 11.4212 128.147 11.8549 128.463 12.2711C128.778 12.6873 128.936 13.213 128.936 13.8439C128.936 14.5098 128.734 15.0267 128.336 15.3947C127.933 15.7627 127.403 15.9467 126.733 15.9467C125.134 15.9467 123.803 15.5568 122.739 14.7726C121.67 13.9884 120.89 13.0071 120.391 11.8242C119.892 10.6414 119.699 9.35776 119.813 7.97776C119.931 6.59337 120.369 5.30975 121.14 4.12689C121.902 2.94402 123.014 1.96269 124.464 1.17849C125.909 0.394301 127.701 0.00439453 129.833 0.00439453C130.863 0.00439453 131.765 0.0963949 132.531 0.280396C133.298 0.464396 133.99 0.687826 134.603 0.955065C135.22 1.2223 135.82 1.50269 136.403 1.80497C136.985 2.10726 137.62 2.38764 138.303 2.65488C138.987 2.92212 139.744 3.14555 140.576 3.32955C141.409 3.51355 142.407 3.60555 143.572 3.60555V4.40727L143.581 4.39851Z" fill="white"/>
<path d="M165.172 33.3786C165.12 34.1934 164.59 35.0171 163.644 34.9207C162.807 34.8374 161.945 34.4738 161.174 34.1628C159.974 33.6809 159.041 32.9405 158.375 31.9372C158.143 32.2395 157.815 32.5812 157.399 32.9624C156.983 33.3479 156.475 33.694 155.875 34.0138C155.275 34.3292 154.57 34.5965 153.751 34.8111C152.936 35.0258 151.994 35.1353 150.926 35.1353C149.66 35.1353 148.561 34.9601 147.628 34.6096C146.695 34.2591 145.924 33.7948 145.307 33.2121C144.694 32.6294 144.234 31.9548 143.932 31.1881C143.634 30.4214 143.48 29.6066 143.48 28.7391C143.48 27.3723 143.822 26.2639 144.505 25.414C145.188 24.5641 146.047 23.8806 147.08 23.3637C148.114 22.8467 149.231 22.4481 150.426 22.1633C151.626 21.8785 152.752 21.6376 153.803 21.4404C154.854 21.2389 155.726 21.0242 156.426 20.792C157.127 20.5599 157.478 20.24 157.478 19.8414V19.7406C157.478 19.1098 157.438 18.492 157.355 17.8918C157.272 17.2917 157.123 16.7528 156.904 16.2665C156.685 15.7846 156.405 15.3903 156.054 15.0924C155.704 14.7945 155.248 14.6412 154.679 14.6412C154.079 14.6412 153.628 14.7989 153.33 15.1143C153.032 15.4297 152.796 15.8153 152.629 16.2621C152.463 16.7134 152.323 17.2128 152.205 17.7604C152.091 18.3124 151.937 18.8118 151.758 19.2587C151.574 19.7099 151.307 20.0911 150.961 20.4065C150.61 20.722 150.102 20.8797 149.437 20.8797C148.736 20.8797 148.101 20.6869 147.536 20.3058C146.971 19.9246 146.555 19.4383 146.288 18.8557C146.021 18.273 145.964 17.6465 146.113 16.9806C146.261 16.3147 146.669 15.6882 147.334 15.1056C148 14.5229 148.994 14.041 150.308 13.6554C151.622 13.2743 153.317 13.0815 155.38 13.0815C156.913 13.0815 158.279 13.2743 159.479 13.6554C160.679 14.0366 161.686 14.5535 162.501 15.2063C163.316 15.8547 163.933 16.5907 164.349 17.4056C164.765 18.2204 164.971 19.0616 164.971 19.929V28.91C164.971 30.3119 165.098 31.7226 165.177 33.1113C165.181 33.1946 165.181 33.2822 165.177 33.3654L165.172 33.3786ZM157.473 22.5444C157.04 23.1446 156.409 23.6265 155.577 23.9945C154.508 24.4283 153.659 25.0942 153.028 25.9923C152.393 26.8904 151.994 27.7841 151.828 28.6646C151.661 29.5496 151.745 30.3207 152.078 30.9866C152.41 31.6525 152.993 31.9854 153.825 31.9854C154.425 31.9854 154.946 31.8189 155.397 31.486C155.848 31.153 156.221 30.7719 156.518 30.3382C156.851 29.8738 157.153 29.3393 157.421 28.7391L157.469 22.5401L157.473 22.5444Z" fill="white"/>
<path d="M165.31 13.9972C167.175 13.9972 169.085 13.914 171.029 13.7475C172.978 13.581 174.804 13.0465 176.504 12.1484L177.003 13.0991C176.67 13.2656 176.385 13.5153 176.153 13.8483C175.952 14.1155 175.764 14.4835 175.58 14.9479C175.396 15.4166 175.304 16.0125 175.304 16.7485V16.95C175.772 15.9511 176.425 15.0574 177.279 14.2776C178.129 13.4934 179.302 13.1035 180.8 13.1035C182.933 13.1035 184.549 13.6029 185.648 14.6018C187.256 16.065 188.245 18.7155 187.378 20.8184C186.59 22.7285 184.12 24.8182 182.118 23.1534C180.073 21.4492 182.355 19.1142 181.475 17.0245C181.256 16.5075 180.783 16.249 180.051 16.249C179.618 16.249 179.127 16.4505 178.575 16.8492C178.028 17.2479 177.507 17.8481 177.025 18.6498C176.543 19.4471 176.131 20.4416 175.799 21.6245C175.466 22.8073 175.299 24.183 175.299 25.747V30.2944C175.334 31.0611 175.439 31.67 175.623 32.1213C175.807 32.5725 176.018 32.9317 176.25 33.1946C176.547 33.4969 176.863 33.7116 177.196 33.843V34.8419H172.435C171.296 34.8419 169.856 35.0828 168.747 34.8419C167.775 34.6316 167.653 33.9306 167.648 33.0807C167.622 27.8674 167.701 22.6365 167.701 17.3925C167.701 16.525 167.442 15.8766 166.926 15.4429C166.409 15.0092 165.87 14.7945 165.301 14.7945V13.9928L165.31 13.9972Z" fill="white"/>
<path d="M193.797 17.1386C193.797 17.7388 194.121 18.2645 194.769 18.7157C195.422 19.167 196.237 19.6007 197.222 20.0169C198.207 20.4331 199.263 20.858 200.397 21.2917C201.531 21.7254 202.591 22.2599 203.577 22.8908C204.562 23.526 205.377 24.2752 206.025 25.1426C206.677 26.01 207.002 27.0615 207.002 28.2925C207.002 29.2257 206.835 30.0931 206.502 30.8948C206.169 31.6965 205.626 32.3975 204.877 32.9977C204.129 33.5979 203.134 34.071 201.899 34.4215C200.664 34.772 199.149 34.9472 197.349 34.9472C195.746 34.9472 194.397 34.7807 193.298 34.4478C192.194 34.1148 191.314 33.6986 190.644 33.1992C189.974 32.6998 189.505 32.1478 189.221 31.5476C188.936 30.9474 188.804 30.3954 188.818 29.8959C188.835 29.3965 188.984 28.9803 189.269 28.643C189.553 28.31 189.926 28.1436 190.394 28.1436C191.261 28.1436 191.896 28.3626 192.295 28.7919C192.693 29.2257 193.079 29.6988 193.442 30.2158C193.81 30.7327 194.244 31.2102 194.743 31.6396C195.242 32.0733 196.009 32.2923 197.042 32.2923C198.308 32.2923 199.258 32.1083 199.893 31.7403C200.529 31.3723 200.844 31.0087 200.844 30.6407C200.844 30.1413 200.546 29.7163 199.946 29.3658C199.346 29.0154 198.584 28.6649 197.669 28.3144C196.749 27.9639 195.768 27.5653 194.717 27.114C193.666 26.6628 192.685 26.0976 191.769 25.4142C190.85 24.7308 190.092 23.8809 189.492 22.8645C188.892 21.8481 188.59 20.6039 188.59 19.1363C188.59 18.1024 188.822 17.178 189.291 16.3588C189.759 15.5439 190.39 14.8517 191.191 14.2822C191.993 13.717 192.952 13.2833 194.069 12.981C195.185 12.6831 196.394 12.5298 197.695 12.5298C199.793 12.5298 201.426 12.8715 202.596 13.5549C203.765 14.2384 204.553 14.9831 204.969 15.7805C205.385 16.5822 205.477 17.3226 205.245 18.006C205.013 18.6894 204.549 19.0311 203.848 19.0311C202.946 19.0311 202.298 18.8384 201.895 18.4572C201.496 18.0761 201.111 17.6468 200.748 17.1824C200.38 16.7136 199.929 16.293 199.399 15.9075C198.864 15.5264 197.997 15.3336 196.797 15.3336C195.597 15.3336 194.839 15.5527 194.423 15.982C194.007 16.4157 193.802 16.8012 193.802 17.1342L193.797 17.1386Z" fill="white"/>
<path d="M49.3998 46.2414C49.3998 48.5809 47.7706 50.0003 45.6334 50.0003C43.229 50.0003 41.5078 48.2304 41.5078 46.0355C41.5078 43.8406 43.264 42.0488 45.5151 42.0488C46.9779 42.0488 48.2129 42.7717 48.8567 43.7968L47.372 44.6467C47.0567 44.1429 46.3691 43.753 45.5064 43.753C44.2188 43.753 43.2553 44.7037 43.2553 46.0487C43.2553 47.3936 44.1706 48.3005 45.6596 48.3005C46.6757 48.3005 47.3414 47.8536 47.6129 47.122H45.572V45.593H49.4042V46.2502L49.3998 46.2414Z" fill="white"/>
<path d="M50.4648 47.3756V42.1973H52.2123V47.2222C52.2123 47.8005 52.4838 48.2912 53.4123 48.2912C54.3408 48.2912 54.6123 47.8005 54.6123 47.2222V42.1973H56.3597V47.3756C56.3597 49.0141 55.094 49.9954 53.4123 49.9954C51.7305 49.9954 50.4648 49.0141 50.4648 47.3756Z" fill="white"/>
<path d="M59.5873 42.1973V49.8421H57.8398V42.1973H59.5873Z" fill="white"/>
<path d="M65.5619 48.1642V49.8464H61.0859V42.2017H62.8334V48.1642H65.5619Z" fill="white"/>
<path d="M70.7428 43.8796H68.7764V49.8421H67.0289V43.8796H65.0625V42.1973H70.7428V43.8796Z" fill="white"/>
<path d="M72 45.7939H76.1474V47.3667H72V45.7939Z" fill="white"/>
<path d="M79.6967 43.8796V45.356H82.5346V47.0383H79.6967V49.8464H77.9492V42.2017H82.5916V43.884H79.6967V43.8796Z" fill="white"/>
<path d="M86.3838 47.3318H85.556V49.8421H83.8086V42.1973H86.8655C88.3195 42.1973 89.4845 43.367 89.4845 44.8171C89.4845 45.7546 88.9152 46.6089 88.0743 47.0339L89.7035 49.8421H87.8247L86.3838 47.3318ZM85.5517 45.8028H86.8611C87.3429 45.8028 87.7327 45.3778 87.7327 44.8215C87.7327 44.2651 87.3385 43.8401 86.8611 43.8401H85.5517V45.8072V45.8028Z" fill="white"/>
<path d="M95.4919 48.1642V49.8464H90.6875V42.2017H95.4393V43.884H92.4349V45.1501H95.1634V46.8104H92.4349V48.1642H95.4919Z" fill="white"/>
<path d="M101.578 48.1642V49.8464H96.7734V42.2017H101.525V43.884H98.5209V45.1501H101.249V46.8104H98.5209V48.1642H101.578Z" fill="white"/>
<path d="M108.24 42.1973V49.8421H106.492V42.1973H108.24Z" fill="white"/>
<path d="M115.743 42.1973V49.8421H114.433L111.486 45.6889V49.8421H109.738V42.1973H111.048L113.995 46.3504V42.1973H115.743Z" fill="white"/>
<path d="M124.029 46.0219C124.029 48.1861 122.421 49.8464 120.315 49.8464H117.258V42.2017H120.315C122.421 42.2017 124.029 43.862 124.029 46.0262V46.0219ZM122.347 46.0219C122.347 44.712 121.519 43.8796 120.315 43.8796H119.005V48.1598H120.315C121.515 48.1598 122.347 47.3274 122.347 46.0175V46.0219Z" fill="white"/>
<path d="M125.086 47.3756V42.1973H126.833V47.2222C126.833 47.8005 127.105 48.2912 128.033 48.2912C128.962 48.2912 129.233 47.8005 129.233 47.2222V42.1973H130.981V47.3756C130.981 49.0141 129.715 49.9954 128.033 49.9954C126.352 49.9954 125.086 49.0141 125.086 47.3756Z" fill="white"/>
<path d="M136.937 48.1642V49.8464H132.461V42.2017H134.208V48.1642H136.937Z" fill="white"/>
<path d="M145.189 46.2409C145.189 48.5804 143.56 49.9998 141.423 49.9998C139.019 49.9998 137.293 48.2299 137.293 46.035C137.293 43.8402 139.049 42.0483 141.3 42.0483C142.763 42.0483 143.998 42.7712 144.642 43.7963L143.157 44.6463C142.842 44.1424 142.154 43.7525 141.292 43.7525C140.004 43.7525 139.04 44.7032 139.04 46.0482C139.04 47.3931 139.96 48.3 141.445 48.3C142.461 48.3 143.127 47.8531 143.398 47.1215H141.357V45.5925H145.189V46.2497V46.2409Z" fill="white"/>
<path d="M151.105 48.1642V49.8464H146.301V42.2017H151.053V43.884H148.048V45.1501H150.777V46.8104H148.048V48.1642H151.105Z" fill="white"/>
<path d="M158.395 42.1973V49.8421H157.086L154.138 45.6889V49.8421H152.391V42.1973H153.7L156.648 46.3504V42.1973H158.395Z" fill="white"/>
<path d="M159.527 46.0219C159.527 43.77 161.2 42.0439 163.504 42.0439C164.892 42.0439 166.114 42.7318 166.78 43.8139L165.273 44.6857C164.936 44.0942 164.279 43.7481 163.504 43.7481C162.151 43.7481 161.275 44.655 161.275 46.0219C161.275 47.3887 162.146 48.2956 163.504 48.2956C164.279 48.2956 164.945 47.9451 165.273 47.3581L166.78 48.2299C166.123 49.312 164.901 49.9998 163.504 49.9998C161.2 49.9998 159.527 48.2737 159.527 46.0219Z" fill="white"/>
<path d="M172.566 48.1642V49.8464H167.762V42.2017H172.514V43.884H169.509V45.1501H172.238V46.8104H169.509V48.1642H172.566Z" fill="white"/>
<path d="M173.621 48.9615C173.621 48.392 174.09 47.9232 174.659 47.9232C175.228 47.9232 175.697 48.392 175.697 48.9615C175.697 49.531 175.228 49.9998 174.659 49.9998C174.09 49.9998 173.621 49.531 173.621 48.9615ZM173.674 44.3834V42.1973H175.64V44.3834L175.312 47.1127H174.002L173.674 44.3834Z" fill="white"/>
</g>
<defs>
<clipPath id="clip0_659_41">
<rect width="207" height="50" fill="white"/>
</clipPath>
</defs>
</svg>
