<svg width="195" height="72" viewBox="0 0 195 72" fill="none" xmlns="http://www.w3.org/2000/svg">
<path d="M185.654 57.0831L192.061 65.4561V59.6556C192.061 58.8393 191.95 58.2828 191.727 57.9983C191.418 57.6026 190.898 57.417 190.181 57.4294V57.0831H194.473V57.4294C193.928 57.5036 193.557 57.6026 193.359 57.7139C193.174 57.8375 193.026 58.0231 192.914 58.2828C192.815 58.5425 192.753 59.0001 192.753 59.6432V70.8979H192.432L183.651 59.6309V68.2512C183.651 69.0304 183.824 69.5622 184.17 69.8343C184.517 70.1063 184.912 70.2424 185.345 70.2424H185.654V70.5887H181.029V70.2424C181.746 70.2424 182.241 70.0816 182.525 69.7848C182.81 69.488 182.946 68.9685 182.946 68.2512V58.6909L182.674 58.3446C182.402 57.9736 182.154 57.7386 181.944 57.6149C181.734 57.5036 181.437 57.4294 181.029 57.417V57.0708H185.642L185.654 57.0831ZM173.027 57.8499V63.3536H173.287C174.115 63.3536 174.709 63.0815 175.08 62.5497C175.451 62.0178 175.686 61.2263 175.785 60.1751H176.156V67.2494H175.785C175.711 66.4826 175.55 65.8518 175.303 65.3571C175.055 64.8624 174.771 64.5285 174.437 64.3677C174.115 64.1946 173.633 64.108 173.015 64.108V67.9049C173.015 68.647 173.039 69.1046 173.101 69.2653C173.163 69.4261 173.274 69.5622 173.435 69.6735C173.596 69.7848 173.868 69.8343 174.239 69.8343H175.018C176.23 69.8343 177.207 69.5374 177.937 68.9561C178.667 68.3749 179.198 67.4844 179.508 66.2971H179.866L179.285 70.5887H168.055V70.2424H168.488C168.859 70.2424 169.168 70.1682 169.403 70.0321C169.576 69.9332 169.7 69.7724 169.787 69.5498C169.861 69.389 169.886 68.9685 169.886 68.2883V59.3835C169.886 58.7651 169.873 58.3941 169.836 58.2457C169.774 58.0107 169.651 57.8252 169.477 57.7015C169.23 57.516 168.909 57.417 168.488 57.417H168.055V57.0708H178.926V61.0655H178.555C178.37 60.0885 178.11 59.3835 177.776 58.963C177.442 58.5425 176.972 58.2209 176.366 58.0231C176.008 57.8994 175.34 57.8376 174.363 57.8376H173.002L173.027 57.8499ZM165.965 56.7739V61.5231H165.631C165.198 60.2369 164.555 59.2475 163.702 58.5796C162.848 57.9118 161.908 57.5655 160.894 57.5655C159.88 57.5655 159.113 57.8499 158.47 58.4188C157.827 58.9878 157.369 59.7793 157.097 60.7934C156.825 61.8076 156.689 62.8465 156.689 63.9225C156.689 65.2211 156.838 66.3466 157.122 67.3236C157.419 68.3007 157.889 69.018 158.544 69.4756C159.2 69.9332 159.979 70.1682 160.87 70.1682C161.179 70.1682 161.5 70.1311 161.834 70.0569C162.168 69.9827 162.502 69.8837 162.848 69.7601V66.9649C162.848 66.4208 162.811 66.0745 162.749 65.9137C162.675 65.7529 162.539 65.6169 162.317 65.4808C162.094 65.3571 161.834 65.2829 161.525 65.2829H161.191V64.9366H167.511V65.2829C167.029 65.32 166.695 65.3819 166.509 65.4932C166.324 65.6045 166.175 65.7776 166.076 66.0126C166.014 66.1363 165.99 66.4579 165.99 66.9526V69.7477C165.161 70.1311 164.295 70.4155 163.405 70.6134C162.514 70.8113 161.574 70.9103 160.61 70.9103C159.385 70.9103 158.359 70.7371 157.543 70.3908C156.726 70.0445 156.009 69.5869 155.391 69.018C154.772 68.4491 154.278 67.8059 153.931 67.101C153.486 66.1858 153.263 65.1593 153.263 64.0338C153.263 62.0055 153.956 60.2864 155.329 58.8888C156.702 57.4913 158.433 56.7863 160.523 56.7863C161.166 56.7863 161.748 56.8358 162.267 56.9471C162.551 56.9965 163.009 57.145 163.64 57.4047C164.271 57.652 164.642 57.7757 164.753 57.7757C164.938 57.7757 165.099 57.7139 165.248 57.5778C165.396 57.4418 165.544 57.1821 165.668 56.7987H166.002L165.965 56.7739ZM151.717 57.0831V60.7316H151.383C151.173 59.8906 150.951 59.2846 150.703 58.9135C150.456 58.5425 150.11 58.2457 149.677 58.0354C149.429 57.9118 149.009 57.8499 148.403 57.8499H147.426V68.2883C147.426 68.9809 147.463 69.4138 147.537 69.5993C147.611 69.7724 147.747 69.9208 147.958 70.0569C148.168 70.1929 148.452 70.2548 148.823 70.2548H149.244V70.6011H142.479V70.2548H142.912C143.283 70.2548 143.579 70.1806 143.814 70.0445C143.975 69.9456 144.111 69.7848 144.198 69.5622C144.272 69.4014 144.297 68.9809 144.297 68.3007V57.8623H143.357C142.491 57.8623 141.86 58.0602 141.465 58.4436C140.908 58.9754 140.562 59.7422 140.413 60.744H140.042V57.0955H151.717V57.0831ZM133.475 62.661L137.049 68.1893C137.643 69.1293 138.063 69.6858 138.323 69.8961C138.571 70.094 138.867 70.2177 139.214 70.2548V70.6011H132.857V70.2548C133.364 70.2177 133.685 70.1311 133.834 70.0198C133.982 69.8961 134.056 69.7477 134.056 69.5745C134.056 69.4509 134.032 69.3519 133.994 69.253C133.908 69.0551 133.685 68.6717 133.327 68.1275L131.434 65.2335L129.456 67.7317C128.862 68.4985 128.565 69.0304 128.565 69.3024C128.565 69.5003 128.639 69.6735 128.788 69.8466C128.936 70.0074 129.171 70.1311 129.468 70.2053C129.604 70.2424 129.876 70.2671 130.297 70.2671V70.6134H125.3V70.2671C125.869 70.1806 126.314 70.0198 126.636 69.7848C127.069 69.4756 127.662 68.8325 128.429 67.8554L131.014 64.6027L127.712 59.5319C127.168 58.6909 126.858 58.2209 126.784 58.1344C126.611 57.9118 126.438 57.751 126.277 57.6644C126.116 57.5778 125.881 57.5036 125.584 57.4542V57.1079H132.028V57.4542H131.706C131.335 57.4542 131.076 57.516 130.927 57.6397C130.779 57.7633 130.705 57.9241 130.705 58.1096C130.705 58.2581 130.729 58.3817 130.779 58.493L131.434 59.5443L133.055 62.055L134.403 60.3606C135.108 59.4577 135.454 58.827 135.454 58.4683C135.454 58.2828 135.404 58.122 135.305 57.9612C135.207 57.8128 135.058 57.6891 134.885 57.6026C134.699 57.516 134.415 57.4789 134.019 57.4789V57.1326H138.806V57.4789C138.434 57.4789 138.125 57.5284 137.89 57.6273C137.655 57.7139 137.42 57.887 137.148 58.1344C136.987 58.2952 136.567 58.8022 135.899 59.6309L133.463 62.6981L133.475 62.661ZM117.409 57.8499V63.3536H117.669C118.498 63.3536 119.091 63.0815 119.462 62.5497C119.833 62.0178 120.068 61.2263 120.167 60.1751H120.538V67.2494H120.167C120.093 66.4826 119.932 65.8518 119.685 65.3571C119.438 64.8624 119.153 64.5285 118.819 64.3677C118.498 64.1946 118.015 64.108 117.397 64.108V67.9049C117.397 68.647 117.422 69.1046 117.484 69.2653C117.545 69.4261 117.657 69.5622 117.83 69.6735C117.991 69.7848 118.263 69.8343 118.634 69.8343H119.413C120.625 69.8343 121.602 69.5374 122.332 68.9561C123.061 68.3749 123.593 67.4844 123.902 66.2971H124.261L123.68 70.5887H112.45V70.2424H112.883C113.254 70.2424 113.563 70.1682 113.798 70.0321C113.959 69.9332 114.095 69.7724 114.181 69.5498C114.256 69.389 114.293 68.9685 114.293 68.2883V59.3835C114.293 58.7651 114.28 58.3941 114.243 58.2457C114.181 58.0107 114.058 57.8252 113.885 57.7015C113.637 57.516 113.316 57.417 112.895 57.417H112.462V57.0708H123.334V61.0655H122.962C122.777 60.0885 122.517 59.3835 122.183 58.963C121.849 58.5425 121.379 58.2209 120.761 58.0231C120.402 57.8994 119.735 57.8376 118.757 57.8376H117.409V57.8499ZM102.778 57.0831L109.185 65.4561V59.6556C109.185 58.8393 109.074 58.2828 108.851 57.9983C108.542 57.6026 108.022 57.417 107.305 57.4294V57.0831H111.609V57.4294C111.065 57.5036 110.694 57.6026 110.496 57.7139C110.31 57.8375 110.162 58.0231 110.051 58.2828C109.952 58.5425 109.89 59.0001 109.89 59.6432V70.8979H109.568L100.787 59.6309V68.2512C100.787 69.0304 100.96 69.5622 101.307 69.8343C101.653 70.1063 102.049 70.2424 102.482 70.2424H102.791V70.5887H98.1529V70.2424C98.8702 70.2424 99.3649 70.0816 99.6494 69.7848C99.9338 69.488 100.07 68.9685 100.07 68.2512V58.6909L99.7978 58.3446C99.5257 57.9736 99.2783 57.7386 99.0681 57.6149C98.8578 57.5036 98.561 57.4294 98.1529 57.417V57.0708H102.766L102.778 57.0831ZM93.3913 65.8642L92.8966 70.5887H81.3823V70.2424H81.8151C82.1862 70.2424 82.4953 70.1682 82.7303 70.0321C82.8911 69.9332 83.0272 69.7724 83.1137 69.5498C83.1879 69.389 83.2127 68.9685 83.2127 68.2883V59.3835C83.2127 58.6909 83.1756 58.2457 83.1137 58.0725C83.0395 57.8994 82.9035 57.751 82.6932 57.6149C82.483 57.4789 82.1985 57.417 81.8275 57.417H81.3946V57.0708H88.3205V57.417H87.7516C87.3806 57.417 87.0714 57.4913 86.8364 57.6273C86.6756 57.7262 86.5396 57.887 86.4406 58.1096C86.3664 58.2704 86.3417 58.6909 86.3417 59.3711V67.9915C86.3417 68.6841 86.3788 69.1293 86.453 69.3148C86.5272 69.5003 86.6756 69.6487 86.8983 69.7353C87.059 69.7972 87.4424 69.8219 88.0484 69.8219H89.1244C89.817 69.8219 90.3859 69.6982 90.8436 69.4385C91.3012 69.1911 91.6969 68.7954 92.0309 68.2512C92.3648 67.707 92.6863 66.9031 92.9832 65.8395H93.3913V65.8642ZM74.6542 66.0126L72.7125 61.4118L70.7213 66.0126H74.6419H74.6542ZM74.9634 66.7423H70.4121L69.8432 68.0657C69.6577 68.5109 69.5711 68.8696 69.5711 69.1664C69.5711 69.5498 69.7195 69.8343 70.004 70.0198C70.1771 70.1311 70.5976 70.2053 71.2778 70.2548V70.6011H66.9615V70.2548C67.4315 70.1806 67.8149 69.9703 68.1117 69.6487C68.4085 69.3148 68.7796 68.6346 69.2248 67.5957L73.8751 56.8234H74.0606L78.7479 67.8925C79.1932 68.9562 79.5642 69.624 79.8487 69.8961C80.0713 70.1063 80.3681 70.23 80.7762 70.2548V70.6011H74.4934V70.2548H74.7532C75.2602 70.2548 75.6189 70.1806 75.8168 70.0321C75.9528 69.9208 76.027 69.7724 76.027 69.5745C76.027 69.4509 76.0147 69.3272 75.9776 69.2035C75.9652 69.1417 75.8663 68.8943 75.6931 68.4491L74.9882 66.7671L74.9634 66.7423ZM57.6486 66.0003L61.1982 57.0831H66.4668V57.4294H66.0463C65.6629 57.4294 65.3537 57.5036 65.1311 57.6397C64.9703 57.7386 64.8466 57.887 64.7477 58.1096C64.6735 58.2704 64.6488 58.6909 64.6488 59.3835V68.2883C64.6488 68.9809 64.6859 69.4138 64.7477 69.5993C64.8219 69.7724 64.9579 69.9208 65.1806 70.0569C65.3908 70.1929 65.6876 70.2548 66.0463 70.2548H66.4668V70.6011H59.7017V70.2548H60.1222C60.5056 70.2548 60.8148 70.1806 61.0374 70.0445C61.1982 69.9456 61.3218 69.7848 61.4208 69.5622C61.495 69.4014 61.5197 68.9809 61.5197 68.3007V58.2952L56.5232 70.6011H56.2882L51.2174 58.3817V67.8925C51.2174 68.5604 51.2298 68.9685 51.2669 69.1293C51.3535 69.4632 51.5266 69.7353 51.8111 69.9456C52.0832 70.1558 52.5284 70.2671 53.122 70.2671V70.6134H48.6697V70.2671H48.8057C49.0902 70.2671 49.3623 70.23 49.6096 70.1187C49.857 70.0074 50.0425 69.8714 50.1785 69.6982C50.3146 69.5251 50.4135 69.2777 50.4754 68.9685C50.4877 68.8943 50.5001 68.548 50.5001 67.942V59.3959C50.5001 58.7033 50.463 58.2581 50.4011 58.0973C50.3269 57.9241 50.1909 57.7757 49.9683 57.6397C49.7457 57.5036 49.4612 57.4418 49.0902 57.4418H48.6697V57.0955H53.9754L57.6486 66.0126V66.0003ZM41.954 66.0126L40.0123 61.4118L38.0211 66.0126H41.9416H41.954ZM42.2632 66.7423H37.7119L37.143 68.0657C36.9574 68.5109 36.8709 68.8696 36.8709 69.1664C36.8709 69.5498 37.0193 69.8343 37.3037 70.0198C37.4769 70.1311 37.8974 70.2053 38.5776 70.2548V70.6011H34.2613V70.2548C34.7313 70.1806 35.1147 69.9703 35.4115 69.6487C35.7083 69.3148 36.0793 68.6346 36.5246 67.5957L41.1748 56.8234H41.3604L46.0477 67.8925C46.493 68.9562 46.864 69.624 47.1484 69.8961C47.3711 70.1063 47.6679 70.23 48.076 70.2548V70.6011H41.7932V70.2548H42.0529C42.56 70.2548 42.9187 70.1806 43.1166 70.0321C43.2526 69.9208 43.3268 69.7724 43.3268 69.5745C43.3268 69.4509 43.3145 69.3272 43.2773 69.2035C43.265 69.1417 43.166 68.8943 42.9929 68.4491L42.2879 66.7671L42.2632 66.7423ZM25.171 57.8376V63.7246H25.7152C26.6057 63.7246 27.2735 63.638 27.7188 63.4772C28.164 63.3041 28.5103 63.0073 28.7577 62.562C29.005 62.1292 29.1411 61.5479 29.1411 60.8429C29.1411 59.8164 28.9061 59.062 28.4485 58.5672C27.9785 58.0725 27.2364 57.8376 26.2099 57.8376H25.1834H25.171ZM25.171 64.4419V68.2512C25.171 68.9809 25.2081 69.4385 25.3071 69.624C25.3936 69.8095 25.5421 69.9579 25.7647 70.0816C25.9873 70.1929 26.3954 70.2548 26.9891 70.2548V70.6011H20.3353V70.2548C20.9413 70.2548 21.3494 70.1929 21.5597 70.0816C21.7699 69.9703 21.9307 69.8095 22.0173 69.624C22.1038 69.4385 22.1533 68.9809 22.1533 68.2512V59.4206C22.1533 58.6909 22.1162 58.2333 22.0173 58.0478C21.9307 57.8623 21.7823 57.7139 21.5597 57.5902C21.337 57.4789 20.9289 57.417 20.3353 57.417V57.0708H26.3831C27.9538 57.0708 29.104 57.1821 29.8336 57.4047C30.5633 57.6273 31.157 58.0478 31.6146 58.6538C32.0722 59.2598 32.3072 59.9772 32.3072 60.7934C32.3072 61.7952 31.9609 62.6115 31.2683 63.267C30.8231 63.6875 30.2047 63.9967 29.4131 64.1946L32.5298 68.7706C32.9379 69.3643 33.2348 69.7229 33.4079 69.8714C33.6676 70.0692 33.9768 70.1929 34.3231 70.2053V70.5763H30.2294L26.0368 64.4172H25.1834L25.171 64.4419ZM19.4819 70.2548V70.6011H12.7167V70.2548H13.1496C13.5206 70.2548 13.8298 70.1806 14.0648 70.0445C14.238 69.9456 14.3616 69.7848 14.4482 69.5622C14.5224 69.4014 14.5472 68.9809 14.5472 68.3007V59.3959C14.5472 58.7033 14.5101 58.2581 14.4482 58.0849C14.374 57.9118 14.238 57.7633 14.0277 57.6273C13.8175 57.4913 13.533 57.4294 13.162 57.4294H12.7291V57.0831H19.4942V57.4294H19.0614C18.6903 57.4294 18.3935 57.5036 18.1585 57.6397C17.9978 57.7386 17.8617 57.8994 17.7751 58.122C17.7009 58.2828 17.6762 58.7033 17.6762 59.3835V68.2883C17.6762 68.9809 17.7133 69.4138 17.7875 69.5993C17.8617 69.7724 17.9978 69.9208 18.2204 70.0569C18.4306 70.1929 18.7151 70.2548 19.0861 70.2548H19.519H19.4819ZM5.63005 57.8499V63.6999C5.8403 63.7122 6.00108 63.7246 6.11239 63.7246C6.89155 63.7246 7.49757 63.4896 7.91807 62.9949C8.33857 62.5126 8.54883 61.7705 8.54883 60.7563C8.54883 59.7422 8.33857 59.0125 7.91807 58.5549C7.49757 58.0849 6.86682 57.8499 6.02581 57.8499H5.63005ZM5.63005 64.479V68.2264C5.63005 68.9685 5.66715 69.4261 5.76609 69.6116C5.85267 69.7972 6.00108 69.9579 6.2237 70.0692C6.44632 70.1806 6.85445 70.2424 7.43573 70.2424V70.5887H0.819008V70.2424C1.42503 70.2424 1.83316 70.1806 2.04341 70.0692C2.25366 69.9579 2.41444 69.7972 2.48865 69.6116C2.57522 69.4261 2.62469 68.9561 2.62469 68.2264V59.433C2.62469 58.6909 2.58759 58.2333 2.48865 58.0478C2.40207 57.8623 2.25366 57.7015 2.03104 57.5902C1.80842 57.4789 1.40029 57.417 0.806641 57.417V57.0708H6.48342C8.35094 57.0708 9.68666 57.4171 10.5029 58.1096C11.3192 58.8022 11.7273 59.668 11.7273 60.7069C11.7273 61.585 11.4676 62.3394 10.9358 62.9578C10.4163 63.5885 9.68666 64.0091 8.77144 64.2317C8.15306 64.3925 7.1018 64.4667 5.63005 64.4667V64.479Z" fill="white"/>
<path d="M185.654 57.0831L192.061 65.4561V59.6556C192.061 58.8393 191.95 58.2828 191.727 57.9983C191.418 57.6026 190.898 57.417 190.181 57.4294V57.0831H194.473V57.4294C193.928 57.5036 193.557 57.6026 193.359 57.7139C193.174 57.8375 193.026 58.0231 192.914 58.2828C192.815 58.5425 192.753 59.0001 192.753 59.6432V70.8979H192.432L183.651 59.6309V68.2512C183.651 69.0304 183.824 69.5622 184.17 69.8343C184.517 70.1063 184.912 70.2424 185.345 70.2424H185.654V70.5887H181.029V70.2424C181.746 70.2424 182.241 70.0816 182.525 69.7848C182.81 69.488 182.946 68.9685 182.946 68.2512V58.6909L182.674 58.3446C182.402 57.9736 182.154 57.7386 181.944 57.6149C181.734 57.5036 181.437 57.4294 181.029 57.417V57.0708H185.642L185.654 57.0831ZM173.027 57.8499V63.3536H173.287C174.115 63.3536 174.709 63.0815 175.08 62.5497C175.451 62.0178 175.686 61.2263 175.785 60.1751H176.156V67.2494H175.785C175.711 66.4826 175.55 65.8518 175.303 65.3571C175.055 64.8624 174.771 64.5285 174.437 64.3677C174.115 64.1946 173.633 64.108 173.015 64.108V67.9049C173.015 68.647 173.039 69.1046 173.101 69.2653C173.163 69.4261 173.274 69.5622 173.435 69.6735C173.596 69.7848 173.868 69.8343 174.239 69.8343H175.018C176.23 69.8343 177.207 69.5374 177.937 68.9561C178.667 68.3749 179.198 67.4844 179.508 66.2971H179.866L179.285 70.5887H168.055V70.2424H168.488C168.859 70.2424 169.168 70.1682 169.403 70.0321C169.576 69.9332 169.7 69.7724 169.787 69.5498C169.861 69.389 169.886 68.9685 169.886 68.2883V59.3835C169.886 58.7651 169.873 58.3941 169.836 58.2457C169.774 58.0107 169.651 57.8252 169.477 57.7015C169.23 57.516 168.909 57.417 168.488 57.417H168.055V57.0708H178.926V61.0655H178.555C178.37 60.0885 178.11 59.3835 177.776 58.963C177.442 58.5425 176.972 58.2209 176.366 58.0231C176.008 57.8994 175.34 57.8376 174.363 57.8376H173.002L173.027 57.8499ZM165.965 56.7739V61.5231H165.631C165.198 60.2369 164.555 59.2475 163.702 58.5796C162.848 57.9118 161.908 57.5655 160.894 57.5655C159.88 57.5655 159.113 57.8499 158.47 58.4188C157.827 58.9878 157.369 59.7793 157.097 60.7934C156.825 61.8076 156.689 62.8465 156.689 63.9225C156.689 65.2211 156.838 66.3466 157.122 67.3236C157.419 68.3007 157.889 69.018 158.544 69.4756C159.2 69.9332 159.979 70.1682 160.87 70.1682C161.179 70.1682 161.5 70.1311 161.834 70.0569C162.168 69.9827 162.502 69.8837 162.848 69.7601V66.9649C162.848 66.4208 162.811 66.0745 162.749 65.9137C162.675 65.7529 162.539 65.6169 162.317 65.4808C162.094 65.3571 161.834 65.2829 161.525 65.2829H161.191V64.9366H167.511V65.2829C167.029 65.32 166.695 65.3819 166.509 65.4932C166.324 65.6045 166.175 65.7776 166.076 66.0126C166.014 66.1363 165.99 66.4579 165.99 66.9526V69.7477C165.161 70.1311 164.295 70.4155 163.405 70.6134C162.514 70.8113 161.574 70.9103 160.61 70.9103C159.385 70.9103 158.359 70.7371 157.543 70.3908C156.726 70.0445 156.009 69.5869 155.391 69.018C154.772 68.4491 154.278 67.8059 153.931 67.101C153.486 66.1858 153.263 65.1593 153.263 64.0338C153.263 62.0055 153.956 60.2864 155.329 58.8888C156.702 57.4913 158.433 56.7863 160.523 56.7863C161.166 56.7863 161.748 56.8358 162.267 56.9471C162.552 56.9965 163.009 57.145 163.64 57.4047C164.271 57.652 164.642 57.7757 164.753 57.7757C164.938 57.7757 165.099 57.7139 165.248 57.5778C165.396 57.4418 165.544 57.1821 165.668 56.7987H166.002L165.965 56.7739ZM151.717 57.0831V60.7316H151.383C151.173 59.8906 150.951 59.2846 150.703 58.9135C150.456 58.5425 150.11 58.2457 149.677 58.0354C149.429 57.9118 149.009 57.8499 148.403 57.8499H147.426V68.2883C147.426 68.9809 147.463 69.4138 147.537 69.5993C147.611 69.7724 147.747 69.9208 147.958 70.0569C148.168 70.1929 148.452 70.2548 148.823 70.2548H149.244V70.6011H142.479V70.2548H142.912C143.283 70.2548 143.579 70.1806 143.814 70.0445C143.975 69.9456 144.111 69.7848 144.198 69.5622C144.272 69.4014 144.297 68.9809 144.297 68.3007V57.8623H143.357C142.491 57.8623 141.86 58.0602 141.465 58.4436C140.908 58.9754 140.562 59.7422 140.413 60.744H140.042V57.0955H151.717V57.0831ZM133.475 62.661L137.049 68.1893C137.643 69.1293 138.063 69.6858 138.323 69.8961C138.571 70.094 138.867 70.2177 139.214 70.2548V70.6011H132.857V70.2548C133.364 70.2177 133.685 70.1311 133.834 70.0198C133.982 69.8961 134.056 69.7477 134.056 69.5745C134.056 69.4509 134.032 69.3519 133.994 69.253C133.908 69.0551 133.685 68.6717 133.327 68.1275L131.434 65.2335L129.456 67.7317C128.862 68.4985 128.565 69.0304 128.565 69.3024C128.565 69.5003 128.639 69.6735 128.788 69.8466C128.936 70.0074 129.171 70.1311 129.468 70.2053C129.604 70.2424 129.876 70.2671 130.297 70.2671V70.6134H125.3V70.2671C125.869 70.1806 126.314 70.0198 126.636 69.7848C127.069 69.4756 127.662 68.8325 128.429 67.8554L131.014 64.6027L127.712 59.5319C127.168 58.6909 126.858 58.2209 126.784 58.1344C126.611 57.9118 126.438 57.751 126.277 57.6644C126.116 57.5778 125.881 57.5036 125.584 57.4542V57.1079H132.028V57.4542H131.706C131.335 57.4542 131.076 57.516 130.927 57.6397C130.779 57.7633 130.705 57.9241 130.705 58.1096C130.705 58.2581 130.729 58.3817 130.779 58.493L131.434 59.5443L133.055 62.055L134.403 60.3606C135.108 59.4577 135.454 58.827 135.454 58.4683C135.454 58.2828 135.404 58.122 135.305 57.9612C135.207 57.8128 135.058 57.6891 134.885 57.6026C134.699 57.516 134.415 57.4789 134.019 57.4789V57.1326H138.806V57.4789C138.434 57.4789 138.125 57.5284 137.89 57.6273C137.655 57.7139 137.42 57.887 137.148 58.1344C136.987 58.2952 136.567 58.8022 135.899 59.6309L133.463 62.6981L133.475 62.661ZM117.409 57.8499V63.3536H117.669C118.498 63.3536 119.091 63.0815 119.462 62.5497C119.833 62.0178 120.068 61.2263 120.167 60.1751H120.538V67.2494H120.167C120.093 66.4826 119.932 65.8518 119.685 65.3571C119.438 64.8624 119.153 64.5285 118.819 64.3677C118.498 64.1946 118.015 64.108 117.397 64.108V67.9049C117.397 68.647 117.422 69.1046 117.484 69.2653C117.545 69.4261 117.657 69.5622 117.83 69.6735C117.991 69.7848 118.263 69.8343 118.634 69.8343H119.413C120.625 69.8343 121.602 69.5374 122.332 68.9561C123.061 68.3749 123.593 67.4844 123.902 66.2971H124.261L123.68 70.5887H112.45V70.2424H112.883C113.254 70.2424 113.563 70.1682 113.798 70.0321C113.959 69.9332 114.095 69.7724 114.181 69.5498C114.256 69.389 114.293 68.9685 114.293 68.2883V59.3835C114.293 58.7651 114.28 58.3941 114.243 58.2457C114.181 58.0107 114.058 57.8252 113.885 57.7015C113.637 57.516 113.316 57.417 112.895 57.417H112.462V57.0708H123.334V61.0655H122.962C122.777 60.0885 122.517 59.3835 122.183 58.963C121.849 58.5425 121.379 58.2209 120.761 58.0231C120.402 57.8994 119.735 57.8376 118.757 57.8376H117.409V57.8499ZM102.778 57.0831L109.185 65.4561V59.6556C109.185 58.8393 109.074 58.2828 108.851 57.9983C108.542 57.6026 108.022 57.417 107.305 57.4294V57.0831H111.609V57.4294C111.065 57.5036 110.694 57.6026 110.496 57.7139C110.31 57.8375 110.162 58.0231 110.051 58.2828C109.952 58.5425 109.89 59.0001 109.89 59.6432V70.8979H109.568L100.787 59.6309V68.2512C100.787 69.0304 100.96 69.5622 101.307 69.8343C101.653 70.1063 102.049 70.2424 102.482 70.2424H102.791V70.5887H98.1529V70.2424C98.8702 70.2424 99.3649 70.0816 99.6494 69.7848C99.9338 69.488 100.07 68.9685 100.07 68.2512V58.6909L99.7978 58.3446C99.5257 57.9736 99.2783 57.7386 99.0681 57.6149C98.8578 57.5036 98.561 57.4294 98.1529 57.417V57.0708H102.766L102.778 57.0831ZM93.3913 65.8642L92.8966 70.5887H81.3823V70.2424H81.8151C82.1862 70.2424 82.4953 70.1682 82.7303 70.0321C82.8911 69.9332 83.0272 69.7724 83.1137 69.5498C83.1879 69.389 83.2127 68.9685 83.2127 68.2883V59.3835C83.2127 58.6909 83.1756 58.2457 83.1137 58.0725C83.0395 57.8994 82.9035 57.751 82.6932 57.6149C82.483 57.4789 82.1985 57.417 81.8275 57.417H81.3946V57.0708H88.3205V57.417H87.7516C87.3806 57.417 87.0714 57.4913 86.8364 57.6273C86.6756 57.7262 86.5396 57.887 86.4406 58.1096C86.3664 58.2704 86.3417 58.6909 86.3417 59.3711V67.9915C86.3417 68.6841 86.3788 69.1293 86.453 69.3148C86.5272 69.5003 86.6756 69.6487 86.8983 69.7353C87.059 69.7972 87.4424 69.8219 88.0485 69.8219H89.1244C89.817 69.8219 90.3859 69.6982 90.8436 69.4385C91.3012 69.1911 91.6969 68.7954 92.0309 68.2512C92.3648 67.707 92.6863 66.9031 92.9832 65.8395H93.3913V65.8642ZM74.6542 66.0126L72.7125 61.4118L70.7213 66.0126H74.6419H74.6542ZM74.9634 66.7423H70.4121L69.8432 68.0657C69.6577 68.5109 69.5711 68.8696 69.5711 69.1664C69.5711 69.5498 69.7195 69.8343 70.004 70.0198C70.1771 70.1311 70.5976 70.2053 71.2778 70.2548V70.6011H66.9615V70.2548C67.4315 70.1806 67.8149 69.9703 68.1117 69.6487C68.4085 69.3148 68.7796 68.6346 69.2248 67.5957L73.8751 56.8234H74.0606L78.7479 67.8925C79.1932 68.9562 79.5642 69.624 79.8487 69.8961C80.0713 70.1063 80.3681 70.23 80.7762 70.2548V70.6011H74.4934V70.2548H74.7532C75.2602 70.2548 75.6189 70.1806 75.8168 70.0321C75.9528 69.9208 76.027 69.7724 76.027 69.5745C76.027 69.4509 76.0147 69.3272 75.9776 69.2035C75.9652 69.1417 75.8663 68.8943 75.6931 68.4491L74.9882 66.7671L74.9634 66.7423ZM57.6486 66.0003L61.1982 57.0831H66.4668V57.4294H66.0463C65.6629 57.4294 65.3537 57.5036 65.1311 57.6397C64.9703 57.7386 64.8466 57.887 64.7477 58.1096C64.6735 58.2704 64.6488 58.6909 64.6488 59.3835V68.2883C64.6488 68.9809 64.6859 69.4138 64.7477 69.5993C64.8219 69.7724 64.9579 69.9208 65.1806 70.0569C65.3908 70.1929 65.6876 70.2548 66.0463 70.2548H66.4668V70.6011H59.7017V70.2548H60.1222C60.5056 70.2548 60.8148 70.1806 61.0374 70.0445C61.1982 69.9456 61.3218 69.7848 61.4208 69.5622C61.495 69.4014 61.5197 68.9809 61.5197 68.3007V58.2952L56.5232 70.6011H56.2882L51.2174 58.3817V67.8925C51.2174 68.5604 51.2298 68.9685 51.2669 69.1293C51.3535 69.4632 51.5266 69.7353 51.8111 69.9456C52.0832 70.1558 52.5284 70.2671 53.122 70.2671V70.6134H48.6697V70.2671H48.8057C49.0902 70.2671 49.3623 70.23 49.6096 70.1187C49.857 70.0074 50.0425 69.8714 50.1785 69.6982C50.3146 69.5251 50.4135 69.2777 50.4754 68.9685C50.4877 68.8943 50.5001 68.548 50.5001 67.942V59.3959C50.5001 58.7033 50.463 58.2581 50.4012 58.0973C50.3269 57.9241 50.1909 57.7757 49.9683 57.6397C49.7457 57.5036 49.4612 57.4418 49.0902 57.4418H48.6697V57.0955H53.9754L57.6486 66.0126V66.0003ZM41.954 66.0126L40.0123 61.4118L38.0211 66.0126H41.9416H41.954ZM42.2632 66.7423H37.7119L37.143 68.0657C36.9574 68.5109 36.8709 68.8696 36.8709 69.1664C36.8709 69.5498 37.0193 69.8343 37.3037 70.0198C37.4769 70.1311 37.8974 70.2053 38.5776 70.2548V70.6011H34.2613V70.2548C34.7313 70.1806 35.1147 69.9703 35.4115 69.6487C35.7083 69.3148 36.0793 68.6346 36.5246 67.5957L41.1748 56.8234H41.3604L46.0477 67.8925C46.493 68.9562 46.864 69.624 47.1484 69.8961C47.3711 70.1063 47.6679 70.23 48.076 70.2548V70.6011H41.7932V70.2548H42.0529C42.56 70.2548 42.9187 70.1806 43.1166 70.0321C43.2526 69.9208 43.3268 69.7724 43.3268 69.5745C43.3268 69.4509 43.3145 69.3272 43.2773 69.2035C43.265 69.1417 43.166 68.8943 42.9929 68.4491L42.2879 66.7671L42.2632 66.7423ZM25.171 57.8376V63.7246H25.7152C26.6057 63.7246 27.2735 63.638 27.7188 63.4772C28.164 63.3041 28.5103 63.0073 28.7577 62.562C29.005 62.1292 29.1411 61.5479 29.1411 60.8429C29.1411 59.8164 28.9061 59.062 28.4485 58.5672C27.9785 58.0725 27.2364 57.8376 26.2099 57.8376H25.1834H25.171ZM25.171 64.4419V68.2512C25.171 68.9809 25.2081 69.4385 25.3071 69.624C25.3936 69.8095 25.5421 69.9579 25.7647 70.0816C25.9873 70.1929 26.3954 70.2548 26.9891 70.2548V70.6011H20.3353V70.2548C20.9413 70.2548 21.3494 70.1929 21.5597 70.0816C21.7699 69.9703 21.9307 69.8095 22.0173 69.624C22.1038 69.4385 22.1533 68.9809 22.1533 68.2512V59.4206C22.1533 58.6909 22.1162 58.2333 22.0173 58.0478C21.9307 57.8623 21.7823 57.7139 21.5597 57.5902C21.337 57.4789 20.9289 57.417 20.3353 57.417V57.0708H26.3831C27.9538 57.0708 29.104 57.1821 29.8336 57.4047C30.5633 57.6273 31.157 58.0478 31.6146 58.6538C32.0722 59.2598 32.3072 59.9772 32.3072 60.7934C32.3072 61.7952 31.9609 62.6115 31.2683 63.267C30.8231 63.6875 30.2047 63.9967 29.4131 64.1946L32.5298 68.7706C32.9379 69.3643 33.2348 69.7229 33.4079 69.8714C33.6676 70.0692 33.9768 70.1929 34.3231 70.2053V70.5763H30.2294L26.0368 64.4172H25.1834L25.171 64.4419ZM19.4819 70.2548V70.6011H12.7167V70.2548H13.1496C13.5206 70.2548 13.8298 70.1806 14.0648 70.0445C14.238 69.9456 14.3616 69.7848 14.4482 69.5622C14.5224 69.4014 14.5472 68.9809 14.5472 68.3007V59.3959C14.5472 58.7033 14.5101 58.2581 14.4482 58.0849C14.374 57.9118 14.238 57.7633 14.0277 57.6273C13.8175 57.4913 13.533 57.4294 13.162 57.4294H12.7291V57.0831H19.4942V57.4294H19.0614C18.6903 57.4294 18.3935 57.5036 18.1585 57.6397C17.9978 57.7386 17.8617 57.8994 17.7751 58.122C17.7009 58.2828 17.6762 58.7033 17.6762 59.3835V68.2883C17.6762 68.9809 17.7133 69.4138 17.7875 69.5993C17.8617 69.7724 17.9978 69.9208 18.2204 70.0569C18.4306 70.1929 18.7151 70.2548 19.0861 70.2548H19.519H19.4819ZM5.63005 57.8499V63.6999C5.8403 63.7122 6.00108 63.7246 6.11239 63.7246C6.89155 63.7246 7.49757 63.4896 7.91807 62.9949C8.33857 62.5126 8.54883 61.7705 8.54883 60.7563C8.54883 59.7422 8.33857 59.0125 7.91807 58.5549C7.49757 58.0849 6.86682 57.8499 6.02581 57.8499H5.63005ZM5.63005 64.479V68.2264C5.63005 68.9685 5.66715 69.4261 5.76609 69.6116C5.85267 69.7972 6.00108 69.9579 6.2237 70.0692C6.44632 70.1806 6.85445 70.2424 7.43573 70.2424V70.5887H0.819008V70.2424C1.42503 70.2424 1.83316 70.1806 2.04341 70.0692C2.25366 69.9579 2.41444 69.7972 2.48865 69.6116C2.57522 69.4261 2.62469 68.9561 2.62469 68.2264V59.433C2.62469 58.6909 2.58759 58.2333 2.48865 58.0478C2.40207 57.8623 2.25366 57.7015 2.03104 57.5902C1.80842 57.4789 1.40029 57.417 0.806641 57.417V57.0708H6.48342C8.35094 57.0708 9.68665 57.4171 10.5029 58.1096C11.3192 58.8022 11.7273 59.668 11.7273 60.7069C11.7273 61.585 11.4676 62.3394 10.9358 62.9578C10.4163 63.5885 9.68665 64.0091 8.77144 64.2317C8.15306 64.3925 7.1018 64.4667 5.63005 64.4667V64.479Z" stroke="white" stroke-width="0.22" stroke-miterlimit="22.93"/>
<path fill-rule="evenodd" clip-rule="evenodd" d="M84.41 42.3531L85.9188 43.3673C85.8817 41.6234 86.3641 38.5191 86.4507 36.5155C86.8093 28.6249 86.9206 20.7219 86.9825 12.8313C86.9825 9.13336 85.7086 8.74996 85.6839 7.22873C91.6327 7.17926 108.082 7.04321 111.804 8.94785C113.771 9.94963 115.305 11.9656 116.034 14.0928C116.912 16.6653 116.492 19.411 114.785 21.5258C110.902 26.3369 103.432 25.2114 98.7936 28.8104C98.2123 29.2557 96.5427 30.4306 97.0374 31.4695C97.6558 31.7911 98.0392 31.2593 98.4473 31.0243C100.933 29.6514 104.817 31.5437 104.087 34.7593C103.58 37.0226 101.613 38.5068 99.2883 37.9997C95.8501 37.2576 93.7229 31.3335 98.0268 26.2256C98.2247 25.9906 98.2618 25.904 98.4597 25.669C98.8431 25.2362 99.1523 25.063 99.5357 24.6549C101.378 22.6884 104.879 20.8951 106.857 19.5717C109.306 17.9392 109.442 14.7854 107.933 12.3861C105.955 9.21994 96.3448 8.63865 94.6628 9.71465C93.6487 10.3578 94.2918 13.7836 94.131 15.2183C93.9826 16.5045 94.2176 18.1371 94.1063 19.4604L93.896 25.6443C93.896 26.4606 93.7847 26.7574 93.7847 27.5489C93.7971 30.443 93.6981 35.254 94.0692 37.9255C94.3289 39.8301 94.2423 41.3142 95.1204 43.1199C95.5904 44.0846 96.0851 44.9256 96.7901 45.6553C97.6558 46.5705 97.5445 46.62 98.8926 46.4839L100.909 46.2984C116.294 44.3443 125.52 26.6337 117.667 12.6334C108.44 -5.36163 82.3817 -3.72909 76.3215 14.9586C72.4257 25.2114 75.8268 36.5155 84.41 42.3655" fill="white"/>
</svg>
