<svg width="157" height="100" viewBox="0 0 157 100" fill="none" xmlns="http://www.w3.org/2000/svg">
<path d="M62.1445 89.7266H65.0191V90.8284H63.2518V93.0455H64.771V94.1518H63.2518V96.3688H65.0191V97.4707H62.1445V89.731V89.7266Z" fill="white"/>
<path d="M65.7622 91.2297C65.7622 90.1457 66.2937 89.606 67.3523 89.606C68.4109 89.606 68.9468 90.1457 68.9468 91.2297V92.2691H67.8395V91.2297C67.8395 90.8818 67.6801 90.7078 67.3567 90.7033H67.3479C67.029 90.7033 66.8695 90.8773 66.8695 91.2297V91.9301C66.8695 92.2736 67.215 92.6974 67.906 93.197C68.5969 93.6921 68.9424 94.2899 68.9424 94.9858V95.9627C68.9424 97.0467 68.4109 97.591 67.3523 97.591C66.2893 97.591 65.7578 97.0467 65.7578 95.9627V94.9233H66.8651V95.9627C66.8651 96.3107 67.029 96.4891 67.3523 96.4891C67.6756 96.4891 67.8351 96.3152 67.8351 95.9627V95.0795C67.8351 94.7048 67.4896 94.2676 66.7987 93.768C66.1077 93.2728 65.7622 92.6661 65.7622 91.9524V91.2253V91.2297Z" fill="white"/>
<path d="M72.7563 89.7266V90.8284H71.7199V97.4662H70.6126V90.8284H69.5762V89.7266H72.7607H72.7563Z" fill="white"/>
<path d="M73.4648 89.7266H75.1745C76.1578 89.7266 76.6494 90.2709 76.6494 91.3549V95.8381C76.6494 96.9176 76.1356 97.4618 75.1036 97.4618H73.4648V89.7222V89.7266ZM74.5721 90.8285V96.3689H75.0593C75.3827 96.3689 75.5421 96.1949 75.5421 95.8425V91.3593C75.5421 91.0069 75.3827 90.8285 75.0593 90.8285H74.5721Z" fill="white"/>
<path d="M77.5488 96.186H78.82V97.4663H77.5488V96.186Z" fill="white"/>
<path d="M81.7915 95.8066C81.7915 95.1107 82.137 94.5129 82.8235 94.0178C83.5145 93.5226 83.8644 93.0988 83.8644 92.7509V91.2342C83.8644 90.8862 83.7049 90.7078 83.386 90.7078H83.3772C83.0583 90.7078 82.8944 90.8818 82.8944 91.2342V92.2736H81.7871V91.2342C81.7871 90.1502 82.3186 89.606 83.3772 89.606C84.4357 89.606 84.9717 90.1502 84.9717 91.2342V92.7821C84.9717 93.4914 84.6262 94.0981 83.9352 94.5977C83.2443 95.0929 82.8988 95.53 82.8988 95.9092V96.3731H84.9761V97.475H81.7915V95.8155V95.8066Z" fill="white"/>
<path d="M89.1357 95.9628C89.1357 97.0468 88.6042 97.5866 87.5412 97.5866C86.4782 97.5866 85.9512 97.0468 85.9512 95.9628V91.2298C85.9512 90.1458 86.4827 89.6016 87.5412 89.6016C88.5998 89.6016 89.1357 90.1458 89.1357 91.2298V95.9628ZM88.0284 91.2298C88.0284 90.8818 87.869 90.7034 87.5457 90.7034H87.5368C87.2179 90.7034 87.0585 90.8774 87.0585 91.2298V95.9628C87.0585 96.3108 87.2179 96.4892 87.5412 96.4892C87.8646 96.4892 88.0284 96.3152 88.0284 95.9628V91.2298Z" fill="white"/>
<path d="M92.2634 89.7266V96.3644H93.2998V97.4663H90.1152V96.3644H91.1517V90.824H90.1152V89.7222H92.2634V89.7266Z" fill="white"/>
<path d="M95.9129 89.606C96.9759 89.606 97.5073 90.1457 97.5073 91.2297V92.5769C97.5073 93.0855 97.3036 93.4423 96.9006 93.652C97.3036 93.8617 97.5073 94.223 97.5073 94.7271V95.9627C97.5073 97.0467 96.9759 97.5865 95.9129 97.5865C94.8499 97.5865 94.3184 97.0467 94.3184 95.9627V94.7271C94.3184 94.2185 94.5221 93.8617 94.9252 93.652C94.5221 93.4423 94.3184 93.081 94.3184 92.5769V91.2297C94.3184 90.1457 94.8499 89.606 95.9129 89.606ZM96.0192 93.0855C96.1255 93.0855 96.2008 93.0676 96.2539 93.0364C96.3513 92.9829 96.4001 92.8223 96.4001 92.5635V91.2253C96.4001 90.8773 96.2406 90.7033 95.9173 90.6989H95.9084C95.5895 90.6989 95.4256 90.8773 95.4256 91.2253V92.5635C95.4256 92.8223 95.4744 92.9829 95.5718 93.0364C95.625 93.0676 95.7003 93.0855 95.8066 93.0855H96.0192ZM95.9173 96.4891C96.2406 96.4891 96.4001 96.3107 96.4001 95.9627V94.7271C96.4001 94.446 96.3425 94.281 96.2229 94.2275C96.1609 94.2007 96.0634 94.1873 95.935 94.1873H95.8951C95.7667 94.1873 95.6693 94.2007 95.6072 94.2275C95.4877 94.281 95.4301 94.446 95.4301 94.7271V95.9627C95.4301 96.3107 95.5895 96.4847 95.9129 96.4891H95.9217H95.9173Z" fill="white"/>
<path d="M8.53497 76.8705C8.53497 79.1411 9.11076 80.8273 10.1959 82.1165C6.77217 83.2986 3.37501 84.5744 0 85.9439C1.14272 83.8206 1.64321 81.7284 1.64321 79.4578V44.868C1.64321 42.5974 1.14272 40.9022 0 39.6978C1.68751 39.0153 3.37944 38.3551 5.08023 37.7172C7.16193 36.932 9.46952 35.5848 11.281 34.8934C19.6876 32.0741 23.8332 37.454 23.8244 43.9312C23.8332 51.0106 18.3588 59.1919 8.53497 62.6402V76.8705ZM8.53497 40.4651V58.8574C14.4567 56.7741 16.8042 50.3772 16.8042 45.2873C16.8042 40.9067 15.1211 37.5343 11.2855 38.8279C10.5591 39.0733 9.26135 39.7513 8.5394 40.4651H8.53497Z" fill="white"/>
<path d="M33.4836 54.4183V69.7058C33.4836 71.9764 34.0772 73.734 35.1889 75.166C31.681 75.9109 28.1864 76.7451 24.7051 77.673C25.8788 75.6968 26.397 73.6715 26.397 71.401V36.8156C26.397 34.545 25.8832 32.7829 24.7051 31.4313C26.4457 30.9674 28.1864 30.5257 29.9359 30.1064C32.0752 29.5934 34.2233 28.5897 36.0791 28.1302C44.6894 26.3771 48.8971 31.9711 48.8927 38.5241C48.8927 43.4534 46.2706 48.173 41.2081 51.3537C43.2676 56.5818 45.3316 61.8368 47.4 67.1274C48.2239 69.2776 49.4197 70.9905 51.2135 72.418C47.9714 72.8463 44.7337 73.3504 41.5048 73.9303C41.6554 72.1638 41.0575 70.4508 40.2381 68.3318C38.3513 63.5631 36.4733 58.8168 34.5954 54.1016C34.2233 54.1819 33.8557 54.338 33.4836 54.4183ZM33.4836 33.3004V50.6355C39.5604 49.315 41.7307 44.0869 41.7263 38.9211C41.7263 34.5361 39.9369 31.2707 36.0791 32.0647C35.2642 32.2342 34.2233 32.6848 33.4836 33.3004Z" fill="white"/>
<path d="M123.883 28.6923C126.027 29.1741 126.841 29.5978 128.759 30.5212C128.808 33.916 128.857 37.3063 128.905 40.701C127.949 35.6959 126.031 33.1799 123.661 32.6536C120.924 32.0469 118.541 34.0855 118.546 38.2475C118.572 46.1701 134.088 52.0183 134.057 65.8203C134.052 72.9756 129.016 77.3741 119.068 75.3667C116.916 74.9384 114.754 74.2425 112.668 73.444C112.221 69.5586 111.774 65.6776 111.326 61.7966C112.969 67.5779 116.699 70.7095 120.109 71.4143C123.675 72.137 126.921 70.1207 126.921 65.2003C126.948 53.4413 111.348 49.5871 111.326 37.7301C111.326 29.7897 117.155 27.1889 123.892 28.7012L123.883 28.6923Z" fill="white"/>
<path d="M79.4017 86.2426L74.8574 76.8434L79.4017 67.4443L83.946 76.8434L79.4017 86.2426Z" fill="white"/>
<path d="M79.5397 0L81.6702 6.67351H88.5619L82.9856 10.7998L85.116 17.4778L79.5397 13.3515L73.9635 17.4778L76.0939 10.7998L70.5176 6.67351H77.4093L79.5397 0Z" fill="white"/>
<path d="M58.9348 10.0771L60.3255 14.4444H64.8344L61.1848 17.1388L62.58 21.506L58.9348 18.8071L55.2852 21.506L56.6803 17.1388L53.0352 14.4444H57.5396L58.9348 10.0771Z" fill="white"/>
<path d="M99.882 10.0771L101.273 14.4444H105.782L102.136 17.1388L103.527 21.506L99.882 18.8071L96.2369 21.506L97.6276 17.1388L93.9824 14.4444H98.4869L99.882 10.0771Z" fill="white"/>
<path d="M79.4062 47.4642C79.4062 55.4135 76.7664 71.0802 64.7988 71.7538C52.8446 72.6549 50.2447 57.3317 50.2402 49.3824C50.2447 41.665 52.8446 25.0393 64.7988 24.1426C76.762 23.4646 79.4106 39.7379 79.4062 47.4597V47.4642ZM57.4376 48.5304C57.4376 59.0536 60.7373 68.0111 64.7988 67.7435C68.8604 67.4713 72.1734 58.0811 72.1734 47.5579C72.1734 37.0346 68.8604 27.8853 64.7988 28.1574C60.7373 28.4206 57.4332 38.0874 57.4376 48.5304Z" fill="white"/>
<path d="M110.051 49.8639C110.051 57.8132 107.456 73.0874 95.5106 71.9989C83.5519 71.1335 80.9077 55.4222 80.9121 47.4773C80.9121 39.7555 83.5563 23.5268 95.5106 24.3922C107.456 25.4806 110.043 42.1466 110.051 49.8639ZM88.1405 47.687C88.1405 58.2103 91.4535 67.654 95.5106 67.9886C99.5677 68.3187 102.867 59.4147 102.867 48.8914C102.867 38.3682 99.5721 28.7326 95.5106 28.4025C91.4535 28.068 88.1405 37.244 88.1405 47.687Z" fill="white"/>
<path d="M147.96 40.2865V76.692C147.96 78.9625 148.536 81.0592 149.621 83.1112C146.211 81.8755 142.778 80.7335 139.324 79.6852C140.488 78.3782 140.998 76.6473 140.998 74.3767V37.9669C140.369 37.7706 139.735 37.5743 139.102 37.3825C135.674 36.3431 133.247 38.1944 131.852 42.062C131.949 38.2791 132.046 34.4963 132.144 30.709C134.128 31.7662 136.329 32.529 139.102 33.3677C142.725 34.4651 146.33 35.665 149.905 36.9676C152.642 37.9624 154.715 38.6226 156.712 38.8947C156.805 42.7445 156.903 46.5898 156.996 50.4396C155.57 45.6218 153.284 42.2136 149.9 40.978C149.254 40.7416 148.603 40.5096 147.952 40.2821H147.96V40.2865Z" fill="white"/>
</svg>
