<svg width="140" height="140" viewBox="0 0 140 140" fill="none" xmlns="http://www.w3.org/2000/svg">
<g style="mix-blend-mode:luminosity">
<path d="M70.159 133.901C67.303 133.294 55.2257 128.875 43.713 119.98C37.0443 114.823 31.7337 109.069 28.0003 102.881C23.4649 95.5659 21.0646 87.1284 21.0703 78.5212V17.1779C26.815 18.7356 32.7396 19.5311 38.6917 19.5439C51.329 19.5439 62.1137 15.6239 69.9583 8.19922C77.901 15.7499 88.3637 19.5999 101.052 19.5999C107.075 19.5867 113.067 18.7546 118.865 17.1266V78.5399C118.866 87.1213 116.49 95.5352 112 102.849C108.267 109.032 103.017 114.786 96.4137 119.947C84.9943 128.879 72.9917 133.294 70.159 133.901Z" fill="#E41C1E"/>
<path d="M69.9441 9.68356C74.1978 13.5047 79.2033 16.3944 84.6394 18.1676C89.9414 19.8734 95.4827 20.7179 101.052 20.6689C106.694 20.6519 112.312 19.9355 117.777 18.5362V78.5215C117.781 86.9105 115.458 95.1362 111.067 102.284C107.394 108.351 102.242 114.007 95.7414 119.084C84.7281 127.704 73.2668 132.067 70.1588 132.786C67.0461 132.044 55.4681 127.699 44.3801 119.117C37.8188 114.04 32.6108 108.384 28.9054 102.317C24.4763 95.169 22.1326 86.9257 22.1387 78.5169V18.5922C27.5469 19.9318 33.0965 20.6165 38.6681 20.6316C44.2717 20.6824 49.8479 19.8429 55.1881 18.1442C60.6461 16.391 65.6738 13.5082 69.9441 9.68356ZM69.9441 6.67822C60.5828 16.0396 48.5708 18.4522 38.6774 18.4522C32.341 18.4559 26.0381 17.533 19.9688 15.7129V78.5215C19.9688 117.008 64.7968 134.055 70.1681 135.012C75.5861 134.05 119.966 116.919 119.966 78.5449V15.6289C113.844 17.527 107.471 18.4914 101.061 18.4896C91.2241 18.4896 79.3288 16.0536 69.9534 6.67822H69.9441Z" fill="#FFFCF1"/>
<path d="M75.1837 26.1848L74.7171 24.9388H77.1111V32.6668H72.0524C71.9206 32.6668 71.7902 32.6409 71.6684 32.5904C71.5467 32.54 71.4361 32.4661 71.3429 32.3729C71.2498 32.2798 71.1759 32.1692 71.1255 32.0474C71.075 31.9257 71.0491 31.7952 71.0491 31.6635V29.7968H72.9997V31.4115H75.1837V26.1848ZM92.9917 28.6535C92.9917 28.6535 93.9857 28.9055 93.9857 29.6708V31.7755C93.987 31.8921 93.9651 32.0078 93.9213 32.1159C93.8775 32.224 93.8128 32.3223 93.7307 32.4052C93.6487 32.4881 93.5511 32.5539 93.4434 32.5988C93.3358 32.6437 93.2204 32.6668 93.1037 32.6668H87.1584V26.1941L86.7244 24.9481H93.0617C93.2948 24.9494 93.518 25.0428 93.6824 25.2081C93.8468 25.3734 93.9391 25.597 93.9391 25.8301V27.6501C93.9391 28.3735 92.9731 28.6628 92.9731 28.6628M89.1324 28.0001H92.0117V26.1848H89.1324V28.0001ZM92.0444 29.2461H89.1324V31.3975H92.0444V29.2461ZM83.5791 24.9388L86.0571 32.6668H84.1904L83.5324 30.6368H80.6297L79.9671 32.6668H78.1004L80.3311 26.1335L80.3031 24.9248L83.5791 24.9388ZM82.0764 26.1335L81.0497 29.3021H83.1031L82.0764 26.1335ZM51.9811 24.9248C52.2666 24.926 52.5401 25.04 52.742 25.2419C52.9439 25.4438 53.0578 25.7173 53.0591 26.0028V29.0175C53.0571 29.1227 53.0446 29.2274 53.0217 29.3301C53.0003 29.4445 52.9541 29.5528 52.8864 29.6475C52.8078 29.7535 52.7055 29.8398 52.5877 29.8995C52.4264 29.977 52.2486 30.0138 52.0697 30.0068H48.2057V32.6668H46.2597V26.1848L45.8164 24.9388H51.9811M51.1317 26.1848H48.2057V28.7701H51.1317V26.1848ZM59.3544 31.4581H56.3817V24.9248H54.0157L54.4824 26.1708V31.6681C54.4799 31.9274 54.5792 32.1772 54.7589 32.364C54.9387 32.5507 55.1846 32.6595 55.4437 32.6668H61.2817V24.9388H58.9484L59.3871 26.1848L59.3544 31.4581ZM67.8757 30.1981L64.6604 24.9388H62.2384L62.6817 26.1848V32.6668H64.6277V27.7388L67.7031 32.6668H69.7984V24.9388H67.8757V30.1981Z" fill="url(#paint0_linear_659_292)"/>
<path d="M92.7412 59.1638C87.9473 58.3389 83.1061 57.8168 78.2466 57.6004C77.9806 57.6004 75.9786 57.4978 75.9786 55.3091V36.5444H89.7919C91.6306 36.5444 92.7132 37.5664 92.7226 38.7378V41.6171L87.8972 41.3604C87.6563 41.3775 87.418 41.3005 87.2327 41.1456C87.0473 40.9907 86.9292 40.77 86.9032 40.5298V39.2371H81.8072V55.0198C81.8072 55.0198 85.7739 55.1738 86.8986 55.4211V46.7551C86.7586 46.7551 84.3599 46.6011 84.3599 46.6011L85.2932 43.9784L89.8992 44.1511C89.8992 44.1511 92.6992 44.2631 92.6992 47.2264L92.7412 59.1638ZM72.9452 36.5444H67.1539V43.7684L62.0206 36.5444H56.1779V58.0578C58.0959 57.8291 60.0419 57.7778 62.0159 57.6424V43.6424L67.1492 51.0018V57.3811C68.2692 57.3484 69.3892 57.3344 70.5232 57.3344C71.3446 57.3344 72.1659 57.3344 72.9826 57.3344L72.9452 36.5444ZM111.935 43.0778V39.0831C111.935 37.4264 110.647 36.5444 109.135 36.5444H95.5272V44.5524C95.5272 46.9884 98.2199 47.2918 98.2199 47.2918C98.2199 47.2918 104.487 47.9964 106.102 48.2251V58.4918C104.576 58.0578 101.356 57.4231 101.356 57.4231C101.356 57.4231 101.356 53.3491 101.356 53.0644C101.334 52.8166 101.231 52.5831 101.062 52.4005C100.893 52.218 100.668 52.097 100.423 52.0564C98.9712 51.7998 95.5086 51.2771 95.5086 51.2771C95.5086 51.2771 95.5086 57.5538 95.5086 59.7284C101.114 60.876 106.605 62.5237 111.917 64.6518V49.0558C111.944 48.2202 111.672 47.4023 111.149 46.75C110.626 46.0978 109.887 45.6543 109.065 45.4998C109.065 45.4998 106.615 45.0891 101.342 44.6831V39.2418H106.074V41.3044C106.082 41.6046 106.202 41.8908 106.411 42.1062C106.621 42.3215 106.903 42.4501 107.203 42.4664L111.935 43.0778ZM45.0899 59.6818L41.3332 47.0304L39.8072 47.1704L44.4179 36.5444H38.3512L34.2726 45.1684V36.5444H27.8652V64.6751C29.9523 63.7696 32.0919 62.9904 34.2726 62.3418V48.0664L35.3272 47.8891L38.8039 61.0304C40.5259 60.4984 45.0899 59.6818 45.0899 59.6818ZM53.1259 36.5444H47.1339V59.2664C49.1078 58.866 51.1018 58.5716 53.1072 58.3844L53.1259 36.5444Z" fill="#FFFCF1" stroke="url(#paint1_linear_659_292)" stroke-width="2.31" stroke-miterlimit="10"/>
<path d="M92.2275 113.647C92.2275 113.647 91.8681 115.229 89.2361 115.827C89.7536 116.115 90.2333 116.466 90.6641 116.872C90.6641 116.872 89.3948 118.659 86.2821 118.659C82.1941 118.659 79.6508 115.103 79.6508 115.103C80.7921 115.636 82.041 115.898 83.3001 115.869C76.3001 111.552 80.1735 103.413 80.1735 103.413C80.1735 103.413 79.6741 108.985 81.9375 111.785C85.0968 115.687 91.0001 114.245 92.2275 113.647ZM98.2941 92.2973C94.2668 90.6873 89.9968 91.7513 89.9968 91.7513C89.5721 94.5233 88.8161 98.1773 88.8161 98.1773C88.8161 98.1773 91.7515 95.3213 92.6335 92.26L93.1001 93.3007C93.6518 92.9906 94.2795 92.842 94.9116 92.8717C95.5437 92.9014 96.1547 93.1083 96.6748 93.4687L97.3888 92.904C97.3888 93.002 97.5521 98.2473 97.5521 98.2473C97.5521 98.2473 101.78 93.688 98.2988 92.2973H98.2941ZM94.0661 108.22C93.1328 110.619 90.5615 111.547 90.5615 111.547L90.4635 112.065C89.3919 111.661 88.2165 111.625 87.1221 111.963C88.3401 110.245 88.0228 107.483 88.0228 107.483C87.0483 109.518 85.3614 111.125 83.2815 112C84.8306 113.151 86.709 113.773 88.6388 113.773C90.2955 113.745 91.6068 113.335 92.5541 112.471C93.1142 111.925 93.542 111.258 93.8048 110.521C94.0677 109.785 94.1587 108.997 94.0708 108.22H94.0661ZM60.1628 72.114C58.9469 71.3382 57.6227 70.7469 56.2335 70.3594C64.2928 68.5767 74.0508 71.0454 74.0508 71.0454C74.0508 71.0454 67.4195 66.2247 58.9448 66.2247C46.9281 66.2247 40.8475 73.3973 40.8475 73.3973C40.8475 73.3973 43.8948 71.1387 51.7021 70.812C47.8358 71.9651 44.3221 74.073 41.4847 76.9413C38.6474 79.8096 36.5778 83.3461 35.4668 87.2247C35.4668 87.2247 43.2181 72.8 60.1675 72.114H60.1628ZM82.9875 102.956C82.7961 106.251 84.6115 108.043 84.6115 108.043C84.5321 104.42 85.3786 100.836 87.0708 97.6313C85.5541 97.6313 83.1835 99.6707 82.9921 102.956H82.9875ZM75.7355 70.2893C75.7355 70.2893 81.4101 70.07 84.9055 72.254C84.9055 72.254 80.8921 64.9413 74.6715 63.168C74.6715 63.168 77.9101 65.5013 78.7081 67.8627C75.5396 64.9094 71.5435 62.996 67.2561 62.3793C63.3499 61.8053 59.365 62.1065 55.5895 63.2613C55.5895 63.2613 61.5488 63.21 66.9528 65.0673C73.1035 67.2 75.7401 70.3127 75.7401 70.3127L75.7355 70.2893ZM102.116 87.6353C102.041 87.7193 100.343 89.698 99.7828 91.2753L99.7035 91.5133H99.9508H99.9975C100.24 91.5133 101.332 91.4107 101.901 89.6467L102.676 86.9634L102.116 87.6353ZM59.1828 91.2427C56.3044 93.2699 53.994 96.0013 52.4721 99.176C52.0941 95.0133 55.1508 87.9993 55.1508 87.9993C43.4561 102.158 49.9335 115.467 49.9335 115.467C49.9335 115.467 50.1248 110.423 51.1748 106.881C51.8748 114.347 56.7375 119.695 56.7375 119.695C56.7375 119.695 50.5261 106.111 59.2061 91.266L59.1828 91.2427ZM69.2208 97.7013C69.2208 97.7013 65.8328 102.41 65.2775 107.763C64.0548 102.811 66.2715 95.4007 66.2715 95.4007C66.2715 95.4007 62.0948 99.4607 61.3295 104.837C60.8154 99.7764 61.8366 94.6785 64.2601 90.2067C64.2601 90.2067 58.2915 94.7893 57.7828 106.073C57.5741 111.668 58.9093 117.212 61.6421 122.099C61.6421 122.099 61.0821 116.625 61.3061 113.507C63.6628 122.131 69.5335 125.067 69.5335 125.067C69.5335 125.067 66.7335 121.497 65.9541 113.899C66.9528 116.83 70.0095 120.769 73.0941 122.369C65.4315 111.813 69.2441 97.7247 69.2441 97.7247L69.2208 97.7013ZM53.4381 84.504L53.9048 83.9067C53.9048 83.9067 49.4015 85.4047 45.3648 90.3C46.7648 86.352 51.0721 82.0353 51.0721 82.0353C48.2919 83.0187 45.7484 84.5734 43.6055 86.5993C45.7708 81.5127 54.1988 75.894 54.1988 75.894C54.1988 75.894 46.1115 78.1993 41.2488 84.0047C35.4668 91 35.6301 97.4027 35.6301 97.4027C35.6301 97.4027 37.3055 93.8653 39.9001 91.6953C37.4688 97.258 38.7615 103.395 39.2468 105.229L39.4848 106.129L39.6248 105.196C40.1615 101.738 41.4215 97.1413 43.1108 94.0333C42.4761 98.0187 42.3455 106.881 44.4595 110.712L45.0521 111.79L44.8001 110.6C44.8001 110.483 42.5928 98.3547 53.4615 84.5273L53.4381 84.504ZM64.2741 77.784C64.2741 77.784 59.5655 74.1347 56.4528 75.6513C55.8504 75.8942 55.3451 76.3291 55.0151 76.8885C54.6852 77.448 54.5492 78.1007 54.6281 78.7453C54.7401 80.6867 57.0408 82.9873 61.3015 81.914C61.3015 81.914 57.3535 82.2127 56.4575 79.5107C55.8508 77.6813 57.7221 76.9487 57.7221 76.9487C58.0093 77.793 58.5494 78.5286 59.2691 79.0554C59.9888 79.5822 60.8531 79.8748 61.7448 79.8933C62.3001 79.9098 62.8505 79.7863 63.3455 79.534C63.0275 78.8482 62.5209 78.2671 61.8848 77.8587C62.6818 77.7192 63.4953 77.7019 64.2975 77.8073L64.2741 77.784ZM80.8408 99.2507L80.7195 100.1L85.2741 93.2447C85.2741 93.2447 81.6341 91.5507 81.5408 88.452C81.4475 85.3533 84.2661 84.3873 85.6288 84.4013C82.5861 85.9787 83.6828 88.4847 83.6828 88.4847C83.6828 88.4847 84.3408 85.3393 88.3821 86.618C87.4488 86.8047 85.9088 87.1967 85.6428 88.8113C85.5028 89.6793 86.2448 90.5893 87.8921 90.4727C97.1415 89.8333 99.4748 91.4993 99.4748 91.4993C99.4748 91.4993 101.201 86.0814 95.5921 84.0327C97.6105 83.65 99.6992 84.0062 101.477 85.036L102.541 85.6567L101.719 84.7233C99.4328 82.18 95.3261 79.086 88.7228 78.8153H88.4848V78.8573H88.4288C87.6594 79.2321 86.7981 79.3764 85.9486 79.2729C85.0991 79.1694 84.2977 78.8225 83.6408 78.274C81.6621 79.324 79.0255 77.7793 79.0255 77.7793C79.0255 77.7793 79.5201 79.1513 81.8255 79.2587C81.0564 79.6331 80.1946 79.7744 79.3463 79.6649C78.498 79.5554 77.7003 79.2001 77.0515 78.6427C76.5218 78.169 76.1104 77.5779 75.8502 76.9166C75.5901 76.2553 75.4885 75.5423 75.5535 74.8347C76.2643 75.4223 77.1188 75.8103 78.0291 75.9587C78.9393 76.1071 79.8727 76.0107 80.7335 75.6793C83.7808 74.9747 84.8541 77.462 84.8588 77.4713C84.8635 77.4807 87.8361 78.7407 89.6141 76.132H89.6421L89.3108 75.8473C87.7329 74.6073 85.9518 73.6505 84.0468 73.0193C79.567 71.4755 74.6993 71.4755 70.2195 73.0193C69.5101 73.206 65.7955 74.0787 62.1415 72.5527L61.3295 72.212L61.9221 72.8607C62.9712 74.0321 64.323 74.8915 65.8289 75.3443C67.3347 75.7971 68.9363 75.8259 70.4575 75.4274C69.0201 77.7607 64.9088 78.778 64.9088 78.778C65.5816 79.243 66.351 79.5496 67.1592 79.6749C67.9674 79.8001 68.7935 79.7408 69.5755 79.5013C66.6121 81.9233 66.2621 85.1014 67.2841 87.1827C67.7186 88.0615 68.3726 88.8132 69.1828 89.365C69.993 89.9169 70.932 90.2502 71.9088 90.3327C71.9088 90.3327 70.5088 86.6927 72.6135 83.3653C72.3988 84.7653 72.3148 87.5233 74.3075 89.4787C78.0408 93.1233 77.4948 97.1787 77.3501 97.9533L77.2241 98.6393L77.6908 98.1167C78.9415 96.7167 79.1608 94.15 79.1701 93.0253C79.8966 93.8733 80.4255 94.8722 80.7185 95.9496C81.0115 97.0271 81.0612 98.1563 80.8641 99.2553L80.8408 99.2507Z" fill="url(#paint2_linear_659_292)"/>
<path d="M69.9437 7.58812C74.2451 11.7417 79.4345 14.863 85.1197 16.7161C90.2675 18.366 95.6461 19.1821 101.052 19.1334C107.228 19.1089 113.37 18.2263 119.303 16.5108V78.5214C119.311 87.1898 116.913 95.6904 112.378 103.077C108.612 109.307 103.334 115.099 96.6883 120.293C85.0917 129.36 72.8883 133.826 70.1583 134.353C67.4283 133.803 55.1083 129.355 43.4417 120.353C36.731 115.159 31.4017 109.368 27.5983 103.133C23.0184 95.75 20.5938 87.2333 20.5983 78.5448V16.5901C26.4781 18.2349 32.5528 19.0794 38.6583 19.1008C44.0999 19.1497 49.5149 18.337 54.7023 16.6928C60.4076 14.8593 65.6178 11.7449 69.9343 7.58812M69.9343 6.65479C60.573 16.0161 48.561 18.4288 38.6677 18.4288C32.3312 18.4325 26.0283 17.5096 19.959 15.6894V78.5214C19.959 117.007 64.787 134.055 70.1583 135.011C75.5763 134.05 119.956 116.919 119.956 78.5448V15.6288C113.834 17.5269 107.461 18.4913 101.052 18.4894C91.2143 18.4894 79.319 16.0534 69.9437 6.67812L69.9343 6.65479Z" fill="#425CC7"/>
<path d="M69.9448 6.67815C79.3342 16.0535 91.2155 18.4895 101.053 18.4895C107.462 18.4913 113.835 17.5269 119.957 15.6288V78.5215C119.957 116.919 75.5775 134.055 70.1595 135.011C64.7882 134.078 19.9602 117.007 19.9602 78.5448V15.7128C26.0295 17.533 32.3324 18.4558 38.6688 18.4522C48.5715 18.4522 60.6022 16.0395 69.9355 6.67815M69.9355 2.09082L67.6675 4.38215C63.7002 8.33317 58.8504 11.2843 53.5182 12.9922C48.7228 14.51 43.7171 15.2581 38.6875 15.2088C32.6988 15.2046 26.742 14.337 21.0008 12.6328L16.7168 11.2002V78.5215C16.7044 87.9246 19.3196 97.1441 24.2675 105.14C28.3182 111.781 33.9648 117.927 41.0675 123.41C53.3735 132.93 66.4728 137.653 69.6042 138.208L70.1688 138.311L70.7382 138.208C73.8462 137.657 86.8568 132.93 99.0975 123.363C106.098 117.875 111.698 111.725 115.725 105.089C120.622 97.0936 123.207 87.8972 123.192 78.5215V11.0695L118.884 12.5628C113.103 14.3355 107.09 15.2398 101.044 15.2462C96.0531 15.2926 91.0874 14.5411 86.3342 13.0202C81.0227 11.2886 76.1943 8.32923 72.2408 4.38215L69.9448 2.09082H69.9355Z" fill="url(#paint3_linear_659_292)"/>
</g>
<defs>
<linearGradient id="paint0_linear_659_292" x1="45.8164" y1="28.7981" x2="93.9857" y2="28.7981" gradientUnits="userSpaceOnUse">
<stop stop-color="#CBB898"/>
<stop offset="0.49" stop-color="#FFE7C4"/>
<stop offset="1" stop-color="#C3B296"/>
</linearGradient>
<linearGradient id="paint1_linear_659_292" x1="41.2259" y1="79.4078" x2="97.6599" y2="22.9738" gradientUnits="userSpaceOnUse">
<stop offset="0.06" stop-color="#FFDBA7"/>
<stop offset="0.5" stop-color="#C3B296"/>
<stop offset="1" stop-color="#FFDBA7"/>
</linearGradient>
<linearGradient id="paint2_linear_659_292" x1="35.4621" y1="93.59" x2="102.699" y2="93.59" gradientUnits="userSpaceOnUse">
<stop stop-color="#FFDBA7"/>
<stop offset="0.13" stop-color="#C3B296"/>
<stop offset="0.26" stop-color="#FFE7C4"/>
<stop offset="0.49" stop-color="#C29977"/>
<stop offset="0.64" stop-color="#FFE7C4"/>
<stop offset="1" stop-color="#C29977"/>
</linearGradient>
<linearGradient id="paint3_linear_659_292" x1="16.7122" y1="70.2008" x2="123.201" y2="70.2008" gradientUnits="userSpaceOnUse">
<stop stop-color="#FFDBA7"/>
<stop offset="0.13" stop-color="#C3B296"/>
<stop offset="0.26" stop-color="#FFE7C4"/>
<stop offset="0.49" stop-color="#C29977"/>
<stop offset="0.64" stop-color="#FFE7C4"/>
<stop offset="1" stop-color="#C29977"/>
</linearGradient>
</defs>
</svg>
