<svg width="190" height="50" viewBox="0 0 190 50" fill="none" xmlns="http://www.w3.org/2000/svg">
<path d="M109.11 32.6646C109.699 36.3875 111.8 49.2577 111.8 49.2577H122.418C122.418 49.2577 120.032 39.2577 118.759 33.9132C117.596 29.0369 116.79 26.6121 113.055 24.9334L112.785 24.8116C115.604 22.7712 117.25 19.448 116.703 15.2722C116.661 14.9486 116.182 11.2981 116.14 10.9821C115.209 3.87514 110.14 0.418729 103.501 0.418729H95.0418L95.1292 49.2539H105.656L104.557 28.9379H105.671C107.704 28.9379 108.684 29.9505 109.114 32.6608M104.143 21.4465L103.338 6.57785H103.919C106.028 6.57785 107.392 8.19566 107.696 12.0784C107.712 12.2878 107.981 15.6757 107.997 15.8812C108.301 19.7602 106.887 21.4427 104.778 21.4427H104.139L104.143 21.4465ZM126.131 32.9006L114.255 0.422535H121.666L128.43 19.9657L127.537 0.422535H134.947L135.798 32.9045L139.431 49.2615H128.909L126.131 32.9045V32.9006ZM5.22141 33.9437C2.80831 38.9494 3.23393 40.4492 4.67039 40.4492C5.99284 40.4492 7.68771 39.193 9.17737 35.9269C11.6285 30.5443 10.3402 27.4153 9.03296 24.1797C7.4825 20.3807 5.79143 16.5512 9.48518 9.55082C12.7761 3.32699 18.0887 0 23.5267 0C29.9148 0 31.0054 4.22155 28.6645 9.95813L26.7835 14.5641H19.2212C19.8672 13.1443 20.2738 12.2421 20.7374 11.2257C22.6299 7.05367 22.3107 5.83555 21.0642 5.83555C20.0496 5.83555 18.7842 6.85953 17.6707 9.193C15.8162 13.0643 16.9981 15.5805 18.4345 18.3746C20.3118 22.0137 22.5083 26.2505 18.8754 35.2037C15.003 44.7545 7.68771 50 0.73723 50C0.486419 50 0.23941 49.9886 0 49.9772V28.9646H7.6307L5.23281 33.9437H5.22141ZM85.1614 6.57785L84.5116 17.3049H91.1124L90.949 24.8649H84.0556L83.1777 39.3605H92.9213L92.8263 49.2577H71.9635L77.4927 0.422535H93.2899L93.2291 6.57785H85.1576H85.1614ZM160.283 50C169.825 50 170.323 41.5493 162.479 21.4655C156.11 5.16178 151.238 0 144.056 0C136.874 0 135.422 5.16178 139.644 21.4655C144.843 41.5493 150.737 50 160.279 50M146.025 6.06395C147.549 6.06395 149.285 9.48991 153.329 21.4655C158.022 35.3635 158.949 40.1941 157.098 40.1941C155.156 40.1941 153.036 35.3635 148.711 21.4655C144.983 9.48991 144.425 6.06395 146.021 6.06395M190 49.9505C189.597 49.981 189.179 50 188.742 50C181.073 50 174.032 45.1085 170.695 36.8139L156.053 0.422535H164.163L181.077 37.5447C181.944 39.4442 183.103 40.4454 184.296 40.4454C185.489 40.4454 185.717 39.4404 184.813 37.5447L167.169 0.422535H175.278L190 28.2756V49.9505ZM57.9903 31.0468C66.6243 31.0468 72.5107 26.0183 73.8559 16.8367C73.8826 16.654 74.407 12.3791 74.4298 12.204C75.414 4.26722 71.4847 0.422535 64.215 0.422535H56.1054L43.7132 49.2577H54.3308L57.9903 31.0468ZM62.9077 6.57785H63.3447C65.4538 6.57785 66.5521 8.19566 65.7464 12.756C65.7198 12.9121 65.1308 16.2695 65.1004 16.4256C64.1922 21.0278 62.3567 22.8892 60.1108 22.8892H59.6282L62.9077 6.57404V6.57785ZM30.0858 37.5447C29.436 39.4442 29.797 40.4454 30.994 40.4454C32.1911 40.4454 33.2133 39.4404 33.8252 37.5447L45.7652 0.422535H53.8747L44.1084 36.8139C41.8815 45.1085 35.4972 50 27.8285 50C20.1598 50 17.0171 45.1085 20.2928 36.8139L34.6498 0.422535H42.7593L30.0858 37.5447Z" fill="white"/>
</svg>
