<svg width="92" height="80" viewBox="0 0 92 80" fill="none" xmlns="http://www.w3.org/2000/svg">
<path fill-rule="evenodd" clip-rule="evenodd" d="M0 57.1875H22.0275V63.8898H15.7095V80.0001H6.53047V63.8898H0V57.1875Z" fill="white"/>
<path fill-rule="evenodd" clip-rule="evenodd" d="M33.1825 66.4048L28.5461 80.0001H19.7305L28.3763 57.1875H37.9477L46.8008 80.0001H37.8793L33.1825 66.4048Z" fill="white"/>
<path fill-rule="evenodd" clip-rule="evenodd" d="M44.6973 57.1875H66.7244V63.8898H60.4068V80.0001H51.2277V63.8898H44.6973V57.1875Z" fill="white"/>
<path fill-rule="evenodd" clip-rule="evenodd" d="M77.8822 66.4048L73.245 80.0001H64.4297L73.0755 57.1875H82.6469L91.5004 80.0001H82.5789L77.8822 66.4048Z" fill="white"/>
<path fill-rule="evenodd" clip-rule="evenodd" d="M78.0527 15.3144C77.2338 13.704 76.1522 12.1588 74.811 10.711C71.7954 7.45518 67.5393 4.74665 62.5021 2.87793C57.4267 0.995123 51.6338 0 45.7496 0C39.8654 0 34.0725 0.995123 28.9975 2.87793C23.9599 4.74665 19.7034 7.45518 16.6878 10.711C15.3466 12.1592 14.2646 13.7052 13.4453 15.3164C20.0011 13.7313 31.2163 11.6369 41.6299 11.4168C42.6347 11.3954 43.326 11.7165 43.7815 12.2932C44.3368 12.9962 44.2941 15.5031 44.2797 16.6229L43.9831 45.5922C44.5706 45.6119 45.1597 45.6248 45.7496 45.6248C46.3443 45.6248 46.9359 45.6143 47.523 45.5942L47.2268 16.6229C47.2119 15.5031 47.1697 12.9962 47.725 12.2932C48.1805 11.7165 48.8714 11.3954 49.8762 11.4168C60.2853 11.6369 71.4957 13.7301 78.0527 15.3144Z" fill="white"/>
<path fill-rule="evenodd" clip-rule="evenodd" d="M79.45 19.0808C69.8541 16.9115 63.4471 16.5107 57.1231 16.1598C51.6123 15.8544 51.5411 17.8221 52.0919 21.5833C52.1253 21.8127 52.1704 22.1016 52.2235 22.432C54.0717 33.3811 56.373 42.804 56.7694 44.4011C70.2066 41.3317 79.8975 32.8158 79.8975 22.8122C79.8975 21.5531 79.7437 20.3057 79.45 19.0808Z" fill="white"/>
<path fill-rule="evenodd" clip-rule="evenodd" d="M39.4143 21.5833C39.9648 17.8221 39.894 15.8544 34.3832 16.1598C28.0571 16.5107 21.6482 16.9119 12.0486 19.0824C11.7553 20.3069 11.6016 21.5535 11.6016 22.8122C11.6016 27.1364 13.3604 31.3209 16.6882 34.9143C19.7038 38.1696 23.9603 40.8782 28.9979 42.7469C30.8232 43.4241 32.7462 43.9774 34.7284 44.4192C35.101 42.9211 37.4563 33.3015 39.3266 22.1567C39.36 21.9422 39.3906 21.7459 39.4143 21.5833Z" fill="white"/>
</svg>
